<svg version="1.1"
	 xmlns="http://www.w3.org/2000/svg" xmlns:xlink="http://www.w3.org/1999/xlink" xmlns:a="http://ns.adobe.com/AdobeSVGViewerExtensions/3.0/"
	 x="0px" y="0px" viewBox="0 0 414.9 88.4" enable-background="new 0 0 414.9 88.4" width="414.9" height="88.4"
	 xml:space="preserve">
<defs> 
</defs>
<g>
	<path fill="#F7323F" d="M38.3,34.8c0,8.7-6,13.5-16.1,13.5H0V0h20.7c10.1,0,16.1,4.5,16.1,13.1c0,5.2-2.9,9-6.5,10.2
		C35,24.9,38.3,29.4,38.3,34.8z M19.3,19.1c3.7,0,5.7-1.4,5.7-4.4s-2-4.3-5.7-4.3H12v8.7H19.3z M12,38h8.5c3.5,0,5.5-1.9,5.5-4.6
		c0-2.9-2-4.7-5.5-4.7H12V38z"/>
	<path fill="#F7323F" d="M76.8,0v10.9H54.7v7.6H75v10.6H54.7v8.3h22.1v10.9H42.3V0H76.8z"/>
	<path fill="#F7323F" d="M124.2,48.3H114L93.8,20.1v28.3H81.6V0h11.8L112,26.6V0h12.2V48.3z"/>
</g>
<g>
	<path fill="#98D5E9" d="M0.8,87.9V57.6h21.4v6.9H8.6v6h12.4v6.7H8.6v10.7H0.8z"/>
	<path fill="#98D5E9" d="M38.2,88.4c-8.8,0-14.8-6.6-14.8-15.7c0-9.1,6-15.7,14.8-15.7c8.8,0,14.9,6.6,14.9,15.7
		C53.1,81.8,47,88.4,38.2,88.4z M38.2,64c-4.1,0-6.8,3.5-6.8,8.7c0,5.2,2.7,8.7,6.8,8.7c4.1,0,6.9-3.5,6.9-8.7
		C45.1,67.5,42.3,64,38.2,64z"/>
	<path fill="#98D5E9" d="M63.3,77.9v10h-7.9V57.6h13.6c6.5,0,11,3.7,11,10.3c0,4.6-2.3,7.8-6,9.1l7.1,10.9h-8.8l-6.3-10H63.3z
		 M63.3,71.5h4.9c2.8,0,4.1-1.4,4.1-3.7s-1.3-3.7-4.1-3.7h-4.9V71.5z"/>
	<path fill="#98D5E9" d="M99.6,78.5v9.4h-7.9V57.6H105c6.6,0,11,3.7,11,10.5c0,6.7-4.5,10.4-11,10.4H99.6z M104.2,64.2h-4.6v7.6h4.6
		c2.9,0,4.2-1.5,4.2-3.8C108.3,65.7,107,64.2,104.2,64.2z"/>
	<path fill="#98D5E9" d="M126.3,77.9v10h-7.9V57.6h13.6c6.5,0,11,3.7,11,10.3c0,4.6-2.3,7.8-6,9.1l7.1,10.9h-8.8l-6.3-10H126.3z
		 M126.3,71.5h4.9c2.8,0,4.1-1.4,4.1-3.7s-1.3-3.7-4.1-3.7h-4.9V71.5z"/>
	<path fill="#98D5E9" d="M167.6,57.6v6.8h-13.9v4.7h12.7v6.7h-12.7V81h13.9v6.9h-21.7V57.6H167.6z"/>
	<path fill="#98D5E9" d="M177.1,78.9c0.6,2.1,2.4,3.1,4.9,3.1c2.4,0,4.1-1,4.1-2.9c0-1.4-0.9-2.1-2.9-2.5l-5.8-1.2
		c-4.5-1-7.8-3.3-7.8-8.5c0-5.9,4.9-9.8,11.7-9.8c7.4,0,11.6,4.1,12.5,9.3H186c-0.6-1.7-2-3-4.6-3c-2.3,0-3.8,1-3.8,2.7
		c0,1.3,0.9,2.1,2.5,2.4l5.9,1.4c5.2,1.2,8.1,4.1,8.1,8.8c0,6.2-5.2,9.8-11.9,9.8c-7.3,0-12.2-3.5-13.3-9.5H177.1z"/>
	<path fill="#98D5E9" d="M204.4,87.9h-8V57.6h8V87.9z"/>
	<path fill="#98D5E9" d="M208,57.6h11.5c9.5,0,15.3,5.9,15.3,15.2c0,9.2-5.8,15.2-15.3,15.2H208V57.6z M219.1,81
		c5,0,7.9-3.2,7.9-8.3c0-5.1-2.8-8.4-7.9-8.4h-3.3V81H219.1z"/>
	<path fill="#98D5E9" d="M258.8,57.6v6.8h-13.9v4.7h12.7v6.7h-12.7V81h13.9v6.9h-21.7V57.6H258.8z"/>
	<path fill="#98D5E9" d="M288.6,87.9h-6.4l-12.7-17.8v17.8h-7.7V57.6h7.4l11.7,16.7V57.6h7.7V87.9z"/>
	<path fill="#98D5E9" d="M290.9,57.6h26.7v6.8h-9.4v23.5h-8V64.4h-9.3V57.6z"/>
	<path fill="#F7323F" d="M335.4,64.2c-1.9,0-2.9,1.4-3,3h-8.2c0.6-5.6,4.7-10.1,11.2-10.1c6.7,0,10.9,3.8,10.9,9.4
		c0,3.9-2.8,6.7-5.8,9.6l-5,4.9h10.9v6.8h-22v-5.1l10.4-10.4c2.1-2.1,3.5-3.7,3.5-5.4C338.3,65.4,337.2,64.2,335.4,64.2z"/>
	<path fill="#F7323F" d="M348,72.7c0-9.2,5.1-15.7,12.6-15.7c7.5,0,12.6,6.4,12.6,15.7c0,9.2-5.1,15.7-12.6,15.7
		C353.1,88.4,348,82,348,72.7z M355.7,72.7c0,4.7,1.4,8.7,4.9,8.7c3.5,0,4.9-4,4.9-8.7c0-4.7-1.4-8.7-4.9-8.7
		C357.1,64,355.7,68,355.7,72.7z"/>
	<path fill="#F7323F" d="M388.9,87.9h-7.7V66.2l-7.1,3.4v-7.5l9.4-4.5h5.3V87.9z"/>
	<path fill="#F7323F" d="M407.2,65.8c-0.4-1.3-1.5-2.3-3.2-2.3c-2.9,0-4.6,3.2-4.7,6.4v0.2c0.9-1.3,3-2.3,5.6-2.3
		c6.2,0,10,4.4,10,9.8c0,6.1-4.3,10.7-11.3,10.7c-3.9,0-7.3-1.8-9.3-5c-1.8-2.7-2.5-5.9-2.5-9.9c0-9.5,4.5-16.4,12.1-16.4
		c6,0,9.7,3.4,10.7,8.8H407.2z M403.7,82c2.4,0,4.2-1.7,4.2-4.1c0-2.5-1.8-4.2-4.2-4.2c-2.4,0-4.1,1.7-4.1,4.2
		C399.6,80.3,401.3,82,403.7,82z"/>
</g>
<g>
	<path fill="#0082CB" d="M165.8,0.2c12,0,19.1,7.2,20.9,17h-12.6c-1.3-3.5-3.9-5.9-8.3-5.9c-6.7,0-10.5,5.9-10.5,13.9
		c0,7.9,3.8,13.9,10.5,13.9c4.4,0,7-2.4,8.3-6h12.6c-1.7,9.9-8.8,17.1-20.9,17.1c-13.5,0-23.2-10.3-23.2-25S152.3,0.2,165.8,0.2z"/>
	<path fill="#0082CB" d="M215.2,1l18.4,48.3h-12.8l-3.5-9.4h-17.6l-3.4,9.4h-12.5L202.3,1H215.2z M203.6,29.6h9.9l-5-13.6
		L203.6,29.6z"/>
	<path fill="#0082CB" d="M248.7,33.4v16h-12.5V1h21.7c10.4,0,17.6,5.9,17.6,16.5c0,7.3-3.7,12.4-9.6,14.6l11.3,17.3h-14l-10.1-16
		H248.7z M248.7,23.3h7.9c4.5,0,6.5-2.3,6.5-5.8s-2-5.8-6.5-5.8h-7.9V23.3z"/>
	<path fill="#0082CB" d="M290.5,35c1,3.3,3.9,5,7.8,5c3.9,0,6.5-1.7,6.5-4.6c0-2.3-1.5-3.3-4.6-4l-9.3-2
		c-7.1-1.6-12.4-5.3-12.4-13.5c0-9.4,7.9-15.7,18.6-15.7c11.8,0,18.5,6.5,19.8,14.8h-12.4c-1-2.7-3.2-4.7-7.4-4.7
		c-3.6,0-6.1,1.6-6.1,4.3c0,2.1,1.5,3.3,4,3.9l9.4,2.2c8.3,2,12.8,6.5,12.8,13.9c0,9.9-8.3,15.6-18.9,15.6
		c-11.6,0-19.4-5.6-21.2-15.1H290.5z"/>
	<path fill="#0082CB" d="M342.9,50.1c-13.9,0-23.5-10.5-23.5-25c0-14.5,9.6-25,23.5-25c14,0,23.7,10.5,23.7,25
		C366.6,39.6,356.9,50.1,342.9,50.1z M342.9,11.3c-6.5,0-10.8,5.5-10.8,13.9S336.4,39,342.9,39s10.9-5.5,10.9-13.9
		S349.4,11.3,342.9,11.3z"/>
	<path fill="#0082CB" d="M413,49.3h-10.2l-20.2-28.3v28.3h-12.2V1h11.8l18.7,26.6V1H413V49.3z"/>
</g>
</svg>
