<?xml version="1.0" encoding="UTF-8"?>
<svg width="262.34673" height="83.056816" xmlns="http://www.w3.org/2000/svg">
  <path fill="#297fc4" d="m47.530853,33.904877c7.292511,-1.577515 10.777496,-5.52124 10.777496,-11.828766c0,-9.382477 -5.834991,-13.16748 -20.502502,-13.16748l-23.660004,0l0,5.912506l4.052521,0c1.133728,0 1.538727,0.553741 1.538727,2.20874l0,36.033752c0,1.657471 -0.404999,2.287476 -1.538727,2.287476l-4.052521,0l0,5.912537l23.580017,0c15.882507,0 22.769989,-4.335022 22.769989,-14.350037c0,-7.491211 -4.214996,-11.747498 -12.964996,-13.008728m-16.693756,-19.08374l6.64502,0c6.807495,0 9.238739,2.20874 9.238739,8.596252c0,5.992493 -3.161255,8.514984 -9.725006,8.514984l-6.158752,0l0,-17.111237zm7.375,40.529968l-7.375,0l0,-18.29248l7.861267,0c6.887482,0 9.966248,2.522522 9.966248,9.303772c0,6.543701 -2.835022,8.988708 -10.452515,8.988708"/>
  <path fill="#297fc4" d="m82.610626,18.143524c-12.154999,0 -20.501251,8.970001 -20.501251,22.077515c0,12.9375 7.212494,22.163757 21.556244,22.163757c10.20874,0 15.557495,-5.345032 17.744995,-12.073792l-6.158752,-2.931213c-1.863739,5.087463 -5.10498,8.106262 -10.696228,8.106262c-7.373749,0 -11.02002,-5.175049 -11.262512,-13.022522l28.683746,0l0,-2.155029c0,-13.884979 -6.887482,-22.164978 -19.366241,-22.164978m-9.47998,18.456238c0.486237,-8.279999 3.726227,-11.815002 9.47998,-11.815002c5.753754,0 8.183746,3.276276 8.347504,11.815002l-17.827484,0z"/>
  <path fill="#297fc4" d="m129.718872,18.143524c-4.700012,0 -8.832489,2.76001 -10.696259,9.487488l0,-9.227478c-1.863739,0.429993 -5.509979,0.862488 -9.47998,0.862488l-6.563751,0l0,6.466248l3.807495,0c1.054993,0 1.377502,0.518768 1.377502,2.587494l0,24.233734c0,1.983765 -0.486267,2.241272 -1.377502,2.241272l-3.563751,0l0,6.46875l21.067505,0l0,-6.46875l-3.808746,0c-0.890015,0 -1.377502,-0.257507 -1.377502,-2.241272l0,-13.194946c0,-8.795013 2.755005,-14.056274 8.102478,-14.056274c1.216278,0 2.107513,0.345001 2.675018,0.862488c-2.429993,0.775024 -3.890015,3.191254 -3.890015,5.518768c0,3.105011 2.512512,5.691254 5.51001,5.691254c4.618744,0 7.69751,-3.621277 7.69751,-9.055023c0,-6.20874 -3.646271,-10.176239 -9.480011,-10.176239"/>
  <path fill="#297fc4" d="m181.40274,52.553864l0,-18.714996c0,-10.519989 -4.454987,-15.695007 -12.80249,-15.695007c-6.321259,0 -10.858765,2.846252 -13.369995,8.625l0,-8.36499c-1.782501,0.429993 -5.430023,0.861237 -9.398773,0.861237l-9.17749,0c2.122498,0.982513 3.602509,4.732513 3.83374,6.477509l2.587524,-0.01001c1.05249,0 1.377472,0.518768 1.377472,2.587524l0,24.233734c0,1.983765 -0.486237,2.241272 -1.377472,2.241272l-3.566254,0l0,6.46875l20.421234,0l0,-6.46875l-3.161255,0c-0.891235,0 -1.377502,-0.257507 -1.377502,-2.241272l0,-13.108765c0,-9.399994 3.161255,-13.712494 8.591278,-13.712494c4.454987,0 6.481232,2.501251 6.481232,8.366241l0,18.455017c0,1.983765 -0.484985,2.241272 -1.377502,2.241272l-3.160004,0l0,6.46875l20.420013,0l0,-6.46875l-3.566254,0c-0.891235,0 -1.377502,-0.257507 -1.377502,-2.241272"/>
  <path fill="#297fc4" d="m203.543121,52.553864l0,-34.149994c-1.863739,0.429993 -5.51001,0.861237 -9.481262,0.861237l-6.482483,0l0,6.467499l3.161255,0c1.377502,0 1.782501,0.777496 1.782501,3.450012l0,23.371246c0,1.811279 -0.404999,2.241272 -1.296265,2.241272l-3.647491,0l0,6.46875l20.663757,0l0,-6.46875l-3.403748,0c-0.891266,0 -1.296265,-0.429993 -1.296265,-2.241272"/>
  <path fill="#297fc4" d="m248.201508,40.308014c0,-13.88501 -6.887512,-22.165009 -19.366241,-22.165009c-12.154999,0 -20.501251,8.971252 -20.501251,22.078766c0,12.936218 7.212494,22.163757 21.554993,22.163757c10.209991,0 15.558746,-5.346252 17.746246,-12.073792l-6.158752,-2.932495c-1.863739,5.087524 -5.103729,8.107544 -10.697479,8.107544c-7.372498,0 -11.018768,-5.175049 -11.261261,-13.022522l28.683746,0l0,-2.15625zm-28.846252,-3.70874c0.486237,-8.278748 3.726257,-11.813751 9.480011,-11.813751c5.753723,0 8.183746,3.276245 8.346222,11.813751l-17.826233,0z"/>
  <path fill="#297fc4" d="m190.758606,16.44751l5.201233,-3.889984l5.192505,3.889984l-1.98999,-6.301239l5.179993,-3.877502l-6.399994,0l-1.982513,-6.268768l-1.991241,6.268768l-6.388733,0l5.168732,3.877502l-1.98999,6.301239z"/>
  <path fill="#fc4f48" d="m262.346741,80.072235c0,0 -0.971252,-0.211243 -2.788757,-0.60376c-0.907501,-0.196228 -2.029999,-0.40625 -3.346252,-0.66748c-1.319977,-0.236267 -2.841248,-0.507507 -4.543732,-0.777527c-3.398743,-0.58374 -7.550018,-1.118713 -12.308746,-1.622498c-4.76001,-0.532471 -10.140015,-0.982483 -16.015015,-1.299988c-5.873749,-0.346252 -12.237488,-0.57373 -18.976257,-0.688721c-3.369995,-0.043823 -6.824982,-0.081238 -10.362488,-0.070007c-3.537506,0.012451 -7.149994,0.054993 -10.825012,0.113708c-7.34375,0.153748 -14.9375,0.400024 -22.647491,0.80127c-7.70874,0.36377 -15.535004,0.89502 -23.359985,1.484985c-3.911255,0.303772 -7.821259,0.636292 -11.714996,0.987488c-3.893768,0.345032 -7.772522,0.702515 -11.616272,1.10376c-1.922485,0.206299 -3.836243,0.40625 -5.742493,0.608765c-1.904999,0.205017 -3.797485,0.410034 -5.682495,0.61499c-1.88501,0.215027 -3.757507,0.42627 -5.617493,0.640015c-1.857513,0.216248 -3.736267,0.434998 -5.577515,0.60498c-7.389984,0.733765 -14.546234,1.236267 -21.341248,1.5c-3.397491,0.13501 -6.703735,0.226257 -9.902496,0.241272c-3.198761,0.033691 -6.292511,0.002014 -9.263763,-0.078796c-5.938751,-0.150024 -11.387482,-0.52124 -16.203735,-1.059998c-4.813751,-0.587524 -9.005005,-1.248779 -12.415009,-2.116272c-1.704987,-0.424988 -3.21875,-0.866211 -4.52124,-1.304993c-1.302521,-0.44873 -2.390015,-0.909973 -3.256256,-1.32251c-0.866241,-0.411255 -1.51001,-0.784973 -1.933746,-1.053711c-0.418762,-0.276245 -0.63501,-0.422546 -0.63501,-0.422546c0,0 0.233765,0.096252 0.686249,0.276245c0.456268,0.168762 1.132507,0.402527 2.027496,0.643799c0.896271,0.23999 2.01001,0.469971 3.323761,0.674988c1.313751,0.21875 2.831238,0.401245 4.536255,0.537476c1.704987,0.126282 3.59375,0.230042 5.652496,0.299988c2.058746,0.063721 4.287506,0.076233 6.670013,0.032532c4.763733,-0.043701 10.139984,-0.266235 16,-0.618774c2.929993,-0.178711 5.983734,-0.399963 9.141235,-0.63623c3.154999,-0.256226 6.421265,-0.523743 9.773743,-0.835022c6.70752,-0.626221 13.777496,-1.352478 21.073761,-2.223755c3.667511,-0.441223 7.392487,-0.891235 11.165009,-1.34375c3.791229,-0.438721 7.628723,-0.867493 11.501251,-1.227478c3.869995,-0.390015 7.777496,-0.72876 11.697479,-1.059998c3.923767,-0.321228 7.865021,-0.58374 11.804993,-0.841248c7.88501,-0.513733 15.78125,-0.808777 23.55127,-0.997498c7.774994,-0.152527 15.428741,-0.171265 22.831238,0.012512c3.703766,0.082458 7.345001,0.213745 10.904999,0.38623c3.559998,0.17749 7.046265,0.371277 10.434998,0.631226c6.778748,0.5 13.17627,1.163757 19.070007,1.933777c5.890015,0.797485 11.274994,1.692505 16.028748,2.611267c4.744995,0.954956 8.865021,1.922485 12.235016,2.83374c1.683746,0.442505 3.178741,0.907471 4.47998,1.289978c1.297516,0.413757 2.402496,0.751282 3.290009,1.05127c1.769989,0.621277 2.717499,0.956238 2.717499,0.956238"/>
  <path fill="#297fc4" d="m250.183746,67.983246c0,0 -0.962494,-0.226257 -2.773743,-0.643738c-0.902496,-0.206238 -2.023773,-0.428772 -3.335022,-0.70752c-1.316254,-0.246216 -2.829987,-0.54248 -4.529999,-0.831238c-3.389984,-0.61377 -7.529999,-1.191284 -12.282501,-1.743774c-4.75,-0.565002 -10.123749,-1.058716 -15.991241,-1.421204c-5.863739,-0.400024 -12.225006,-0.681274 -18.954987,-0.807556c-6.72876,-0.131226 -13.828766,-0.190002 -21.170013,-0.053772c-7.342499,0.148743 -14.924988,0.362488 -22.631256,0.72998c-7.704987,0.358765 -15.523743,0.903748 -23.342499,1.48877c-7.8125,0.608765 -15.626251,1.313721 -23.308746,2.101257c-1.921234,0.205017 -3.832489,0.408752 -5.736237,0.609985c-1.903748,0.211243 -3.796265,0.418762 -5.677521,0.626282c-3.758728,0.424988 -7.482483,0.894958 -11.173737,1.269958c-7.363739,0.777527 -14.501251,1.263794 -21.273743,1.595032c-6.77002,0.369995 -13.184998,0.399963 -19.10376,0.351257c-5.920013,-0.075012 -11.348755,-0.400024 -16.153748,-0.833801c-4.801239,-0.501221 -8.982513,-1.097473 -12.387512,-1.888733c-1.703735,-0.391235 -3.214996,-0.798767 -4.518738,-1.211243c-1.300003,-0.41748 -2.389999,-0.848755 -3.257507,-1.23999c-0.869995,-0.391235 -1.514999,-0.746277 -1.94249,-1.003784c-0.421249,-0.268738 -0.638748,-0.407471 -0.638748,-0.407471c0,0 0.231247,0.101257 0.679993,0.296265c0.451248,0.173706 1.122498,0.42749 2.011246,0.684998c1.78125,0.512512 4.436264,1.023743 7.83876,1.363708c1.702484,0.15625 3.589996,0.292542 5.647491,0.390015c2.058746,0.087524 4.286255,0.136292 6.667511,0.127502c2.380005,0.012512 4.914978,-0.013672 7.586243,-0.091187c2.671234,-0.07251 5.480011,-0.224976 8.410004,-0.352478c5.861237,-0.265015 12.203735,-0.798767 18.913757,-1.333801c3.351227,-0.288696 6.794983,-0.619995 10.309998,-0.996216c3.516235,-0.381287 7.109985,-0.747498 10.757477,-1.193787c7.276276,-0.875 14.902527,-1.841248 22.616272,-2.584961c7.725006,-0.777527 15.581238,-1.445007 23.444977,-1.955017c7.86377,-0.54126 15.737518,-0.844971 23.491272,-1.065002c7.751251,-0.203735 15.382507,-0.28125 22.772491,-0.125c7.383759,0.14624 14.524994,0.392517 21.286255,0.85376c6.761261,0.462524 13.147491,1.05249 19.03125,1.752502c5.880005,0.733765 11.252502,1.565002 15.998749,2.433777c4.742493,0.89624 8.859985,1.807495 12.227509,2.673706c1.686249,0.420044 3.181244,0.861267 4.482483,1.225037c1.298767,0.393738 2.404999,0.714966 3.292511,1.002502c1.772491,0.59375 2.717499,0.914978 2.717499,0.914978"/>
</svg>
