<svg xmlns="http://www.w3.org/2000/svg" xmlns:xlink="http://www.w3.org/1999/xlink" version="1.1" x="0px" y="0px" viewBox="0 0 100 125" enable-background="new 0 0 100 100" xml:space="preserve"><path d="M73.2,44.2c0,0.3-0.4,2,0.2,2.5c0.5,1,0.2,3-1.2,3.2c-0.2,0.1,0,0-0.2,0.1c-0.2,0.1-0.4,0.7-0.5,0.8c0-0.6,0.1-1.4,0.4-1.6  c1.1,0.2,1.6-2,0.7-2.1c-0.4-0.1-0.2-0.9-0.1-1.8c0.1-0.9,0.3-1.3,0.3-1.6C73,43.2,73.2,44,73.2,44.2z M27.7,47  c0.4-0.1,0.1-1-0.1-1.8c-0.2-0.7-0.3-1-0.6-1.5c0,0-0.1,0.4,0,1.2c0.2,0.6,0.4,1.2-0.1,1.8c-0.8,0.9,0.4,2.6,0.5,2.9  c0.2,0.3,0.6,1.1,0.6,0.6s-0.3-1.4-0.6-1.6C26.9,48.3,27.1,47.1,27.7,47z M58.3,39.1c-0.9-0.3-2.4-0.6-1.4,0.1  c1.9,1.4,5.4,1.4,7.6,0.4c0.9-0.4,0.4-0.5-0.9-0.3C61.8,39.7,59.8,39.6,58.3,39.1z M42.8,49.9c-1.8,1.8-5.9,2.6-7.7,1.5  c-0.6-0.3-0.4,0.2,0,0.5c2.1,1.6,5.6,2,8.4-1.5C43.8,49.9,44.5,48.2,42.8,49.9z M57.5,50c2.1,2.3,4.9,3.2,8,1.7  c1.3-0.6,0.2-0.5-0.9-0.3c-2.1,0.4-4.2-0.3-5.5-1.2C57.5,49.2,56.5,48.9,57.5,50z M51.8,53.7c-0.3-0.2-0.5-0.4-0.9-0.5  c-0.2,0-0.8,0.2-1,0.2c-0.2,0-2.2,0.6-2.9,0.8c-0.9,0.2-1.1,0.3-2,0.4c-1.1,0.2-2.3-0.2-0.1,0.8c6.2,2.3,9.2,1.3,10,1.1  c1.5-0.4,4.8-2.6,3.5-2.5c-0.5,0.1-1.6-0.1-2-0.1c-0.6-0.1-2.2-0.5-2.7-0.6c-0.2,0-0.4,0-0.7,0c-0.1,0-0.8,0.4-0.9,0.5  C52.2,53.8,51.9,53.8,51.8,53.7z M48.8,60.4c0.5-0.2,3.5-0.7,5.5,0.1c0.9,0.4,2,0.1,1.5-0.2c-2.7-1.6-6-1.2-8.5-0.1  C45.9,60.8,48,60.7,48.8,60.4z M56.1,45.7c-0.2-0.2-0.7-0.8-0.8-0.8C55.2,45,55.9,46,56,46.2c0.1,0.3,0.3,1.6-0.7,1.7  c-0.3-0.2-2.2-0.6-2.8,0.4c-0.5,0.8-1.6,0.6-2,0.1c-0.5-0.8-2.4-0.9-3.4-0.2c-0.5,0.2-2-0.4-1.4-1.4c0.3-0.6,1-1.7,0.9-1.8  c-0.1,0-0.6,0.6-1,1.1c-1.3,1.7,0.4,2.9,1,2.9c0.3,0,0.9-0.2,0.9-0.2c0.2,0,1.3-0.5,2.1-0.1c1.5,1.5,3.2,0.6,3.4,0.1  c0.4-0.4,1.7-0.1,2.1-0.2C55.9,48.5,57.6,47.2,56.1,45.7z M48.7,38.4c-0.3,0-0.5,3.2-0.1,5.6C49.1,42.5,49,38.5,48.7,38.4z M53.3,44  c0.2-2.4-0.1-5.6-0.4-5.6C52.6,38.4,52.9,42.5,53.3,44z M42.8,49.9c-1.8,1.8-5.9,2.6-7.7,1.5c-0.6-0.3-0.4,0.2,0,0.5  c2.1,1.6,5.6,2,8.4-1.5C43.8,49.9,44.5,48.2,42.8,49.9z M57.5,50c2.1,2.3,4.9,3.2,8,1.7c1.3-0.6,0.2-0.5-0.9-0.3  c-2.1,0.4-4.2-0.3-5.5-1.2C57.5,49.2,56.5,48.9,57.5,50z M51.8,53.7c-0.3-0.2-0.5-0.4-0.9-0.5c-0.2,0-0.8,0.2-1,0.2  c-0.2,0-2.2,0.6-2.9,0.8c-0.9,0.2-1.1,0.3-2,0.4c-1.1,0.2-2.3-0.2-0.1,0.8c6.2,2.3,9.2,1.3,10,1.1c1.5-0.4,4.8-2.6,3.5-2.5  c-0.5,0.1-1.6-0.1-2-0.1c-0.6-0.1-2.2-0.5-2.7-0.6c-0.2,0-0.4,0-0.7,0c-0.1,0-0.8,0.4-0.9,0.5C52.2,53.8,51.9,53.8,51.8,53.7z   M41.9,33c-2.5-0.3-4.5,1.8-5.7,3.5c-0.3,0.4,1.3-0.9,1.5-1.1c1.2-1.3,1.9-1.9,3.6-1.9c1.6,0,2.9,1.5,4.6,2.6c0.2,0.2,1,0.2,0.5-0.2  C46.4,35.9,43.7,33.2,41.9,33z M55.1,36.3c2.3-1.4,4.8-3.6,7.4-2.3c1.1,0.6,1.7,1.4,2.9,2.2c0.2,0.2,0.9,0.4,0.7,0.3  C64.6,35,62.7,33,60.8,33c-2.5,0-5,2.3-6.4,3.2C54,36.4,54.9,36.4,55.1,36.3L55.1,36.3z M45.8,39.1c0.7-0.4-0.7-0.7-2.1-0.1  c-1.8,0.7-3,0.9-4.7,1.1c-0.9,0.1-2.6,0.2-1.2,0.5C39.8,40.9,44.2,40.1,45.8,39.1z M63.5,36.1c-0.5-0.3-1.1-0.6-1.8-0.8  c0.2,0.3,0.3,0.6,0.3,0.9c0,0.6-0.3,1-0.7,1.4c0.4-0.1,0.9-0.1,1.2-0.2c0.1,0,0.8,0,0.2,0.2c-1,0.3-3.5,1-5.7-0.3  c-0.1,0-0.8-0.4-0.7-0.5c0.8-1.2,2.6-2.5,4.2-2.5c1.7,0,2.9,0.8,3.9,2C64.8,36.8,64,36.4,63.5,36.1z M59.2,37.5  c-0.4-0.3-0.6-0.8-0.6-1.3c0-0.2,0-0.4,0.1-0.6c-0.5,0.3-1.3,0.6-1.8,1.1C57.6,37.2,58.6,37.4,59.2,37.5z M60.3,36  c0-0.3-0.2-0.5-0.5-0.5s-0.5,0.2-0.5,0.5s0.2,0.5,0.5,0.5S60.3,36.3,60.3,36z M45.4,36.7c-2.6,2.1-6.9,0.9-6.8,0.8  c0.2-0.2,0.5-0.1,0.9-0.1c0.4,0,0.7,0.1,1.2,0.1c-0.4-0.3-0.7-0.8-0.7-1.4c0-0.4,0.1-0.7,0.3-0.9c-0.8,0.2-1.5,0.5-1.9,0.8  c-0.5,0.4-1.4,0.7-0.9,0.2c1-1.1,2.3-2,3.9-2C43,34.2,44.5,35.5,45.4,36.7z M41.7,36c0-0.3-0.2-0.5-0.5-0.5s-0.5,0.2-0.5,0.5  c0,0.3,0.2,0.5,0.5,0.5C41.5,36.5,41.7,36.3,41.7,36z M44.7,36.7c-0.5-0.5-0.9-0.9-1.4-1.1c0.1,0.2,0.1,0.4,0.1,0.6  c0,0.5-0.2,0.9-0.5,1.2C43.5,37.3,44.1,37.1,44.7,36.7z M48.8,60.4c0.5-0.2,3.5-0.7,5.5,0.1c0.9,0.4,2,0.1,1.5-0.2  c-2.7-1.6-6-1.2-8.5-0.1C45.9,60.8,48,60.7,48.8,60.4z M35.2,36.9c-0.7,0.4-1.6,0.5-2.5,0.2c-0.6-0.2-0.3,0.3,0.5,0.5  c0.8,0.2,1.5,0,2.1-0.4C36,36.8,35.9,36.5,35.2,36.9z M33.3,39.2c-0.4,0.3,0.5,0.2,1.1-0.2c0.4-0.3,0.6-0.4,1.1-0.7  c0.4-0.2,0.6-0.4,0.1-0.3C35.1,38,33.8,38.8,33.3,39.2z M68.5,37c0.7-0.5-0.2-0.5-0.7-0.3c-0.7,0.3-1.4,0.5-2.1,0.6  c-0.2,0-0.5,0.2-0.2,0.2C66.1,37.7,67.7,37.5,68.5,37z M65.9,38.5c0.3,0.1,0.6,0.3,1,0.4c0.8,0.3,1.3,0,0.8-0.2  c-0.5-0.2-1-0.4-1.6-0.5c-0.2,0-0.6-0.1-0.7,0.1C65.3,38.4,65.9,38.5,65.9,38.5z M56.1,45.7c-0.2-0.2-0.7-0.8-0.8-0.8  C55.2,45,55.9,46,56,46.2c0.1,0.3,0.3,1.6-0.7,1.7c-0.3-0.2-2.2-0.6-2.8,0.4c-0.5,0.8-1.6,0.6-2,0.1c-0.5-0.8-2.4-0.9-3.4-0.2  c-0.5,0.2-2-0.4-1.4-1.4c0.3-0.6,1-1.7,0.9-1.8c-0.1,0-0.6,0.6-1,1.1c-1.3,1.7,0.4,2.9,1,2.9c0.3,0,0.9-0.2,0.9-0.2  c0.2,0,1.3-0.5,2.1-0.1c1.5,1.5,3.2,0.6,3.4,0.1c0.4-0.4,1.7-0.1,2.1-0.2C55.9,48.5,57.6,47.2,56.1,45.7z M48.7,38.4  c-0.3,0-0.5,3.2-0.1,5.6C49.1,42.5,49,38.5,48.7,38.4z M53.3,44c0.2-2.4-0.1-5.6-0.4-5.6C52.6,38.4,52.9,42.5,53.3,44z M43.7,32  c-2.2-1.2-5.8-0.8-8,0.9c-1.4,1.1-0.7-0.2-0.6-0.3c0.8-0.7,1.4-1.1,2.1-1.4c1.1-0.5,2.1-0.7,3.3-0.8c1-0.1,2.7-0.1,3.8,0.3  c0.8,0.3,2.4,0.8,1.6,1.9c-0.2,0.2-0.7,0.3-1,0.2C44.8,32.6,44.1,32.2,43.7,32z M56,32.7c-0.5,0.1-1.3-0.1-1.2-0.8  c0.1-0.7,1.4-1.2,2-1.3c0.8-0.2,1.5-0.4,2.3-0.4c1.5,0,3.1,0.2,4.5,0.8c0.8,0.3,1.5,0.8,2.2,1.3c0.4,0.3,1,0.9,1.1,1.4  c0,0.1-0.4,0.1-0.7-0.1c-0.7-0.6-1.1-0.7-1.8-1.2c-0.8-0.5-1.9-0.9-2.9-0.9c-0.9-0.1-2,0.1-2.9,0.3C57.7,31.9,56.2,32.7,56,32.7z"/><path d="M96.9,99.2l-3.4-12.6c0-0.1-0.1-0.2-0.2-0.2c0,0-28.9-10.2-29.6-10.5c-0.1-0.1-0.3-0.1-0.4-0.2c0.2-0.1,0.4-0.1,0.6-0.2  C91.9,63,87.6,7.2,60.9,7.2c-1.4,0-2.9,0.2-4.5,0.5C53,3.9,49.1,2.3,45.1,2.3c0,0,0,0,0,0l0,1.8c3.8,0,7.1,1.6,10,4.8l0.7,0.8l1-0.2  C58.2,9.1,59.6,9,60.9,9c4.8,0,8.9,1.9,12.4,5.8c3.2,3.6,5.6,8.7,6.9,14.8c1.8,8.4,1.3,17.9-1.4,25.9c-1.4,4.2-3.4,8-6,11  c-2.7,3.3-5.9,5.8-9.5,7.5c-0.4,0.2-0.5,0.4-0.8,0.1c-1.2-1.9-1-4.4,0-6.4c0-0.1,0.1-0.1,0.1-0.1c2.8-2.2,4.7-4.4,7.8-10.1  c0,0,0.1,0,0.1,0c1.4,0,2.5-1.1,2.6-2.4c1.6-1.3,2.6-3.1,3-7c0.2-2.1,0.4-5.6-1.3-7.5c-0.6-0.7-1-1.1-1.9-1.2  c-0.1-1.6-0.4-3.9-1-6.5c-0.2-0.8-0.4-1.6-0.6-2.3c-0.9-3.4-1.9-7-3.7-9.7c-1-1.6-2.2-2.7-3.7-3.6c-1.6-0.9-3.5-1.4-5.6-1.4  c-1.4,0-2.9,0.2-4.6,0.6c-2.1-1-4.1-1.5-6.1-1.5c-2.8,0-5.4,1-7.9,2.9c-2,1.6-4,3.8-5.8,6.7c-3,4.8-5,11-6.3,15.5  c-1.2,0-2.1,0.3-2.9,1.3c-1.8,2.2-1.6,5.7-0.9,8.7c0.5,2.2,1.4,3.6,2.8,4.5c0.4,0.2,0.6,0.9,1,1c0,0,0,0.1,0,0.1  c0.1,0.4,0.3,0.7,0.6,0.9c0.4,0.5,1,0.7,1.6,0.8c1.9,3.1,4.4,5.9,7.5,8.3c0.2,0.3,0.6,1.4,0.7,3.2c0.1,1.7-0.1,3.4-0.6,4.3  c-0.3,0.7-0.6,0.7-0.7,0.7c-0.2,0-0.6-0.1-1.4-0.6c-4.1-3.1-6.9-5.5-9.3-8.7c-2.4-3.2-4.4-7.2-6.8-13.5L19,50.9l-0.1-0.2  c-1.1-1.7-2-3.7-2.4-5.9c-0.4-2.1-0.5-4.4-0.3-6.9c0.4-4.7,2.1-9.8,4.7-14.7C23.8,17.9,27.7,13,32,9.6c4.5-3.6,9-5.5,13.1-5.5V2.3  C27,2.3,6.3,34.9,17.4,51.7c4.9,12.8,8.4,16.6,16.8,23c0.8,0.6,1.5,0.8,2.1,0.9C34.7,77,6.2,86.5,6.2,86.5c-0.1,0-0.2,0.1-0.2,0.2  L2.6,99.2c0,0.2,0.1,0.4,0.3,0.4l93.7,0C96.8,99.6,97,99.4,96.9,99.2z M72,55.5c-0.1,0.2-0.2,0.3-0.3,0.4c-0.2,0.2-0.4,0.4-0.7,0.5  c-0.1,0-0.2,0.1-0.3,0.1c-0.1,0-0.3,0.1-0.4,0.1c-0.2,0-0.3,0-0.5-0.1c-0.1,0-0.2-0.1-0.3-0.1c-0.1-0.1-0.3-0.2-0.4-0.3  c0,0-0.1-0.1-0.1-0.1c0,0,0,0,0,0c-0.1-0.1-0.1-0.2-0.2-0.3c0-0.1-0.1-0.2-0.1-0.2c0,0,0-0.1,0-0.1c0,0,0-0.1,0-0.1  c0-0.1,0-0.2,0-0.3c0-0.8,0.6-1.5,1.4-1.7c0.1,0,0.2,0,0.3,0c0.1,0,0.1,0,0.2,0c0,0,0,0,0,0c0.1,0,0.2,0,0.3,0.1  c0.1,0,0.1,0,0.2,0.1c0.2,0.1,0.3,0.2,0.4,0.3c0,0,0.1,0.1,0.1,0.1c0,0,0.1,0.1,0.1,0.1c0.1,0.1,0.2,0.3,0.2,0.4  c0.1,0.2,0.1,0.4,0.1,0.6c0,0.1,0,0.2,0,0.3C72.1,55.2,72,55.3,72,55.5C72,55.4,72,55.4,72,55.5z M31.1,56c-0.1,0.1-0.1,0.1-0.2,0.2  c0,0-0.1,0.1-0.1,0.1c-0.2,0.1-0.5,0.2-0.8,0.2c-0.2,0-0.4,0-0.5-0.1c-0.1,0-0.2-0.1-0.3-0.1c0,0,0,0,0,0c-0.1-0.1-0.2-0.1-0.3-0.2  c0,0-0.1-0.1-0.1-0.1c0,0-0.1-0.1-0.1-0.1c0,0,0,0,0,0c-0.1-0.1-0.2-0.3-0.2-0.5c0,0,0-0.1,0-0.1c0,0,0-0.1,0-0.1c0-0.1,0-0.2,0-0.3  c0-0.3,0.1-0.6,0.2-0.8c0-0.1,0.1-0.2,0.2-0.2c0.1-0.2,0.3-0.3,0.5-0.4c0.1,0,0.1-0.1,0.2-0.1c0.1,0,0.2-0.1,0.4-0.1  c0,0,0.1,0,0.1,0c0.1,0,0.1,0,0.2,0c0,0,0.1,0,0.1,0c0.1,0,0.3,0,0.4,0.1c0.1,0,0.2,0.1,0.4,0.2c0,0,0.1,0,0.1,0.1  c0.2,0.1,0.3,0.2,0.4,0.4c0,0.1,0.1,0.1,0.1,0.2c0,0.1,0.1,0.1,0.1,0.2c0,0.1,0.1,0.2,0.1,0.3s0,0.2,0,0.3  C31.7,55.2,31.5,55.6,31.1,56C31.2,55.9,31.1,56,31.1,56z M31.1,56.9c0.6-0.5,1.4-1.3,1.4-2.2c0-0.4-0.1-0.8-0.3-1.2  c-0.2-0.3-0.5-0.6-0.8-0.9c-0.5-0.3-1-0.5-1.5-0.5c-0.2,0-0.4,0-0.6,0.1c-0.4-1.2-0.7-2.3-0.7-2.3s0.1,1.2,0.3,2.4  c-0.6,0.2-1.1,0.7-1.3,1.2c-1-0.5-2.3-1.6-2.8-3.8c-1-4.4,0.1-8.4,2.7-8.4c0.4,0,0.8,0.1,1.2,0.3c2.8-10,8.8-24.9,18.8-24.9  c1.8,0,3.8,0.5,5.9,1.6c1.8-0.5,3.4-0.7,4.8-0.7c7.7,0,9.4,6.5,11.3,13.3c0.2,0.8,0.4,1.5,0.5,2.2c0.9,3.9,1.1,7.2,1.1,8.1  c0.4-0.2,0.8-0.2,1.1-0.2c2.4,0,2.9,4.1,2.6,6.9c-0.4,3.3-1.3,5.1-2.2,5.8c-0.3-0.3-0.7-1-1.1-1.2c-0.2-0.1-0.5-0.2-0.7-0.2  c0.1-0.9,0.1-1.6,0.1-1.6s-0.2,0.7-0.5,1.5c-1.4,0-2.6,1.2-2.6,2.6c0,0.3,0.1,0.6,0.2,0.9c0.1,0.4,0.8,1,1.1,1.2  C59.3,76.8,40.2,71.4,31.1,56.9z M50.5,84.1c-8.2,0-15-2.4-16.2-5.5c1.1-0.5,2-1.1,2.2-1.3c2.4-1.9,3.1-4.1,3.2-6.4  c0.1-1.3,0.1-2.7-0.1-3.8c0.9,0.6,1.8,1.1,2.6,1.4c1.2,1.5,3.8,4.4,3.8,4.4l1.3,4.9c0,0-0.3-4.9-0.4-5.4C46.7,72,46,71,44.6,69.6  c3.4,2,10.8,2.1,11.5,0.6c-0.3,0.7-1.5,2.1-1.6,2.6c-0.1,0.5-0.5,5.1-0.5,5.1l1.5-4.9c0,0,1.6-1.7,2.4-3c0.6-0.3,1.4-0.6,2.1-1.1  c-0.4,1.7,0.2,5.2,1.3,6.8c0.8,1.2,2.1,2,3.4,2.6c0.1,0.1,0.9,0.4,1.7,0.7C64.7,82,58.2,84.1,50.5,84.1z M69.1,16.7  c-0.8-0.3-0.4-1.5,0.3-1.2c4.9,1.9,3.8,8,6.3,11.6c0.5,0.7-0.6,1.3-1.1,0.6c-1.3-1.9-1.6-4.2-2.2-6.4C72,19.5,71.1,17.4,69.1,16.7  L69.1,16.7z M51.4,10c0.5,0.6-0.4,1.5-0.9,0.9c-1.3-1.5-3.4-1.9-5.2-1.4c-2.1,0.5-3.8,2-5.3,3.6c-1.5,1.6-2.9,3.4-4.7,4.7  c-1.8,1.5-4,2.3-6.2,3.2c-0.8,0.3-1.1-0.9-0.3-1.2c2.1-0.8,4.2-1.6,5.9-3c2.9-2.4,4.8-5.7,8.1-7.5C45.4,7.6,49.2,7.4,51.4,10  L51.4,10z M26.4,29.9c0.3-0.8,1.5-0.4,1.2,0.3c-1.4,4.2-3.4,9.2-8.2,10.2c-0.8,0.2-1.1-1-0.3-1.2C23.4,38.3,25.1,33.7,26.4,29.9  L26.4,29.9z"/><text x="0" y="115" fill="#000000" font-size="5px" font-weight="bold" font-family="'Helvetica Neue', Helvetica, Arial-Unicode, Arial, Sans-serif">Created by Lorie Shaull</text><text x="0" y="120" fill="#000000" font-size="5px" font-weight="bold" font-family="'Helvetica Neue', Helvetica, Arial-Unicode, Arial, Sans-serif">from the Noun Project</text></svg>