<svg xmlns="http://www.w3.org/2000/svg" viewBox="0 0 74.92938 116.5311375" x="0px" y="0px"><title>ted cruz icon</title><path d="M47.85169,31.12486c-0.62879-.54526-0.81074,1.80245-7.8258-0.26755-1.29917-.38086-3.377-0.74841-4.49794.07212-1.648,1.20632-2.42351,2.09062-3.51048,2.84973-1.32031.92208,1.0534,1.86662,3.70455,0.47356,4.10617-1.057,7.14547.64711,9.18116,0.22756C47.01862,34.0443,48.4803,31.67,47.85169,31.12486Z" transform="translate(-12.55966 -3.89693)"/><path d="M53.1926,32.61094c0.644-.43147,4.89455.08349,8.1585-0.11949,2.85614-.18622,3.05886.58155,4.06806,1.56747,1.47627,2.00436,2.47208,3.37064,2.25727,3.691s-0.88251.436-2.14534-.46169c-3.91469-2.82988-4.84678-2.26616-8.34231-1.78805C53.28372,36.49552,52.54747,33.04319,53.1926,32.61094Z" transform="translate(-12.55966 -3.89693)"/><path d="M26.0506,43.146c-0.97431.92193-.76273,3.104-0.64585,4.787,0.05876,0.84611-.55813-2.24843-0.91675-3.09722-0.35795-.84719-0.58276-2.048.07307-2.29408a6.037,6.037,0,0,0,1.42114-1.81223Z" transform="translate(-12.55966 -3.89693)"/><path d="M23.8947,39.97256c-0.12795-2.30766-.8245-6.23817-2.4415-5.11063-0.74209.51746-.84288,1.16436,0.05426,1.00141,0.865,0.00334.97322,0.74748,1.11429,1.32508A14.65352,14.65352,0,0,0,23.8947,39.97256Z" transform="translate(-12.55966 -3.89693)"/><path d="M71.89055,44.404c0.61756-2.71932,2.83871-4.3276,3.10625-3.78639,0.27209,0.626.27526,2.31179-.41819,1.12757-0.514.4273-1.39409,1.217-1.39409,1.217Z" transform="translate(-12.55966 -3.89693)"/><path d="M37.45566,41.82306c-0.5448-.22636.14965-0.46475,0.73159-0.38772,0.8688,0.115,3.81739-.12674,4.43775-0.58172,0.7098-.52058,1.8555-0.84044,1.3655-0.00722C43.30154,42.0179,41.1875,43.37365,37.45566,41.82306Z" transform="translate(-12.55966 -3.89693)"/><path d="M70.537,48.47412c0.47286,0.72247.15527,1.35941,0.07845,3.06993,0.30019-.59418.64337-1.1266,0.919-1.75685a1.62219,1.62219,0,0,0-.33344-1.8851A4.12029,4.12029,0,0,1,70.4488,46.184Z" transform="translate(-12.55966 -3.89693)"/><path d="M54.8287,65.16234a19.47142,19.47142,0,0,0-7.55259.11081c-0.95389.20937-2.8367,0.12956-1.3977-.585,3.263-1.62025,8.1701-1.52463,10.61492.205C57.72553,65.765,55.92545,65.51087,54.8287,65.16234Z" transform="translate(-12.55966 -3.89693)"/><path d="M60.22037,59.54024c-0.40787-4.48916-1.55277-5.95691-3.48259-8.97833C59.4375,51.544,61.01135,53.10923,60.22037,59.54024Z" transform="translate(-12.55966 -3.89693)"/><path d="M38.02831,60.041c0.97413-6.05569,2.23924-7.46513,6.35125-10.03409C39.16077,50.45967,37.0903,53.09677,38.02831,60.041Z" transform="translate(-12.55966 -3.89693)"/><path d="M83.17243,79.07687c-6.9762-2.91952-17.71828-7.69-18.39649-7.87249-0.41755-.11161-0.98947,1.31682-0.98947,1.31682-0.46241.99362-4.6503,7.636-10.83272,10.16806-2.32936.64931-6.9259,1.54-9.78479,0.13747-2.75322-1.15954-7.112-6.76745-8.98056-9.29807-1.36408-2.34922-2.258-3.07976-2.68362-3.00571-7.08546,1.23354-8.1358,3.14733-15.44,4.963-3.03776.75511-4.17472,1.29528-3.1206,1.28959,0.03186-.00019.06243,0.01,0.09478,0.0125,7.16805,0.57835,11.39288-3.16613,18.09129-3.5741-0.54711.52384-1.30228,1.2112-1.9983,1.86466-7.082,6.64866-5.76938,6.11467-5.10578,7.13365A40.21415,40.21415,0,0,1,26.795,87.27015c-0.323.28014-1.12416,0.9302-1.602,1.3248-4.51128,3.72314-4.89518,5.00982-4.94752,5.963-0.01757.31361,7.83333-6.067,7.98955-6.30535,0.35346-.5403,1.58075-1.05152-3.069-6.802A64.04134,64.04134,0,0,1,30.16581,76.039a8.50249,8.50249,0,0,1,2.19987-1.46146C30.955,77.94,28.548,87.95512,30.36271,96.29917c0.54092,2.48712.78388-1.3024,0.69262-2.95974a50.958,50.958,0,0,1,1.49738-14.7061,36.49214,36.49214,0,0,0,3.48287,17.00018,1.00486,1.00486,0,0,0,1.16122.79512c1.23775-.25249,2.21851-3.26753,5.60959-9.13986a8.67865,8.67865,0,0,0,1.9923,1.23979c1.05412,0.9.19056,1.76406-1.15633,4.22644-0.86369,1.579-1.42731,2.93177.492,3.4662,1.83942,0.51221,5.47328.60081,7.10117-.71644,1.15657-.93589.58429-2.93833-0.58014-4.75251-0.98427-1.53348-.64139-1.58186.334-2.71492a7.10749,7.10749,0,0,0,.72789-1.12459c0.96286,1.59337,2.16609,3.53431,2.734,4.46717,2.13484,3.50486,4.21215,4.86158,4.80844,4.86158,1.44259,0.14242,2.95431-5.56667,3.85583-10.58627,0.23316-1.29819.51359-3.66489,0.90633-5.9687a31.59261,31.59261,0,0,1,.20924,8.82106c-0.45449,3.63281.54779,13.9381,1.54158,2.95677,0.40128-4.43432.79378-9.96761-1.09607-16.21685-0.00167-.00544-0.00693-0.0065-0.00885-0.01163,0.01547-.14589.02568-0.27451,0.03817-0.41093,1.79042,2.3512,5.28848,6.97867,5.66173,7.72963-0.18128.17818-2.82422,4.12086-2.99071,5.715-0.143,1.37268,6.81618,6.63069,7.171,6.87445,1.52438,1.04731.62-.60285-0.68755-1.69013-0.38408-.31943-4.38115-4.73373-4.695-5.59866,0.17-1.06216,2.99925-4.25827,3.18758-4.53248,0.55261-.80188.09806-1.8534-7.197-10.41956,0.30316,0.08371,19.19039,8.06261,19.24514,8.0769C86.92916,81.64,90.39418,82.09922,83.17243,79.07687ZM37.19681,94.13943c-1.9256-2.23724-4.49333-15.07828-3.30248-18.84262l0.01949-.02481c0.10375,0.1306,7.3635,9.26911,8.00371,9.26911C41.54911,85.33947,38.15794,91.13929,37.19681,94.13943Zm22.06291,0c-1.791-1.2873-6.3017-7.51155-6.55574-9.33259l0.02209-.05723c2.25357-.65445,8.38111-4.03149,10.05423-7.57861C62.2911,81.81277,60.54653,91.21094,59.25972,94.13943Z" transform="translate(-12.55966 -3.89693)"/><path d="M40.02191,36.44878a1.79077,1.79077,0,0,0-1.92654,1.55106,1.78614,1.78614,0,0,0,2.04784,1.392,1.78542,1.78542,0,0,0,1.9187-1.55671A1.78731,1.78731,0,0,0,40.02191,36.44878Zm0.03176,1.72586A0.511,0.511,0,0,1,39.36,38.29a0.46566,0.46566,0,0,1-.13194-0.66362,0.51119,0.51119,0,0,1,.69325-0.11482A0.46586,0.46586,0,0,1,40.05368,38.17464Z" transform="translate(-12.55966 -3.89693)"/><path d="M59.41618,37.19717a1.677,1.677,0,0,0-2.11291,1.08544,1.84951,1.84951,0,0,0,1.71427,1.788,1.77857,1.77857,0,0,0,2.05059-.86029l0.05843-.23248A1.852,1.852,0,0,0,59.41618,37.19717Zm-0.34065,1.68208a0.48708,0.48708,0,0,1-.67188.115,0.47018,0.47018,0,0,1-.14353-0.65627,0.48714,0.48714,0,0,1,.67147-0.11443A0.4703,0.4703,0,0,1,59.07553,38.87925Z" transform="translate(-12.55966 -3.89693)"/><path d="M46.96,42.30484a0.4035,0.4035,0,0,1-.17476-0.049,1.30455,1.30455,0,0,1,.13153-0.96533,2.58822,2.58822,0,0,0-.32111-2.97886,1.74176,1.74176,0,0,1-.47948-0.97381,0.80192,0.80192,0,0,1,.73427.16506,3.25087,3.25087,0,0,1,.45274,4.62946A0.408,0.408,0,0,1,46.96,42.30484Z" transform="translate(-12.55966 -3.89693)"/><path d="M56.77971,51.72684a2.39629,2.39629,0,0,0-1.97549-2.08475,1.23706,1.23706,0,0,0-.81623.11764c0.101-.326.24622-0.51114,0.3681-0.84521a5.88813,5.88813,0,0,0-.54657-5.88211c-0.96756-1.73167-1.62382-2.5736-1.1591-3.8588,0.07731-.21395.39623-1.23355,0.17819-1.33511a0.8093,0.8093,0,0,0-.72426.4344c-0.99128,1.85735-.12309,3.25686.95875,5.18485,0.85479,1.25293.67562,3.59111,0.27092,5.11457-0.2281.85865-.43484,2.13255-0.52606,2.4606a1.65949,1.65949,0,0,0,.08389,1.5833,9.17377,9.17377,0,0,1,.77054,1.51609,2.68058,2.68058,0,0,1-.40333,2.83792,2.15361,2.15361,0,0,1-3.25079.01646,2.38474,2.38474,0,0,1-.7531-2.266,0.75383,0.75383,0,0,0-.2001-0.90664c-0.39844-.2677-0.61149.62708-2.08282,0.35141a1.18364,1.18364,0,0,1-.57478-0.33142,2.98108,2.98108,0,0,1-.49572-3.284,1.34016,1.34016,0,0,1,1.04721-.89841,2.09583,2.09583,0,0,1,1.63112,1.34026c0.27461,0.51878,1.08642,1.01627.644-.40851a2.15079,2.15079,0,0,0-4.12635-.36867,3.72915,3.72915,0,0,0,.64848,4.16553,2.072,2.072,0,0,0,1.05131.59061c0.81395,0.69509,1.75084,1.38661,2.22128,1.72571a3.17392,3.17392,0,0,0,2.5592,1.71777,3.02412,3.02412,0,0,0,2.56324-1.249,3.27743,3.27743,0,0,0,.57711-2.35441,2.40011,2.40011,0,0,0,1.12416-.6703A3.17225,3.17225,0,0,0,56.77971,51.72684Zm-1.64084,1.81623a1.57464,1.57464,0,0,1-.61582.40115,6.116,6.116,0,0,0-.81438-1.63068,2.70724,2.70724,0,0,1-.09679-0.78909,1.09168,1.09168,0,0,1,1.08927-1.00368,1.48307,1.48307,0,0,1,1.13972,1.32451A2.36425,2.36425,0,0,1,55.13887,53.54307Z" transform="translate(-12.55966 -3.89693)"/><path d="M76.18271,38.04066c-0.52848-.3616-1.34724-1.50179-3.19032.64287C74.596,31.6965,74.4,27.784,74.63148,22.6286c0.37783-4.66272-7.50808-10.47592-12.77736-10.11789,1.10951-1.85449-2.392-7.5629-12.97634-8.5321-19.13751-.85944-22.67049,5.26145-23.01114,9.08624a4.05376,4.05376,0,0,1-.82524,2.06906c-4.07543,5.43054-2.40212,16.0889-2.633,15.82673-0.78564-.53024-2.0281-0.07762-2.89559.35225-1.1127.55228-1.43628,1.63548-1.89657,2.6343-1.42607,3.09453,1.89653,7.89978,3.09173,8.8957-0.81643,1.12835-2.11616,8.68747-.371,10.64115A3.72449,3.72449,0,0,0,23.24142,54.711c-0.13227,4.14553,4.15979,19.94621,18.80724,19.50359,3.39321,5.65776,13.95966,4.85,16.7564.4324a24.30276,24.30276,0,0,0,6.02478-1.42c4.14465-1.24946,6.973-8.735,5.88767-13.97587a3.38773,3.38773,0,0,0,3.30467-.581c1.31922-1.25615,1.03716-3.60994.73874-6.10213a15.21215,15.21215,0,0,1-.14868-4.25015c0.24984-.62927,2.6057-4.36449,2.72556-4.56655C78.20808,42.28139,77.74626,39.11033,76.18271,38.04066Zm-0.68347,4.75718c-0.11432.19275-2.64914,4.2354-2.90071,4.94871a1.05847,1.05847,0,0,0-.03065.11143c-0.31044,1.4305.75993,3.29211,0.96508,5.00578,0.2097,1.74925.51246,3.63507-.157,4.52417a3.00272,3.00272,0,0,1-1.65452.49371c-1.41083-.21464-1.31748-1.655-1.46117-3.23068-0.08644-.9479-0.62281-3.46387-0.62281-3.46387-0.58849.08082-.179,6.31931-0.23337,7.075-0.49306,6.853-.11037,13.64276-10.3701,14.41337,0.33156-2.08318-.56414-5.13573-1.44812-1.12891a6.7495,6.7495,0,0,1-7.91914,4.85914c-4.7051-.68928-5.9075-2.96817-6.8503-5.845-1.24411-3.79626-1.82592-.54232-1.27569,1.32679C25.37487,71.302,25.44942,53.6003,25.53387,53.14434s0.55678-1.31936.83591-2.645c0.84483-2.36969.45326-3.06887,0.45326-3.06887a14.4045,14.4045,0,0,1-2.57921,4.77829,1.81493,1.81493,0,0,1-1.46095.57159c-3.86688-.86561-0.90913-9.5162-0.90913-9.5162a3.92525,3.92525,0,0,0-1.222-2.40859c-1.23045-1.62419-2.62453-3.64655-2.033-5.26432A5.51358,5.51358,0,0,1,20.50823,33.041a2.3455,2.3455,0,0,1,1.93037-.2455c1.5742,0.62706,2.19683,3.19936,2.87061,4.93612,0.5132,1.32284.91915,2.29884,1.06549,2.806a2.26466,2.26466,0,0,1,.72926.1556c-0.07824-1.42238,1.33452-6.57064,3.6249-12.383-3.90214-12.89383,11.11425-19.36459,16.349-12.90816,5.11322,5.04476,7.66734,5.96091,11.25523,4.88464,3.18226-.6476,4.613-2.93033,8.87548-0.21739,5.776,3.67618,1.86443,13.58651,2.036,14.33233,0.65953,3.64183.18926,7.7838,0.38625,9.69a2.38423,2.38423,0,0,0,.44634,1.09434,20.39274,20.39274,0,0,1,1.1954-2.18193,23.01363,23.01363,0,0,1,2.81909-3.36636c0.63749-.5875,1.528.02347,1.82231,0.64181A3.25977,3.25977,0,0,1,75.49924,42.79784Z" transform="translate(-12.55966 -3.89693)"/><path d="M43.58539,35.59455c-1.52241.11745-3.32,0.27215-3.44554,0.34107-3.90718,1.35519-9.38345,3.0527-6.155,3.10383a8.41276,8.41276,0,0,0,1.60457-.16813c0.09612-.01514.097,0.01961,0.11476,0.03954a4.65606,4.65606,0,0,0,1.003.93495,6.261,6.261,0,0,0,6.32442-.192c0.239-.171-0.0256-0.47179-1.12318-0.05274a5.192,5.192,0,0,1-4.75579-.387,4.32207,4.32207,0,0,1-.72826-0.55648,12.43265,12.43265,0,0,0,3.69992-1.75134,15.80486,15.80486,0,0,0,3.49389.97776c-0.03455.19385-.17625,0.90484-0.17625,0.90484a2.10256,2.10256,0,0,0,1.19026-.92473c0.18654-.428.33634-0.51794-0.52341-0.70846a6.86187,6.86187,0,0,1-1.21229-.33112,1.99658,1.99658,0,0,0,.81963-0.07075C45.23879,36.59854,46.677,35.46848,43.58539,35.59455Z" transform="translate(-12.55966 -3.89693)"/><path d="M59.21448,36.65356c-1.20012-.1441-2.08919-0.22478-3.35853-0.41372-2.87056-.24818-2.15952.66982-0.95464,0.91583,0.27831,0.05683.80481,0.19223,1.08188,0.26535a13.32487,13.32487,0,0,1-1.34853.09518c-0.73239.10327-.37729,0.80567,0.04345,1.18434a3.443,3.443,0,0,0,1.37867.57745l-0.74215-.97847a12.55261,12.55261,0,0,0,3.47444-.47757c0.2313,0.01584.45485,0.03039,0.65762,0.04484a23.21264,23.21264,0,0,0,3.78294,1.731,5.8365,5.8365,0,0,1-5.51406.74769c-0.85871-.42964-2.20145-0.59712-1.53726-0.069a6.17923,6.17923,0,0,0,6.47353.65335,4.74926,4.74926,0,0,0,1.32894-1.11937c0.24112,0.05956.47268,0.11086,0.71594,0.16787C66.33459,39.82617,64.479,38.5513,59.21448,36.65356Z" transform="translate(-12.55966 -3.89693)"/><path d="M62.03458,42.70853c0.52881-.26154-0.48857-0.43755-1.12447-0.40032-0.87488.05122-3.39478-.19369-4.24249-0.89932-0.66081-.55006-1.445-0.89862-1.03166-0.02484C56.21713,42.61261,58.74007,44.3379,62.03458,42.70853Z" transform="translate(-12.55966 -3.89693)"/><path d="M58.22853,61.60927c-0.1688-.4335-0.59411-1.11977-1.11062-2.10847-0.7673-1.46878-.89386-0.34449-0.5568.55839a1.01674,1.01674,0,0,1-.711.37058,14.31891,14.31891,0,0,1-1.30843-.80476c-0.38164-.10885-1.90685.6383-3.03925,0.63718-1.05313-.18191-2.00219-1.291-2.824-1.05239-0.97036.28176-2.26355,0.58495-2.89539,0.69615-0.36939.065-2.023,0.19535-1.91584-.14905,0.41337-1.32907-.25684-2.02353-0.82377-1.0807a6.23561,6.23561,0,0,0-.89137,2.25252c-0.41713,1.72282.06278,1.89723,0.72114,0.49381,0.23707-.50537.48154-0.89219,0.69983-0.79161,5.6853,2.6194,6.00655,1.41421,7.33551,1.53119,0.84251,0.07416,1.946.98843,5.53539-.77272,0.62419-.258.80681,0.41165,1.23876,0.91392C58.34734,63.07615,58.53343,62.39231,58.22853,61.60927Z" transform="translate(-12.55966 -3.89693)"/><text x="0" y="108.22491" fill="#000000" font-size="5px" font-weight="bold" font-family="'Helvetica Neue', Helvetica, Arial-Unicode, Arial, Sans-serif">Created by Lorie Shaull</text><text x="0" y="113.22491" fill="#000000" font-size="5px" font-weight="bold" font-family="'Helvetica Neue', Helvetica, Arial-Unicode, Arial, Sans-serif">from the Noun Project</text></svg>