<svg xmlns="http://www.w3.org/2000/svg" viewBox="0 0 80.38023 120.592825" x="0px" y="0px"><title>john kasich icon</title><path d="M60.93443,39.61953a11.66248,11.66248,0,0,1-1.56786.34462c-0.3323.06218-1.21169,0.26649-1.51235,0.34571a0.82221,0.82221,0,0,0-.65182.2812c0.04988,0.20954.46836,0.12866,1.03427,0.15464a3.479,3.479,0,0,1,2.52819.83332c0.61888,0.52261,1.21067.54859,0.73481,0.13189a8.68868,8.68868,0,0,0-1.79688-1.28414,5.516,5.516,0,0,0,2.63526-1.04863C62.54449,39.214,62.34752,39.05429,60.93443,39.61953Z" transform="translate(-8.3735 -2.05387)"/><path d="M44.81889,38.20125c-1.01983.283-1.40657-.34656-2.06483-0.91789-0.501-.43482-0.62154-1.02533-0.9808-1.00566-0.40579.02225,0.45746,1.05118-2.74846,2.49384-0.44172.19878,1.11986,0.37825,1.603,0.08015,1.25887-.7768,1.08877-0.76852,1.22565-0.971a3.29322,3.29322,0,0,0,3.04562.88163C46.22847,38.35295,45.93286,37.89215,44.81889,38.20125Z" transform="translate(-8.3735 -2.05387)"/><path d="M29.11767,33.049c-0.33388.22409-1.72508-.01718-1.28185-0.31467,3.567-2.39408,6.9112-2.16959,10.97373-1.623,5.03136,0.677,9.34566-2.59887,14.33258-2.64666,0.88918-.00852.86491,0.587-0.00657,0.59535-3.89055.03728-7.258,2.3-11.07873,2.73075a15.48409,15.48409,0,0,1-4.05922-.17133c-3.21646-.47742-6.04343-0.47427-8.87994,1.42953h0ZM35.938,29.11765a19.97032,19.97032,0,0,0,2.42175-.97723c1.96142-.80067,4.14269-0.42335,6.21771-0.36536,2.52485,0.07057,4.52276-1.57083,7.15763-1.42449,0.63037,0.035,1.39988-.52612.3831-0.5826-3.056-.16974-6.08887,1.60233-8.99361,1.08207-3.1779-.56919-5.0121.9822-7.94886,1.77-0.92639.2485,0.32039,0.61616,0.76227,0.49762h0ZM29.81446,28.551C33.24283,25.5,36.8836,24.65879,41.34723,24.41561a21.62051,21.62051,0,0,0,5.21049-1.31453,12.17376,12.17376,0,0,1,9.04171.68216c0.58133,0.2766,1.463.0034,0.547-.43245a15.43211,15.43211,0,0,0-6.00056-1.55636c-2.65616-.11378-4.82263.85128-7.33785,1.51942-2.56838.68226-5.25164,0.30006-7.83284,1.0289a16.4481,16.4481,0,0,0-6.48605,3.63516c-0.3098.27571,0.9977,0.86477,1.32538,0.57316h0Z" transform="translate(-8.3735 -2.05387)"/><path d="M45.0996,47.71617c0.2182,0.24964-1.00377-3.49884-.70075-5.73852A4.95624,4.95624,0,0,0,45.0996,47.71617Z" transform="translate(-8.3735 -2.05387)"/><path d="M62.96384,45.8871c-0.52691,7.697,2.96219,11.055,1.74631,10.1712-2.48-1.80273-2.8013-6.16608-2.79926-7.78334,0.00164-1.29283.88348-3.06127,1.05294-2.38786h0Zm6.97506-.57051c0.85695,1.75606.33926,5.73753,0.33926,5.73753a9.72359,9.72359,0,0,0,.78967-2.68432,9.99459,9.99459,0,0,0,.20633-2.64673,2.06236,2.06236,0,0,0-.44744-1.50383c-0.04863-.343-0.43429-2.81329-0.47129-1.85854A16.14729,16.14729,0,0,1,69.9389,45.31659Zm-44.82575,2.02c-0.20165-.8244-0.07066,1.38729-0.04848,1.69356a1.90372,1.90372,0,0,0-.09289,1.38113,9.51692,9.51692,0,0,0,.64324,2.26845,9.13175,9.13175,0,0,0,1.12351,2.20586s-1.1359-3.37857-.75595-5.046A15.34456,15.34456,0,0,1,25.11315,47.33654Zm47.66744-8.455c0.34606,0.13725.45706,0.46977,0.37955,1.36347s-0.017,2.00755.08778,1.76354a10.07025,10.07025,0,0,0,.63753-1.73991,2.536,2.536,0,0,0-.56821-1.87486c-0.37392-.40919-1.01675.00731-1.69491,0.22726A7.67919,7.67919,0,0,1,72.78058,38.88157Z" transform="translate(-8.3735 -2.05387)"/><path d="M35.34047,39.93928a1.54216,1.54216,0,1,0-.06573,2.17992A1.54212,1.54212,0,0,0,35.34047,39.93928Zm-0.78242,1.14891a0.45,0.45,0,1,1,.46445-0.43514A0.45,0.45,0,0,1,34.55805,41.08819Z" transform="translate(-8.3735 -2.05387)"/><path d="M52.94943,38.74132a1.54213,1.54213,0,1,0-.06573,2.17992A1.54212,1.54212,0,0,0,52.94943,38.74132ZM51.898,39.75871a0.45,0.45,0,1,1,.46438-0.43514A0.45,0.45,0,0,1,51.898,39.75871Z" transform="translate(-8.3735 -2.05387)"/><path d="M58.02582,39.05007c-0.11459.03035-.94944,0.28847-0.85019-0.04619,0.38264-1.29052-.40064-0.70351-1.17978-0.99254a0.129,0.129,0,0,1-.0841-0.08688,11.396,11.396,0,0,0,.24456-1.34488,2.20866,2.20866,0,0,0-1.3246.06715,0.49876,0.49876,0,0,1-.52307-0.10926c-0.11273-.31642.42278-0.6546,0.33429-0.9-0.18025-.49964-0.82446.03271-1.25664,0.29261a0.73375,0.73375,0,0,1-.85847.00884,2.6585,2.6585,0,0,1,.05609-1.16512c-0.265.32044-.71508,1.00367-0.85526,1.14855a0.88811,0.88811,0,0,1-.84382.14872,1.97158,1.97158,0,0,1-.74822-0.66956c-0.30083.36929-.60012,0.73969-0.91369,1.099-0.11594.13289-.87777,0.35117-0.92792,0.06184-0.14717-.84889.23912-1.07206-0.19021-0.44479a7.34257,7.34257,0,0,1-.568,1.08028,0.87748,0.87748,0,0,1-.84382.14872c-0.4472-.23411-0.57366-0.66221-1.06525-0.92229-0.32755-.17333.577-0.46884,0.80907-0.346a2.19154,2.19154,0,0,1,.57712.50248,3.06938,3.06938,0,0,1,.88513-1.51814,0.92248,0.92248,0,0,1,.77438-0.09572,0.89,0.89,0,0,1,.44324.55628c0.23213-.28606.46421-0.57217,0.70673-0.85013a0.74491,0.74491,0,0,1,.92792-0.06184,3.20887,3.20887,0,0,0,.51343.76386,2.98882,2.98882,0,0,1,1.37178-1.25,0.73288,0.73288,0,0,1,.6251.03055,1.18653,1.18653,0,0,1,.17289,1.1355,3.12132,3.12132,0,0,1,2.09161-.58806,0.20313,0.20313,0,0,1,.16745.113c0.17265,0.46544-.3158.895-0.40917,1.29139a2.05133,2.05133,0,0,1,1.54319-.08626c0.78118,0.629-.42086,1.0446-0.09863,1.58728a2.59694,2.59694,0,0,1,1.401.01738,1.05671,1.05671,0,0,1,.0395,1.15489A0.39412,0.39412,0,0,1,58.02582,39.05007ZM38.04934,36.68539a7.51621,7.51621,0,0,0-.9913.32724A1.372,1.372,0,0,0,36.3784,35.901a1.13,1.13,0,0,0-1.41228.79305,2.67155,2.67155,0,0,0-1.49953-.54632,0.60758,0.60758,0,0,0-.4814.13573,1.02144,1.02144,0,0,0-.08731.61923,2.15606,2.15606,0,0,0-1.43133-.49846,0.47373,0.47373,0,0,0-.34931.13134,1.08868,1.08868,0,0,0,.19454,1.03947,4.03806,4.03806,0,0,0-2.62811.03624,0.11109,0.11109,0,0,0-.05324.15187c0.22045,0.55993,1.66179.92464,1.15937,0.90763q-0.24079.05908-.47892,0.12782a1.93583,1.93583,0,0,0-.62312.2962,0.12909,0.12909,0,0,0-.06981.09875,2.86137,2.86137,0,0,0,.57557.85959c-0.08255.00371-.5496,0.15607-0.8487,0.2403-0.06227.0175-.26318,0.06-0.24926,0.16622a0.72006,0.72006,0,0,0,.63234.69387c0.23411,0.08639,1.18-.09164.70735-0.266-0.90708-.33466.052-0.4237,0.50928-0.55251,0.05918-.01663.3367-0.10024,0.23263-0.21933-0.73332-.8393.36273-1.14193,1.04386-1.366,0.17283-.05689.189-0.21451,0.00581-0.28061-0.45406-.1638-1.72857-0.445-0.749-0.56191a9.70335,9.70335,0,0,1,1.59346.172c0.03426,0.00216.65472-.06567,0.48356-0.24122a1.31651,1.31651,0,0,1-.35309-0.45623,1.05319,1.05319,0,0,0-.10766-0.26,1.41984,1.41984,0,0,0,.32588.17673,6.22974,6.22974,0,0,0,.93571.408c0.13276,0.03185.851,0.0781,0.73338-.20888q0.08775-.94684.723-0.13709c0.18551,0.12615.84431,0.21544,0.92643-.08088,0.38487-1.3881.0747-.95618,0.34-0.11359a3.53588,3.53588,0,0,1,.093.568c0.04,0.29174.84,0.2722,0.9733,0.073a2.49083,2.49083,0,0,1,1.39818-.76838C39.15961,36.86533,38.34788,36.6016,38.04934,36.68539Z" transform="translate(-8.3735 -2.05387)"/><path d="M35.116,44.83965c-2.6854.65451-5.14246-1.307-3.44568-.89821a7.92594,7.92594,0,0,0,5.9114-1.01408C38.53514,42.18009,37.86252,44.17023,35.116,44.83965Zm17.05788-.93472c2.78755-.08276,4.564-1.97616,2.85158-1.30138s-4.495.2273-6.40551-.47942C47.38111,41.812,49.19392,43.9934,52.17383,43.90493ZM34.39246,38.37686c-1.13243-.183-1.50807.83811-3.11408,2.41642-0.96156.945-3.73059,2.34949-1.70334,1.6142a7.97286,7.97286,0,0,0,4.06731-2.58511c0.3234-.388,1.02753-0.66581,3.07393,1.08125-0.729.78231-2.31664,1.343-4.63581,1.28267-0.86911-.02257-0.22366.467,0.84425,0.6332a4.60037,4.60037,0,0,0,4.20994-1.21818,0.51072,0.51072,0,0,0,.13839.17333c0.55189,0.23195.89508-.375,0.482-0.81711-0.11891-.1272-0.45771-0.35346-0.663-0.56673-0.28166-.29261-0.53464-0.53791-0.77586-0.76263a14.09165,14.09165,0,0,0,2.33463.741C39.00366,40.28092,36.11961,38.6338,34.39246,38.37686Zm21.6674,1.51882a13.99237,13.99237,0,0,1-1.59569-.29514,32.41149,32.41149,0,0,1-3.64952-1.096c-1.09011-.41814-1.14342-0.06443-2.35949,1.21917a5.80629,5.80629,0,0,0,5.62352.65905c0.514-.226.48109,0.31271-0.13282,0.77555-1.17365.88513-2.93859,0.97374-5.74182-.89929-0.557.941-1.357-.04721-0.98051-0.42368,0.29944-.29944.48051-0.37784,0.93871-0.80594a5.99473,5.99473,0,0,0,.70141-0.921c-1.45346.58745-2.35034,1.34463-2.67331,1.34463-0.19386,0,.42135-1.44938,3.63641-2.697,1.17635-.50609,1.66791,1.01981,4.68788,2.08024,0.01614,0.00563,1.02481.39371,1.29127,0.48418C56.44083,39.536,58.17207,40.11,56.05986,39.89568Z" transform="translate(-8.3735 -2.05387)"/><path d="M41.44861,67.63629c2.748-1.61869,5.32449-1.8507,8.11253-.27094,0.8343,0.47273.94757,1.39393-.46861,0.65572a6.96571,6.96571,0,0,0-7.082.50373C39.58447,70.33991,40.6056,68.13285,41.44861,67.63629Zm-3.0982-2.71046a5.179,5.179,0,0,0,3.49324,1.29651c0.96294-.07661,1.19218-0.7756,1.94452-1.05292,0.93412-.34433,2.74726.70066,3.92229,0.41512a15.63756,15.63756,0,0,0,2.9402-1.08548c0.32471-.14935,1.7908-1.63777.53088-1.05828-0.42379.19492-2.23713,1.12-2.818,1.28256-2.14594.60057-2.14476,0.08873-3.71462-.209-1.69878-.32221-3.34474,1.16962-4.83251.45388C39.28867,64.71426,37.641,64.10248,38.35041,64.92582Zm16.21932-2.12169c-1.52831-.70449-2.33391-3.65068-1.94741-1.49613a1.59432,1.59432,0,0,0,.1327.34189,15.47686,15.47686,0,0,0-1.87828.30541,12.19435,12.19435,0,0,1-3.76293-.25242,2.936,2.936,0,0,0-1.33628-.00167,7.99024,7.99024,0,0,1-1.859.73394,4.42982,4.42982,0,0,0-1.1569-.34424c-0.48059.04823-1.07317,0.30374-1.53725,0.40126a29.4541,29.4541,0,0,1-4.05214.55486,2.35883,2.35883,0,0,0,.02269-0.44219c-0.07439-.69429-0.43178-0.096-0.54026.49293a1.86811,1.86811,0,0,1-.81865,1.46771c-0.52072.24951-.42735,0.70085-0.26058,0.68385a1.9982,1.9982,0,0,0,1.52111-1.76926c0.06,0.01713,1.78008.047,3.50779,0.02393,0.56995-.00761,1.13266.20573,2.10182,0.20925a8.33731,8.33731,0,0,0,1.67366-.28265,15.58858,15.58858,0,0,0,2.42052-.09912c0.58114-.0849,1.82572-0.50409,2.15308-0.53791a25.583,25.583,0,0,0,3.97558-.77864,2.15929,2.15929,0,0,0,1.25954,1.151C54.90364,63.3624,55.13041,63.06259,54.56973,62.80414ZM42.34835,59.14427c0.79047-.94856,1.66768-1.21594,2.27116-0.85284,0.35815,0.21549,1.24689.78754,0.81279,0.14342a2.85492,2.85492,0,0,0-2.17105-1.13545,3.13764,3.13764,0,0,0-2.08235,1.74952C40.97925,59.59821,41.92663,59.65033,42.34835,59.14427Z" transform="translate(-8.3735 -2.05387)"/><path d="M54.44675,57.68256A13.84566,13.84566,0,0,1,51,53.03986V53.03522a3.6216,3.6216,0,0,0-2.38708-3.79395c-1.86066-.58569-2.90216,1.09137-2.646,1.00305,2.03955-.70312,3.74127.17694,3.9552,1.57794-0.022.273-.01791,0.57373-0.01791,0.57373,0.00378,0.00928.00346,0.01636,0.00719,0.02557a2.43246,2.43246,0,0,1-.142.55035,1.43873,1.43873,0,0,1-1.81432.97144,0.89416,0.89416,0,0,0-.53118-0.99347c-2.28455-.85468-2.04388.84955-3.7666,1.89594a2.47505,2.47505,0,0,1-3.39664-.30206,2.57552,2.57552,0,0,1-.26274-2.55328c0.10046-.18073.22062-1.1073,0.42216-1.80328,0.54541-1.88354-.22181-2.11389-0.34614-4.25092-0.11951-2.05505.38592-2.50592-.133-3.74823-1.00995-2.41772-.291.668-0.61951,1.84454a5.61518,5.61518,0,0,0,.10284,3.38647,4.54351,4.54351,0,0,1-.05872,3.40289,4.421,4.421,0,0,0-.9585-0.32037c-1.60474-.37457-3.16919,1.63062-2.70331,3.7431l-0.11212,1.47968c-0.30414,3.31482-2.10651,3.12756-1.86536,5.99377,0.07544,0.89642.75519,2.15045,0.68463,0.87671-0.12732-2.3.47821-2.78223,1.22992-4.03851a4.96256,4.96256,0,0,0,.84564-2.97076,1.54669,1.54669,0,0,0,1.78845-.09467c-0.08-.27777,1.45471.2254,1.88245,0.26843a3.48175,3.48175,0,0,0,4.91937-1.19312,5.87774,5.87774,0,0,1,2.48773-.07562,2.023,2.023,0,0,0,1.19727.358,3.04754,3.04754,0,0,0,1.74133-.9137,8.078,8.078,0,0,0,2.0473,2.9046c2.10419,2.14,3.69086,2.67981,4.06323,5.93433,0.10889,0.95148.52562-.25244,0.53-0.49121C57.19841,59.30328,56.29837,59.34314,54.44675,57.68256ZM37.902,54.3606c-0.101.29242-.1347,0.31873-0.23474,0.5799a2.41161,2.41161,0,0,1-.72656-0.06439c-0.88037-.226-0.81158-4.68811,2.0459-3.37976a3.47015,3.47015,0,0,0,.11359,2.34155A0.81736,0.81736,0,0,0,37.902,54.3606Z" transform="translate(-8.3735 -2.05387)"/><path d="M84.14418,78.62312c-6.87763-3.42206-16.21237-8.36538-19.32357-9.849a6.30272,6.30272,0,0,0,1.32347-1.70575,60.442,60.442,0,0,0,3.641-9.80137,2.23,2.23,0,0,0,1.0302.01807c1.49927-.24786,2.2978-1.925,3.01807-3.20172a9.33326,9.33326,0,0,0,1.18225-6.48452c-0.06653-.2785-0.53183-1.81533-0.55533-2.19571a15.03455,15.03455,0,0,1,1.1071-3.37217,5.47133,5.47133,0,0,0,.36065-3.87055,3.92932,3.92932,0,0,0-.28857-0.5744,0.65357,0.65357,0,0,0,.232-0.33484c0.09595-.375-0.06433-0.556-0.59662-1.15466-0.092-.10388-0.22559-0.25421-0.373-0.424a0.64081,0.64081,0,0,0,.50458-0.15778,0.65712,0.65712,0,0,0,.14545-0.81177,17.69808,17.69808,0,0,1-1.3208-3.20312,0.6483,0.6483,0,0,0,.56293-0.1875,0.65775,0.65775,0,0,0,.10785-0.78558,43.72859,43.72859,0,0,1-2.02429-4.10742A0.65848,0.65848,0,0,0,73.8016,25.715a11.10626,11.10626,0,0,0-.88843-2.70795c0.03857,0.002.0752,0.00049,0.11182-.001a0.65845,0.65845,0,0,0,.50061-1.05225,18.14681,18.14681,0,0,0-1.28027-1.95007,0.48467,0.48467,0,0,1,.07123-0.0282,0.65851,0.65851,0,0,0,.4126-1.08185,7.68415,7.68415,0,0,0-1.78979-1.64,0.45275,0.45275,0,0,1,.14148-0.01331,0.65827,0.65827,0,0,0,.77563-0.99188,4.88838,4.88838,0,0,0-3.71606-1.73932s-0.15833-3.45343-1.16351-4.4433a0.66581,0.66581,0,0,0-.79547-0.11975,0.63292,0.63292,0,0,0-.30969.71832,5.94251,5.94251,0,0,1-.3443.93939c-0.19293-.31909-1.47321-2.59564-2.0401-3.29169a0.65835,0.65835,0,0,0-1.14178.22955c-0.27106-.2691-1.87384-1.96539-2.46155-2.45514a0.65818,0.65818,0,0,0-1.05469.326,18.105,18.105,0,0,0-1.89667-1.65771,0.65722,0.65722,0,0,0-1.0141.45959c-0.71729-.6347-1.44452-1.257-2.15784-1.775a0.65855,0.65855,0,0,0-.98047.24683,1.32332,1.32332,0,0,0-.094.278,12.83092,12.83092,0,0,0-2.2113-1.48456,0.65854,0.65854,0,0,0-.925.77222l-1.96-.8761a0.65823,0.65823,0,0,0-.92657.62726,30.48134,30.48134,0,0,0-3.867-.94189A0.65848,0.65848,0,0,0,42.276,3.21789a1.10918,1.10918,0,0,0,.136.09644,11.47267,11.47267,0,0,0-5.079,1.348,0.64154,0.64154,0,0,0-.24365.30481C34.49331,5.1267,32.193,6.1939,29.4595,7.40594a0.52184,0.52184,0,0,0-.21393.92664,33.6824,33.6824,0,0,0-6.00281,3.63586,0.65867,0.65867,0,0,0-.21771.73663,0.69326,0.69326,0,0,0,.6283.44177c0.19788-.002.3819-0.00745,0.5545-0.01636-0.26416.42249-1.35986,2.58923-1.76007,3.29413a0.60885,0.60885,0,0,0,.10583.78906,0.88892,0.88892,0,0,0,.842.08112c-0.08014.16821-.81732,2.01385-1.32281,3.09283-0.29376.627,0.52258,0.8324,0.5625,0.83667a10.8412,10.8412,0,0,1-1.81952,3.07385,0.63833,0.63833,0,0,0,.5473,1.12878,12.88556,12.88556,0,0,0-1.20129,4.64423,0.65188,0.65188,0,0,0,.54462.68237,13.20683,13.20683,0,0,0-.66479,5.13965,0.65559,0.65559,0,0,0,.40051.45679,11.44784,11.44784,0,0,0,.55438,4.68768,1.68173,1.68173,0,0,0-.22723.13342c-1.8985,1.575.81943,9.13025,1.67758,10.49078a8.34725,8.34725,0,0,1,1.555,4.7653,3.46606,3.46606,0,0,0,.98367,3.08706,4.92706,4.92706,0,0,0,3.30981.73016c0.79913,3.21021,1.84772,6.38257,2.85175,7.40326l1.72509,1.93871c-2.71429.95477-12.20087,4.36411-18.74715,6.7759-4.62629,1.70442-8.18123,3.45755-3.66638,2.26917a152.80388,152.80388,0,0,0,19.14481-6.32886c-0.0033.06287-2.03124,1.5051-2.93355,2.18491-7.27938,5.48437-7.99237,6.64143-6.90985,7.56,2.6651,2.26611,5.21973,4.15912,5.96924,5.085-0.31335.39893-1.28668,1.91266-1.65088,2.55133-3.26276,5.7218-3.415,6.08185-3.265,7.20978,0.049,0.37115,5.28021-7.35252,5.87118-8.27751,1.07442-1.68171,1.54157-1.962-5.83927-7.6144,1.11975-.78815,11.43078-9.78055,11.74665-9.8708s0.63819,0.77314.72049,1.05667c-2.625,3.625-4.72106,11.46453-2.81064,20.54485,0.62421,2.96716.63443-2.03448,0.66235-4.00964,0.11384-8.05137.915-8.81061,1.81324-12.19365,0.40192,5.07654,1.45728,15.339,2.33667,15.61322,0.51324,0.16,7.86175-4.28584,8.56506-4.914a10.70688,10.70688,0,0,0,1.39636,1.8761c1.24664,1.07281,1.19147,2.0592-.58105,4.8877-1.41949,2.26526-1.9223,2.6109.186,3.67157s7.28137,1.326,9.2066-.24414c1.36786-1.11542-.50775-3.5022-1.88495-5.66461-1.16406-1.82782-.75854-1.88544.395-3.236a9.33492,9.33492,0,0,0,.71179-1.01306c0.50378,0.48035,7.74259,5.46484,8.44345,5.38678a2,2,0,0,0,.207-0.04114c1.15546-.25305,1.68089-13.1923,1.28856-16.8535a61.29026,61.29026,0,0,1,2.12425,10.93987c0.1828,1.31615-.185,6.25066.80914,2.862,1.24218-4.23409-.71711-13.35557-2.17168-18.78842a1.9569,1.9569,0,0,1,.49552-0.74327c2.64026,2.93713,7.39144,9.82773,7.96954,10.571a0.85,0.85,0,0,1-.01091,1.18567c-1.8938,2.34094-3.37714,3.917-3.5625,5.493-0.1922,1.63361,8.09363,8.278,8.51324,8.56848,1.80286,1.24829.73328-.71857-0.81311-2.01453-0.45428-.38068-5.94666-5.42419-6.31775-6.45514,0.201-1.266,1.912-2.97827,3.08331-4.0567a10.53986,10.53986,0,0,0,1.4516-1.56372c0.65356-.95581.50278-0.36164-8.12491-10.57184,0.35852,0.09979,21.05808,10.54687,21.1205,10.57113C90.583,83.07156,86.5868,79.83848,84.14418,78.62312ZM27.9913,56.19085c-0.8667-3.08173-.27716,1.31055-0.04321,2.56659a2.83246,2.83246,0,0,1-2.00977-.42755,1.97064,1.97064,0,0,1-.5946-1.78284,9.5419,9.5419,0,0,0-1.75665-5.49158c-1.03241-1.69513-2.93713-7.89075-1.84619-8.71594a0.8261,0.8261,0,0,1,.61108.02948,17.54162,17.54162,0,0,0,.75323,1.7583,0.65936,0.65936,0,0,0,.53577.35767,0.67905,0.67905,0,0,0,.58472-0.27008L26.661,40.85345a0.65859,0.65859,0,0,0-.68665-1.027l0.603-1.61664a0.65851,0.65851,0,0,0-.934-0.80731c0.145-.473.28345-0.90186,0.371-1.12a0.65852,0.65852,0,0,0-.0213-0.53723c-0.01727-.03516-0.91571-2.68042-0.05933-4.44977a0.65117,0.65117,0,0,0-.8053-0.88123,7.82208,7.82208,0,0,1,1.21338-4.09882c0.18256-.31464.153-0.9538-0.31128-0.92487a12.963,12.963,0,0,1,2.71252-4.353,0.65834,0.65834,0,1,0-.96167-0.89935c-1.49792,1.60083-3.09723,4.1153-3.29315,6.12476a0.65581,0.65581,0,0,0,.15082.48535,8.127,8.127,0,0,0-.71722,4.93152,0.65747,0.65747,0,0,0,.42151.50995,9.12222,9.12222,0,0,0,.34473,3.88342c-0.30865.886-.8172,2.68463-0.84094,2.76978a0.65817,0.65817,0,0,0,.2533.71631,0.64968,0.64968,0,0,0,.52881.10437l-0.59015,1.58148a0.65863,0.65863,0,0,0,.185.72723l-0.40271.55505a6.72212,6.72212,0,0,1-.68213-2.77374,0.65788,0.65788,0,0,0-.54565-0.75439,0.64057,0.64057,0,0,0-.704.41016,10.68488,10.68488,0,0,1,.17273-4.70209,0.65893,0.65893,0,0,0-.28442-0.887,0.64442,0.64442,0,0,0-.3963-0.05389A18.24085,18.24085,0,0,1,22.74655,29.019a0.66,0.66,0,0,0-.11377-0.92407,0.6486,0.6486,0,0,0-.8407.04156,9.43321,9.43321,0,0,1,1.52338-3.42426c0.21967-.29041.14374-1.0307-0.3468-1.02838,0.28314-.49994,1.17834-2.4353,1.5014-3.04346a0.71512,0.71512,0,0,0-.09253-0.92651,0.64654,0.64654,0,0,0-.628-0.10254,20.04236,20.04236,0,0,0,1.42792-3.65369,0.65971,0.65971,0,0,0-.33936-0.66437,0.66659,0.66659,0,0,0-.2597-0.07715c0.007-.01385,1.14325-2.25879,2.2652-2.68567a0.827,0.827,0,0,0,.38141-0.98862,0.8171,0.8171,0,0,0-.61591-0.567H26.60464a34.17859,34.17859,0,0,1,5.968-2.62369,0.58093,0.58093,0,0,0,.16364-1.10636,14.68019,14.68019,0,0,1,7.28394-.90268,0.65183,0.65183,0,1,0,.15137-1.29477c-0.09247-.0108-0.18121-0.01-0.27319-0.01931A13.28473,13.28473,0,0,1,45.348,4.779a0.65811,0.65811,0,0,0,.91815-0.52054q0.77472,0.23071,1.65625.51409a0.65833,0.65833,0,0,0,.83154-0.4337L50.78909,5.248a0.6533,0.6533,0,0,0,.792-0.20179A0.63868,0.63868,0,0,0,51.683,4.85284q0.11728,0.09055.2345,0.18256c0.374,0.29236.74994,0.58618,1.14764,0.86175a0.65893,0.65893,0,0,0,1.033-.516c0.53723,0.45068,1.08136.93793,1.61462,1.41534,0.375,0.33636.743,0.66583,1.0943,0.97058a0.65907,0.65907,0,0,0,1.0863-.42743,11.93141,11.93141,0,0,0,1.773,1.53552,0.6561,0.6561,0,0,0,.82117-0.0777,0.66346,0.66346,0,0,0,.12073-0.15924,13.98406,13.98406,0,0,0,2.36261,2.142,0.66131,0.66131,0,0,0,.60352.06384,28.27936,28.27936,0,0,0,1.69385,2.69855,0.66674,0.66674,0,0,0,.81226.19092,0.63462,0.63462,0,0,0,.34137-0.73462,2.8331,2.8331,0,0,1,.23743-0.695,22.88239,22.88239,0,0,1,.19293,2.83606,0.65888,0.65888,0,0,0,.58569.61932,8.0851,8.0851,0,0,1,2.39435.48285c-0.10193.041-.78162,0.327-0.86273,0.33936a0.65855,0.65855,0,0,0-.07025,1.30743,3.77126,3.77126,0,0,1,2.20728,1.18329,0.39547,0.39547,0,0,1-.15826.02625,0.65868,0.65868,0,0,0-.374,1.258,1.61159,1.61159,0,0,1,.49371.325,0.65935,0.65935,0,0,0-.44421,1.073,9.30885,9.30885,0,0,1,1.26642,2.20087,0.65839,0.65839,0,0,0-.89044.62384C71.01156,25.664,72.07217,27.947,72.87954,29.53a0.65946,0.65946,0,0,0-.41656.87952c0.15833,0.3844.88257,2.63477,1.218,3.43512a0.65213,0.65213,0,0,0-.5907-0.10187,0.66006,0.66006,0,0,0-.462.5946,1.8867,1.8867,0,0,0,.41949,1.1076,2.84171,2.84171,0,0,0-2.22412.27356,2.60214,2.60214,0,0,0-1.07245,1.75024,2.35837,2.35837,0,0,0-.48779-0.20135,6.09214,6.09214,0,0,1,.15729-1.77893,12.84673,12.84673,0,0,0,.23053-1.68146,0.65906,0.65906,0,0,0-1.08234-.54114,2.56612,2.56612,0,0,0-.31665.36407c-0.1286-1.13831-.30573-2.52295-0.47192-3.2254a0.65866,0.65866,0,0,0-.59857-0.50555,0.6424,0.6424,0,0,0-.65894.42444c-0.01978.05389-.03955,0.1098-0.05835,0.16772a15.1043,15.1043,0,0,1-.52637-2.49426,0.65932,0.65932,0,0,0-1.0824-.41309,15.075,15.075,0,0,1-.02667-2.2627,0.658,0.658,0,0,0-.59564-0.61292,9.93139,9.93139,0,0,0-2.56647-8.9,8.12222,8.12222,0,0,0-8.24249-2.49872,0.65827,0.65827,0,1,0,.41748,1.2486,6.82066,6.82066,0,0,1,6.87427,2.16132,8.82042,8.82042,0,0,1,1.79572,9.29675,1.72981,1.72981,0,0,0-.09991.27649,0.65886,0.65886,0,0,0,1.07245.66882,20.65131,20.65131,0,0,0,.29187,2.333c0.08807,0.53571.18109,1.09717,0.2533,1.72449a0.65823,0.65823,0,0,0,1.2674.16272,11.34457,11.34457,0,0,1,.48083,2.16626,0.65847,0.65847,0,0,0,.57977.58228,0.64555,0.64555,0,0,0,.57684-0.2276c0.11377,0.99536.19293,1.82788,0.19391,1.84521a0.65909,0.65909,0,0,0,.50061.57831,0.6683,0.6683,0,0,0,.35223-0.01141,5.35447,5.35447,0,0,0,.12762,2.14795,0.66424,0.66424,0,0,0,.99731.38141,4.17893,4.17893,0,0,1,.62628,1.29761,0.65767,0.65767,0,0,0,.63318.48132,0.68425,0.68425,0,0,0,.12665-0.0119,0.658,0.658,0,0,0,.52832-0.72021,7.30136,7.30136,0,0,1-.02527-1.61609,2.67532,2.67532,0,0,1,.33032-0.58679c1.2818-1.21722,2.80658.41162,3.14178,1.25348a4.11835,4.11835,0,0,1-.10468,2.88489c-0.11285.31152-1.21124,2.80725-1.14246,3.91187a17.91666,17.91666,0,0,0,.57178,2.29907A8.37884,8.37884,0,0,1,72.76937,53.365c-1.13794,2.01648-1.20309,2.62293-2.1662,2.58765a2.28012,2.28012,0,0,1-1.18829-.61469c-0.31244-.75574-0.17694-3.41705-0.45557-3.90637-0.11218-.19714-0.05975,2.6701-0.29419,4.12671,0,0-1.95612,7.4776-3.89844,10.7536-1.80493,3.04431-8.65644,6.90222-10.72034,8.26184,2.13449-6.48885.27733-5.74245-.25614-3.67132-0.91206,3.54094-1.09163,4.3805-2.75014,5.18152a11.10825,11.10825,0,0,1-8.34082-.14923c-2.82591-1.78787-3.4628-4.05216-4.10661-5.71533-0.66954-1.72966-3.45247-4.19718.13492,3.35522l-6.45965-7.02875C31.3862,65.6494,28.98257,59.71544,27.9913,56.19085Zm7.9601,34.14582a105.04337,105.04337,0,0,1-.97246-15.79323c1.818,3.37632,7.70963,8.987,10.30307,9.48641C45.03335,84.51317,37.495,89.47784,35.95139,90.33666Zm9.15746-7.81659c-4.04065-2.03186-7.93957-6.98888-9.88739-10.155L37.1998,73.8912c0.39567,0.39567,1.94861,1.28523,3.10117,2.13789a11.82149,11.82149,0,0,0,5.937,2.23743c3.16736,0.103,4.78857-.2569,6.116-1.30255a60.79262,60.79262,0,0,0,9.38066-5.082c-0.02863.04169-3.73724,8.59564-10.37987,10.79162C50.11813,83.36156,46.90988,83.27715,45.10885,82.52007ZM61.04063,91.0162c-1.44928-.80627-9.668-6.64225-9.94753-7.18559a15.4599,15.4599,0,0,0,4.47241-2.03345c3.45813-2.31494,4.708-4.14107,5.6448-6.60445C61.32671,80.26841,61.71983,85.96469,61.04063,91.0162Z" transform="translate(-8.3735 -2.05387)"/><path d="M45.482,14.91608c0.11779,0.334-1.32084.624-1.4776,0.1795-0.62923-1.784-2.82886-3.77545-4.73438-3.91789-0.27225-.02035-0.45971-0.12546-0.31416-0.37213a1.27054,1.27054,0,0,1,.99794-0.22882,7.07474,7.07474,0,0,1,5.5282,4.33933h0ZM40.40479,16.1347c-0.6013-3.03755-4.87209-5.12142-7.643-5.81046-0.43722-.10872-1.70126.24669-0.77539,0.47692,2.473,0.61495,6.39438,2.63485,7.06905,5.446,0.11107,0.46279,1.41625.2255,1.34935-.11245h0Zm11.88721-2.375c-0.51706-2.17609-2.608-4.69743-4.86691-5.17039-0.44729-.09365-1.67365.33856-0.73671,0.53473,1.86785,0.39109,3.69678,2.91373,4.11573,4.67693,0.1084,0.45622,1.57082.30775,1.48789-.04127h0ZM50.01528,14.8906c-0.78056-3.41927-4.617-5.76166-7.85141-6.40716-0.99281-.19813-0.42557.54066,0.20491,0.66648,2.69354,0.53755,5.59727,2.68884,6.23,5.4604,0.09561,0.41884,1.51136.69568,1.41653,0.28028h0Zm-2.1107-.19863c-0.59158-2.44355-3.45557-4.29109-5.776-4.74524-0.63168-.12363-1.41852.35952-0.4229,0.55438,1.87055,0.36611,4.24534,2.191,4.71214,4.11914,0.11358,0.46914,1.56405.39108,1.48674,0.07172h0Zm-4.94635.55024a7.77956,7.77956,0,0,0-5.19286-4.1162c-0.44411-.125-1.67964.24609-0.75682,0.50587a6.89464,6.89464,0,0,1,4.51274,3.75294c0.20172,0.37511,1.64261.23985,1.43694-.14261h0ZM28.333,11.87937c0.5297,2.89537,3.34714,5.36773,6.07845,6.25766,0.60132,0.19592,1.48537-.15214.51725-0.46758a7.93667,7.93667,0,0,1-5.16252-5.61362c-0.07384-.40363-1.51619-0.63023-1.43318-0.17645h0Zm2.43426,0.39478a10.81713,10.81713,0,0,0,5.38076,5.11847c0.60135,0.23011,1.45843-.11185.511-0.47438a9.64146,9.64146,0,0,1-4.45641-4.48659c-0.20035-.39877-1.60161-0.48835-1.43538-0.1575h0ZM34.79711,13.232c0.48194,1.88577,2.39436,3.53894,4.08019,4.35527a1.04747,1.04747,0,0,0,.93472.08757c0.16753-.23469-0.20691-0.42612-0.37989-0.50988a6.35546,6.35546,0,0,1-3.22182-3.63631c-0.10761-.42106-1.51559-0.6973-1.4132-0.29665h0Zm-3.03906,6.16828c-1.66542-.01163-2.546-1.09686-3.23826-2.51119-0.17972-.3672-1.6294-0.18685-1.42565.22943a4.48982,4.48982,0,0,0,4.29725,2.87484,1.06123,1.06123,0,0,0,.904-0.25318c0.06981-.26946-0.34353-0.33855-0.53736-0.3399h0Zm1.02373-1.23754c-1.5462-.04764-2.77958-1.45871-3.31444-2.81292-0.16415-.4156-1.54814-0.63778-1.41327-0.29631a6.10681,6.10681,0,0,0,5.28165,3.83161c0.96022,0.02959-.09015-0.7081-0.55393-0.72239h0Z" transform="translate(-8.3735 -2.05387)"/><text x="0" y="111.47426" fill="#000000" font-size="5px" font-weight="bold" font-family="'Helvetica Neue', Helvetica, Arial-Unicode, Arial, Sans-serif">Created by Lorie Shaull</text><text x="0" y="116.47426" fill="#000000" font-size="5px" font-weight="bold" font-family="'Helvetica Neue', Helvetica, Arial-Unicode, Arial, Sans-serif">from the Noun Project</text></svg>