<svg xmlns="http://www.w3.org/2000/svg" viewBox="0 0 88.45077 121.14168749999999" x="0px" y="0px"><title>bernie icon3</title><path d="M33.94208,44.48472c-0.63037-.57413.65258-0.43194,1.463-0.15449a6.72326,6.72326,0,0,0,5.70326-.29217c0.78567-.45744,2.76776-1.51526,2.36463-0.72953C41.72672,46.71219,36.51746,46.83034,33.94208,44.48472Z" transform="translate(-8.09269 -1.46577)"/><path d="M55.26755,41.73325c-0.60027-.69076,1.22976-0.01523,1.83851.253,2.24083,0.98742,3.37051.8094,4.514,0.27357,0.74584-.3495,3.06045-1.60983,2.65638-0.791C63.12874,43.79429,58.24594,45.16064,55.26755,41.73325Z" transform="translate(-8.09269 -1.46577)"/><path d="M53.08753,34.78393c-1.35133.35686-.895-1.95047,0.52451-2.409a28.61174,28.61174,0,0,1,5.50684-.66206,31.79927,31.79927,0,0,1,5.27772.79847c1.61072,0.45428,1.72107,2.31288.15224,1.9492a18.056,18.056,0,0,0-2.88292-.3767c-1.20481-.07977-1.98065-0.34027-3.18735-0.34027a19.4818,19.4818,0,0,0-2.86511.44849A19.67065,19.67065,0,0,0,53.08753,34.78393Z" transform="translate(-8.09269 -1.46577)"/><path d="M44.91806,34.44807c-0.38229-.50733-1.203-0.53408-2.49946-0.8765A14.44887,14.44887,0,0,0,39.56,32.99145a6.60845,6.60845,0,0,0-2.96905.27467,6.2544,6.2544,0,0,0-2.79514,1.55515c-0.80893.60692-1.64827,0.94233-1.61914,1.5087,0.02935,0.57068.94814,0.45669,1.51366,0.291,0.89785-.263,1.12434-0.45577,1.71283-0.62342a7.11371,7.11371,0,0,1,2.37764-.76471,21.579,21.579,0,0,1,3.32753.40486,16.35812,16.35812,0,0,0,2.62523.5149C44.23214,36.11075,45.41793,35.11143,44.91806,34.44807Z" transform="translate(-8.09269 -1.46577)"/><path d="M47.67121,71.00295c-1.19967.65944-.64279-0.7133,1.19917-1.44418A11.48426,11.48426,0,0,1,55.81,69.11619c1.54507,0.30148,2.74441,1.60771,1.33915,1.13054C55.70021,69.75474,49.04693,70.24673,47.67121,71.00295Z" transform="translate(-8.09269 -1.46577)"/><path d="M46.09582,36.46216c-0.73323.67566-.69836-0.30748-0.3124-0.82446a3.76674,3.76674,0,0,0,.78088-2.37158c-0.019-1.13836.34977-2.14366,0.60127-.70258C47.37143,33.743,47.855,34.84112,46.09582,36.46216Z" transform="translate(-8.09269 -1.46577)"/><path d="M49.6875,35.6377c-0.60124-.31427-0.747-1.47731-0.51628-2.7112,0.13346-.71383.99144-1.04137,0.74116,0.58311A1.41382,1.41382,0,0,0,50.25,35.08333C50.98719,35.68333,50.77887,36.20815,49.6875,35.6377Z" transform="translate(-8.09269 -1.46577)"/><path d="M70.33359,47.41945c0.45987,1.01769,1.05333,1.31583.60914,2.86017-0.29362,1.02082-1.13247,1.58625-.97563,1.90818s1.77609,0.4351,2.18852-1.60363a3.57931,3.57931,0,0,0-.49938-2.55292A2.08517,2.08517,0,0,0,70.33359,47.41945Z" transform="translate(-8.09269 -1.46577)"/><path d="M24.535,48.14721a3.698,3.698,0,0,0-.32218,2.44879c0.12292,0.886,1.14181,2.07873.97377,2.40067s-1.55752.29667-1.8936-1.75957-0.4201-2.593,0-3.00878A1.31941,1.31941,0,0,1,24.535,48.14721Z" transform="translate(-8.09269 -1.46577)"/><path d="M65.299,55.91667a21.96562,21.96562,0,0,1,0,10.73267C67.3125,62.88942,67.3125,59.25,65.299,55.91667Z" transform="translate(-8.09269 -1.46577)"/><path d="M33.579,56.55745a32.53894,32.53894,0,0,0,2.37487,11.6294C32.75751,63.72733,32.124,60.34045,33.579,56.55745Z" transform="translate(-8.09269 -1.46577)"/><path d="M55.85517,51.48773a2.739,2.739,0,0,1-.16424.80969,2.07464,2.07464,0,0,1-2.07561,1.42389,1.11353,1.11353,0,0,1-.47971-0.22906,2.05474,2.05474,0,0,0-1.24946.12506,2.27555,2.27555,0,0,1-1.5729.6933,1.96244,1.96244,0,0,1-1.30552-.43158,3.1664,3.1664,0,0,0-1.8633.11389,0.83547,0.83547,0,0,1-.64018.3548c-0.029.00275-2.36585,0.166-2.458-1.79535-0.643,1.55029-1.48832,2.46619-2.154,4.10669a25.37868,25.37868,0,0,0-2.24452,8.40082c-0.81757-4.40765,1.61528-11.42828,4.7761-15.75812,0.02643-.05316.87556-1.45913,1.10073-1.82259,0.67548-1.09035,1.80881-3.613,1.62125-2.68487a8.63181,8.63181,0,0,0-.10932,2.92941c0.15233,1.09848.7556,2.23418,0.42174,2.2763-0.13928.01758-.54816,0.22223-1.05438-1a3.35557,3.35557,0,0,1-.22754-1.51508,14.36857,14.36857,0,0,1-.7912,2.03693,3.19658,3.19658,0,0,0-.4613,2.77991,1.62239,1.62239,0,0,0,1.46173,1.12268,1.0852,1.0852,0,0,1,.49524-1.53564,1.99489,1.99489,0,0,1,2.31055.77948,1.21055,1.21055,0,0,0,.98193.51935,1.61562,1.61562,0,0,0,1.13647-.35626,6.44887,6.44887,0,0,0,.5033-0.66992,1.34439,1.34439,0,0,1,.73572-0.65228,0.92248,0.92248,0,0,1,1.23376.6109,1.76644,1.76644,0,0,1-.04382.66968,1.2066,1.2066,0,0,0,1.09021-.84216,2.34735,2.34735,0,0,0-.08008-1.6485,13.56023,13.56023,0,0,0-1.66235-2.52417c-0.07281-.12683-0.2746-0.41751-0.39088-0.62252a2.40609,2.40609,0,0,1,.07595,1.76737c-0.59069,1.0027-.72544-0.17543-0.63546-1.196a9.08773,9.08773,0,0,0-.38735-2.6743c-0.47845-1.79667.76016,0.81522,1.40927,1.649,0.38007,0.48828,1.17458,1.37619,1.64948,1.97186,1.52584,1.91388,4.53884,3.69887,7.46682,12.61271A47.92038,47.92038,0,0,0,55.85517,51.48773Z" transform="translate(-8.09269 -1.46577)"/><path d="M43.78127,30.09a10.65256,10.65256,0,0,0-6.57495-.48756c-1.8744.53637-3.59955,0.55707-2.29649-.2187C37,28.13933,42.04622,27.691,44.00059,29.21635,45.42692,30.32954,44.82289,30.63577,43.78127,30.09Zm9.52558-4.66408c3.15858,0.45447,9.06119.44222,1.88265-.69415-4.02388-.637-12.82-1.20653-19.432,2.38986-4.56046,2.48054-1.99462,1.75457.39144,0.67941C42.59282,24.89738,51.88707,25.2216,53.30685,25.42588Zm-2.81878-2.73109c2.1318,0.22187,4.49407-.36146,2.26868-0.86655-3.12827-.71-9.92342-0.51533-17.00893,2.50463-0.98193.41851,0.27178,1.03241,2.03123,0.28244A26.60592,26.60592,0,0,1,50.48807,22.69479Z" transform="translate(-8.09269 -1.46577)"/><path d="M61.20084,62.57027c1.5387,0.02288.069-.511-0.42689-0.66492-0.3243-.10064-5.06273-0.95615-6.11791-1.22a1.55979,1.55979,0,0,0-1.62492.286,4.37768,4.37768,0,0,1-1.69581.48992,3.17465,3.17465,0,0,1-1.35664-.18846,1.693,1.693,0,0,0-1.35664,0c-0.37686.18846-5.22534,2.15242-6.39507,2.64336-0.788.33073-.97879,1.215-0.72695,1.14368a11.99608,11.99608,0,0,1,3.03384-.9894c1.9541,2.5962,4.84513,1.72631,6.65878,1.46937,1.34268-.19022,7.51843-1.0529,7.76849-3.18966M45.68448,63.83333c1.29427-1.29167,3.54926-1.20717,4.41192-1.07256a5.09688,5.09688,0,0,0,2.58689-.48422,5.41958,5.41958,0,0,1,4.3359.27063,51.79359,51.79359,0,0,0-5.61608,1.039C49.73044,63.82593,47.7256,63.253,45.68448,63.83333Z" transform="translate(-8.09269 -1.46577)"/><path d="M92,70.83333C84.18842,68.8077,70.84125,66,70.06055,65H70.05664a16.21323,16.21323,0,0,0,.58252-5.03391c3.52753-.01227,3.08691-5.75737,3.08691-5.80858,0-1.54211,1.60217-4.02383,2.46155-4.95119a8.093,8.093,0,0,0,2.22754-5.68794,4.99563,4.99563,0,0,0-.51587-2.13929c0.97467-.00378,1.91528-0.13416,2.06458-0.63526a0.74225,0.74225,0,0,0-.417-0.86435,1.55292,1.55292,0,0,1-1.167-1.99052,3.34661,3.34661,0,0,0-.25488-1.93374c1.32715-.28467,2.39817-1.07457,3.207-3.61824a0.69912,0.69912,0,0,0-.81543-0.91473,2.79636,2.79636,0,0,1-2.2793-.69526,3.058,3.058,0,0,0,1.083-2.1489,0.66476,0.66476,0,0,0-.72559-0.83006c-2.06107.34216-2.96191-1.71582-4.03711-4.51953-0.76953-2.00732-1.5625-4.07471-3.32324-4.57666a1.28642,1.28642,0,0,1,1.44922-1.06055,0.695,0.695,0,0,0,.15332-1.37891,13.70014,13.70014,0,0,1-5.23145-2.72363,8.587,8.587,0,0,0-4.68164-2.1958,4.02366,4.02366,0,0,1,2.47266-.81934,0.69426,0.69426,0,0,0,.26758-1.356A14.647,14.647,0,0,0,57.79179,8.186a11.2344,11.2344,0,0,0-4.95841-4.37751,0.64448,0.64448,0,0,0-.77088,1.004,3.6707,3.6707,0,0,1,.65408,2.25525l0.002,0.02344c-1.54509-1.52061-5.9431-3.75427-14.34793-4.06042A40.55328,40.55328,0,0,1,27.41895,1.501,0.7,0.7,0,0,0,26.728,2.68359,15.771,15.771,0,0,0,35.46191,7.041c-2.498.6875-5.63232,1.40845-7.46533,1.0127a0.69835,0.69835,0,0,0-.79395.95459,4.234,4.234,0,0,0,.78027,1.35156A19.99331,19.99331,0,0,0,23.36426,12.563,59.1545,59.1545,0,0,1,17.91113,15.415a0.69984,0.69984,0,0,0,.40674,1.32813,27.25075,27.25075,0,0,1,3.42139-.42969C18.896,20.48682,17.6084,24.28223,18.00781,27.3418c0.46143,3.52832-.44238,7.16675-2.04785,8.29541a0.70473,0.70473,0,0,0,.00439,1.15137,5.20158,5.20158,0,0,0,1.32617.63672,4.89861,4.89861,0,0,1-2.7876.19189,0.71593,0.71593,0,0,0-.77832.87646,6.35,6.35,0,0,0,1.06183,2.63422,3.4139,3.4139,0,0,0-.15417,2.76544,57.865,57.865,0,0,0,3.99419,8.16812c0.90826,1.346,2.66947,3.20322,2.43774,5.567-0.07264.74095-.42437,3.961,0.409,4.95108A3.328,3.328,0,0,0,23.88263,63.635a2.75454,2.75454,0,0,0,2.602-1.27716,40.51505,40.51505,0,0,0,2.09833,4.48395c-7.94513,2.22168-17.6745,4.73427-18.36687,4.93737-2.24693.65912-2.52375,2.1944-1.69557,1.99451A189.60233,189.60233,0,0,0,28.6684,68.79236c-7.00861,9.20221-9.15479,9.67383-7.20111,11.70892,2.26538,2.3598,4.62567,4.10016,5.35522,5.00128-4.49438,4.48346-6.92438,9.6803-6.06958,8.9762,1.009-.83112,8.56439-8.78064,8.68982-9.08569,0.28351-.69141.44562-0.71967-6.05206-6.2821,0.67688-1.33264,4.02527-4.95282,5.5014-6.9588,0.72949-.99109,1.24072-1.68048,1.60492-2.18109a12.2451,12.2451,0,0,0,2.10876,2.42c-1.11194,3.11774-3.15173,8.02063-.97217,18.12073,0.62268,2.88538.90234-1.511,0.7973-3.43378a44.40182,44.40182,0,0,1,.086-7.93152,47.77142,47.77142,0,0,0,3.67206,14.207,1.19383,1.19383,0,0,0,1.77686.35522,75.92965,75.92965,0,0,1,5.65466-7.173,20.73054,20.73054,0,0,0,1.53516,1.61255c2.44269,2.2489,2.8725,2.2489.63745,5.12683-1.596,2.05505-1.9472,3.23016.10492,4.26257s7.99176,1.29065,9.86572-.23755c1.33136-1.08582.04425-2.39886-1.83472-4.51373-1.401-1.57678-.96094-2.06415.3844-3.14972a9.06278,9.06278,0,0,0,2.387-3.42493c1.92334,2.45441,5.40344,7.02008,5.96649,7.38159,1.431,1.23419,1.95959-.43591,2.16437-0.82281A31.0255,31.0255,0,0,0,67.78851,82.819a62.51664,62.51664,0,0,0,.10388-7.951A36.42277,36.42277,0,0,1,70.692,86.0592c0.16028,1.29749.51489,6.13269,1.03253,2.72632,0.7691-5.06128-.36444-12.8078-4.116-17.91315A8.70663,8.70663,0,0,0,69.149,68.08691l0.00476,0.00916s8.18726,9.8006,8.9856,10.705c-0.20874.20673-3.2063,3.31232-4.3833,4.63641A1.57417,1.57417,0,0,0,73.92,85.74585a68.01677,68.01677,0,0,0,7.65259,6.85754c1.75476,1.215.86-1.36285-.64514-2.62427-0.44214-.37054-4.46472-4.231-5.47089-5.20978,0.81049-.93073,4.26666-4.66516,4.49359-4.97614,1.09064-1.49426.63611-2.0318-8.28485-12.08838,0.34894,0.09717,23.4201,5.66895,23.48322,5.68555C98.05865,74.15607,96.12982,71.9042,92,70.83333ZM15.28174,39.10352c2.23291,0.12256,3.60992-.66125,4.26416-2.26172a0.70093,0.70093,0,0,0-.8042-0.92725,3.02655,3.02655,0,0,1-1.18408.13477c1.54395-1.8208,2.30469-5.32275,1.83887-8.88916-0.38428-2.93848,1.06006-6.74854,4.17725-11.01855,0.21143-.28906.21307-1.62616-1.51025-1.23828,0.91553-.508,6.0719-3.40009,7.624-3.30176a0.60813,0.60813,0,0,0,.4624-1.061C29.659,10.25726,29.2002,10,29.22314,10c2.59131,0,5.97021-1.197,8.34619-1.88647,0.84741-.24548,2.37823-0.78662,2.517-0.81622A0.7053,0.7053,0,0,0,39.771,5.9408a0.15355,0.15355,0,0,0-.0249-0.00629c-4.36523.021-7.18408-.81348-9.51221-2.28955A38.13646,38.13646,0,0,0,38.29,4.534c8.68249-.31015,14.1395,4.16779,15.29862,4.15631a0.70986,0.70986,0,0,0,.64258-0.92615C54.20572,7.46075,53.958,6.33105,53.9375,6.1875a10.92457,10.92457,0,0,1,2.88358,3.10088,0.69573,0.69573,0,0,0,.69043.338c2.26074-.28564,3.28146-0.58221,5.3879.03644a7.06644,7.06644,0,0,0-2.2832,1.95447,0.65561,0.65561,0,0,0,.65137,1.09564c2.6319-.33844,3.833.624,5.48633,1.88818A16.02064,16.02064,0,0,0,70.61426,16.959a3.51766,3.51766,0,0,0-.85547,2.25781,0.61152,0.61152,0,0,0,.67969.72119c1.28076,0.00122,1.917,1.45654,2.8125,3.792,0.8584,2.23828,1.90527,4.96826,4.48242,5.37256a1.377,1.377,0,0,1-1.0127.86084,0.69449,0.69449,0,0,0-.22754,1.20947,6.83284,6.83284,0,0,0,3.1416,1.64746c-0.82715,1.812-1.64941,1.84082-3.10059,1.89111a0.7,0.7,0,0,0-.31348,1.3125,1.41617,1.41617,0,0,1,.76367,1.75537,3.16228,3.16228,0,0,0,.38965,2.1748c-0.10535-.00226-1.20026-0.07562-1.5918-0.11963-0.31256-.03516-0.80722.22647-0.952,1.14648a8.392,8.392,0,0,1-1.04205,2.97656A8.36433,8.36433,0,0,0,73.25,40.937a0.67327,0.67327,0,0,0-1.16113-.05908,1.603,1.603,0,0,1-.9502.49854,5.86045,5.86045,0,0,0,.81934-4.0498,8.95677,8.95677,0,0,0-3.6582-5.665c0.76845,0.04934,2.96829-1.30793-.64746-3.66553-0.52511-.34239-2.502-1.876-2.916-2.21094a2.3392,2.3392,0,0,0,.7334-0.93848c0.541-1.22314.26563-3.20117-1.53027-4.8252C63.69727,19.76416,56.02966,10.53464,53,11.8756a20.54333,20.54333,0,0,1-6.96948,1.06459c2.3125-.87842,3.74829-2.00529,3.62491-2.49882a1.457,1.457,0,0,0-1.61318-.904,37.60256,37.60256,0,0,0-5.86155.52591C33.67662,11.867,30.58331,16.58331,27.5625,24.25964c-1.278,3.24768-.99432,4.4303-3.11816,4.4054a0.69781,0.69781,0,0,0-.54852,1.173,4.08017,4.08017,0,0,0,2.048,1.2215,24.72973,24.72973,0,0,0-2.59241,7.52014,9.16717,9.16717,0,0,0,.18347,2.57788,7.92473,7.92473,0,0,0,.7644,2.11877,2.82326,2.82326,0,0,1-2.35254-1.28809c-0.14941-.22656-1.06976-0.47455-1.25439.18213-0.09735.34619-.18872,0.66266-0.25482,0.97845a8.84958,8.84958,0,0,0-.064,3.01178c-1.96826-1.79138-1.80316-3.29565-1.53149-4.28412,0.03729-.13562.07422-0.2627,0.11255-0.3775a0.71483,0.71483,0,0,0-.74951-0.90381c-1.37244.20978-2.06158-.0658-2.45178-0.4823A2.11126,2.11126,0,0,1,15.28174,39.10352Zm52.31885,1.96289c0.043,3.0166-2.98718,3.76379-3.7793,3.99561a30.02987,30.02987,0,0,1-7.10937.478,6.132,6.132,0,0,1-3.53125-2.64941c-0.06641-.11865-1.59814-2.92871-0.8291-4.84619a2.60516,2.60516,0,0,1,1.79395-1.50537,24.7309,24.7309,0,0,1,6.832-.90137,17.20707,17.20707,0,0,1,2.88379.208c2.376,0.42383,3.60742.9502,3.74512,2.60205C67.60645,38.44775,67.584,39.86816,67.60059,41.06641Zm-3.56348-6.20508c-2.42188-.43164-7.00623.09686-10.19043,0.72363a3.24712,3.24712,0,0,0-2.69287,3.33777,16.135,16.135,0,0,0-4.93652.31561,3.95561,3.95561,0,0,0-3.01391-2.5108c-3.23273-.28815-7.854-0.14648-10.19922.59277-1.80511.56964-3.442,1.53467-3.85694,3.33722-0.46423.019-.85406,0.08191-1.19855,0.09161-0.52417.01483-1.58832-.31757-3.14355-0.53033-0.25073-1.91284.92261-7.22632,3.21375-9.49426,0.68146-.67456.59723-1.4469-0.18372-1.12091a3.5486,3.5486,0,0,1-1.77264.06531c2.00586-.95947,2.04425-1.72266,2.89581-4.35645,0.24219-.75049,4.61034-14.19081,17.45957-14.17871-1.15332.52344-2.95745,1.52785-3.77581,1.80812a0.69958,0.69958,0,0,0-.01514,1.31885C45.832,15.44044,52.11577,13.972,53.82129,13.374c1.96094-.6875,5.57128,3.649,8.06348,6.4292,0.43888,0.4896,2.953,2.53011,2.30469,4.47656a0.67751,0.67751,0,0,1-.71973.49609,0.67793,0.67793,0,0,0-.63574,1.10645c0.3336,0.60886,5.07715,4.1875,5.24121,4.39844a7.25657,7.25657,0,0,1-.8584.05908c-0.95758.01385-1.80368,0.99594-.56738,1.92969a9.91351,9.91351,0,0,1,3.7074,4.38495c-0.57117.12775-1.90021,0.35791-2.15405,0.37671C67.44885,35.61816,65.76123,35.16876,64.03711,34.86133ZM44.91357,44.12744a6.13135,6.13135,0,0,1-3.16113,3.082,28.40627,28.40627,0,0,1-6.7373.4873c-1.15144-.08308-4.292-0.52637-4.63672-3.52393-0.13477-1.16943-.335-2.54834-0.3374-2.54883-0.08008-1.70312.96315-2.624,3.26393-3.34961a24.79865,24.79865,0,0,1,9.72559-.56152,3.06967,3.06967,0,0,1,2.08227,1.50293C46.12256,41.01855,44.96387,44.001,44.91357,44.12744ZM37.124,91.27173c-1.60223-3.08978-3.13544-10.37579-3.281-14.82288,1.89956,3.22683,8.50623,6.93268,9.07184,7.158C42.79388,83.72644,39.025,89.07227,37.124,91.27173Zm26.12451,0.26453c-1.24286-.79724-4.6015-6.06976-5.36908-7.16632,4.56891-1.43164,6.56342-5.44629,8.12073-8.08093,0.00031,0.2796.00183,0.614,0.00342,0.97839C65.78479,80.55219,64.74491,89.31463,63.24854,91.53625Zm-7.90179-8.61139c-2.10945.95742-8.86248,0.452-10.681-.55371-2.45935-1.36012-9.247-6.74957-10.26193-8.5921L34,73.3678v-0.0014a35.13983,35.13983,0,0,1,4.35272,1.9776c1.34692,0.71625,3.83612,1.85669,5.61182,2.84137a17.38612,17.38612,0,0,0,8.38419,1.83c7.9156-.26271,11.62275-5.00256,13.479-6.95856C65.82771,73.05682,62.25,79.79167,55.34674,82.92487Zm11.7489-14.6626a59.93242,59.93242,0,0,1-6.83014,7.99316c0.88788-1.351,2.10565-4.38019,1.73828-6.70752a19.60184,19.60184,0,0,1-4.23138,7.84784,17.12558,17.12558,0,0,1-9.74512.37616,38.46761,38.46761,0,0,1-5.4585-6.85559c-0.0639.57922,1.47437,3.99933,3.09521,6.098-0.23029-.10974-7.02509-4.08765-8.79651-4.62115a13.88536,13.88536,0,0,1-2.85858-1.21356c-1.88385-1.08661-5.999-9.90778-6.719-12.22021-0.07166-.29767-1.54865-4.42554-1.54865-4.42554a38.22307,38.22307,0,0,1-.08008,4.04315s0.03094,2.31964-.85114,3.001c-0.149.11511-1.44879,0.6109-1.95331-.16431-0.29047-.44629.20477-3.42339,0.15179-3.85619a13.71383,13.71383,0,0,0-2.83344-6.49176,31.36276,31.36276,0,0,1-3.75433-7.44532,3.33677,3.33677,0,0,1,.098-1.65479,5.28355,5.28355,0,0,0,.86017.07788c-0.31934,1.80322.13837,3.94592,3.55127,6.31055a0.67633,0.67633,0,0,0,1.07861-.70068,17.28706,17.28706,0,0,1-.27264-3.80054,0.07571,0.07571,0,0,1,.07446-0.05817,4.7216,4.7216,0,0,0,3.33441.83527,1.08465,1.08465,0,0,0,.95605-0.87256,0.7006,0.7006,0,0,0-.18164-0.58545,3.9435,3.9435,0,0,1-.652-1.15546,5.465,5.465,0,0,0,1.56506.35632c0.75787-.02966,1.635-0.00763,2.30609-0.00171,0.071,0.51239.16943,1.24524,0.24664,1.91608,0.43457,3.78027,4.16617,4.50656,6.64209,4.44287a29.70755,29.70755,0,0,0,6.03955-.57129,7.18839,7.18839,0,0,0,3.77686-3.66406A9.51537,9.51537,0,0,0,46.459,40.2052a14.96963,14.96963,0,0,1,4.71887-.26483A10.18261,10.18261,0,0,0,52.30518,43.374c0.69678,1.26123,2.53656,2.97125,4.21729,3.14746a34.11219,34.11219,0,0,0,7.54688-.49072c0.739-.19983,4.58594-1.1748,4.53125-4.97852-0.01587-1.13226.00372-2.45288,0.00378-2.61035,0.04291-.01215,1.39545-0.12073,2.39539-0.12592a5.63206,5.63206,0,0,1-1.57849,3.23285c-0.37921.4959-.26617,1.16931,0.21088,1.17041a4.71169,4.71169,0,0,0,2.69519-.25732,10.70846,10.70846,0,0,1,.00671,2.7959c-0.20214,1.34633.66452,1.56327,1.11517,1.17969A8.38288,8.38288,0,0,0,76.059,41.91431a4.19087,4.19087,0,0,1,.5473,1.63068A6.31667,6.31667,0,0,1,74.861,48.03a13.45255,13.45255,0,0,0-2.52769,6.81491c0,1.55621.5,3.46254-1.37441,3.53043-0.13959.14392-.69073-0.08215-0.692-0.67285L69.94774,53.75S70.26227,63.00586,67.09564,68.26227Z" transform="translate(-8.09269 -1.46577)"/><path d="M63.125,38.14717a9.67378,9.67378,0,0,0-7.97671-.58467c-2.36054.98615-1.6384,1.79768,1.20207,0.381l-0.7389.65368a3.13176,3.13176,0,0,1-.64069.5709c-0.825.57988-.869,0.88573,0.6959,0.4619a5.20878,5.20878,0,0,0,6.30306.51911c0.90527-.54547-0.72065-0.37956-1.07043-0.22131-1.29129.58421-2.70707,0.696-5.02429-.6978a6.22694,6.22694,0,0,1,2.12608-1.35684c3.82343,0.44283,3.98893.724,5.11434,1.4054C65.08552,40.47131,64.30181,38.84645,63.125,38.14717Z" transform="translate(-8.09269 -1.46577)"/><path d="M43.00229,39.27855c1.98821,0.27022,2.09146-.299.24609-0.68135A14.61356,14.61356,0,0,0,39.9699,38.316a6.89139,6.89139,0,0,0-4.90613,2.21171c-1.08124.99124-.5072,2.03292-0.00519,1.39931A7.99673,7.99673,0,0,1,40.745,38.97958a16.75094,16.75094,0,0,1,1.86992,1.22569c-1.29765,1.23338-4.38057,1.41288-4.97731,1.3165-0.4115-.06653-1.07588.02613-0.66988,0.40522,0.39709,0.37085,4.44892.78718,6.15582-1.50048,1.25162,0.10117,1.53547-.249.872-0.39653a10.95161,10.95161,0,0,1-1.83961-.85323A5.19316,5.19316,0,0,1,43.00229,39.27855Z" transform="translate(-8.09269 -1.46577)"/><path d="M60.92181,38.76093A1.54793,1.54793,0,1,0,59.608,40.512,1.5479,1.5479,0,0,0,60.92181,38.76093Zm-0.73233.15445a0.45,0.45,0,1,1,0-.63642A0.44993,0.44993,0,0,1,60.18949,38.91537Z" transform="translate(-8.09269 -1.46577)"/><path d="M40.228,38.577a1.548,1.548,0,1,0,.72852,2.06439A1.548,1.548,0,0,0,40.228,38.577Zm-0.18311,1.60158a0.45,0.45,0,1,1,.45-0.45A0.45,0.45,0,0,1,40.04486,40.17855Z" transform="translate(-8.09269 -1.46577)"/><text x="0" y="111.91335" fill="#000000" font-size="5px" font-weight="bold" font-family="'Helvetica Neue', Helvetica, Arial-Unicode, Arial, Sans-serif">Created by Lorie Shaull</text><text x="0" y="116.91335" fill="#000000" font-size="5px" font-weight="bold" font-family="'Helvetica Neue', Helvetica, Arial-Unicode, Arial, Sans-serif">from the Noun Project</text></svg>