<svg xmlns="http://www.w3.org/2000/svg" data-name="Layer 1" viewBox="0 0 91.25905 96.36535" x="0px" y="0px"><title>trump icon</title><path d="M35.96648,70.91147c-0.23268-.54563-0.68477-2.40308-0.42872-2.26119,0.97646,0.5411,2.86807,6.15654,6.04556,8.38048,4.79387,3.35526,7.60073,3.03407,10.52925,1.517,2.18508-1.13192,4.22323-4.42137,5.505-5.89609,0.40327-.38677-0.54059,1.62316-1.253,2.99522a8.92455,8.92455,0,0,1-4.54815,4.56121c-3.50183,1.401-7.38568,1.01254-11.53779-2.34263C38.575,76.48883,37.54794,74.62,35.96648,70.91147Z" transform="translate(-3.71822 -2.02725)"></path><path d="M22.7757,47.45979c0.73719-.06616.61746-0.05284,0.38441-1.24523-0.22093-1.13041-1.24386-3.3624-.90151-0.96352,0.19029,1.61524-.485,1.39926-0.92623,1.77881-1.12549.85389,0.42139,3.83135,1.00947,3.98653,0.44832,0.1183.97586,1.99272,0.93832,1.2339-0.03763-.76058-0.0773-2.00767-0.648-2.27322C21.60226,49.64279,21.60815,47.56457,22.7757,47.45979Z" transform="translate(-3.71822 -2.02725)"></path><path d="M70.60853,52.28561c-0.60295.14636-.616,0.95682-0.80779,1.69379-0.19132.73527,0.41891-.59584,0.87429-0.61872,0.70024-.03519,3.14686-2.36295,1.71727-3.93548a1.61807,1.61807,0,0,1-.39866-1.89715c0.22511-1.736-.85615-0.74628-0.99494.85116-0.10512,1.21-.65255,1.00421.04261,1.21567C72.14228,49.92978,71.667,52.16339,70.60853,52.28561Z" transform="translate(-3.71822 -2.02725)"></path><path d="M44.15241,42.06374c-1.78617,1.2082-4.41109.365-5.75428-.88253-0.96121-.89276-2.51157-1.8031-1.25454-0.30046,2.343,2.80084,4.61234,3.83357,8.04293,1.10436C45.6039,41.65306,45.1742,41.37259,44.15241,42.06374Z" transform="translate(-3.71822 -2.02725)"></path><path d="M57.67123,43.29208a4.48,4.48,0,0,0,5.2643,1.01817c1.07626-.48456,2.97312-1.38953,1.46119-0.17818-3.58339,2.871-6.37031,1.8512-8.17915-1.778C55.98685,41.8912,56.81438,42.38374,57.67123,43.29208Z" transform="translate(-3.71822 -2.02725)"></path><path d="M47.94962,37.61182c-0.20916-.49.58906,0.13531,1.10418,0.90879,0.924,1.38743.3002,3.41218-1.57592,4.97779A6.62737,6.62737,0,0,0,47.94962,37.61182Z" transform="translate(-3.71822 -2.02725)"></path><path d="M55.192,39.51674c0.82071-1.32741-.687-0.7458-1.18285.28805-0.748,1.55967-1.10226,3.9965.78325,5.221C54.91677,45.10662,53.64659,42.01626,55.192,39.51674Z" transform="translate(-3.71822 -2.02725)"></path><path d="M56.00033,40.49456c3.0392-1.677,5.35391-1.47279,6.67-.39132,0.923,0.7585,1.21789,1.19531,2.15873,2.05609,0.56322,0.51529.24816-.44919-0.03636-0.97726a5.62685,5.62685,0,0,0-6.30725-2.64894c-1.932.48439-2.92109,2.0751-2.48509,1.96144h0Z" transform="translate(-3.71822 -2.02725)"></path><path d="M44.1477,36.74265a5.41265,5.41265,0,0,0-4.58058-.29212c-1.06234.32622-2.98708,1.97466-1.80618,1.39727,2.27751-1.11358,5.21356-1.04086,6.53764.19089,0.96079,0.8938.99344,1.19048,2.01476,2.11808C46.70863,40.93527,46.96313,38.24242,44.1477,36.74265Z" transform="translate(-3.71822 -2.02725)"></path><path d="M46.35106,40.79286a5.87265,5.87265,0,0,1-2.20172-1.75815,3.54875,3.54875,0,0,0-5.1209-.20432,13.82111,13.82111,0,0,1,2.597-.09662,0.84588,0.84588,0,0,0-.28843.59614,1.42669,1.42669,0,0,0,1.43211,1.25549,1.299,1.299,0,0,0,1.30039-.58149A5.96511,5.96511,0,0,0,46.35106,40.79286Z" transform="translate(-3.71822 -2.02725)"></path><path d="M63.73709,42.33015a4.02912,4.02912,0,0,0-5.03561-1.82977,4.51559,4.51559,0,0,1-2.41081.754,5.60053,5.60053,0,0,0,2.30172.16525,1.364,1.364,0,0,0,.4758.87384,1.66453,1.66453,0,0,0,2.01038-.08779,0.75934,0.75934,0,0,0,.11052-1.00053A16.94129,16.94129,0,0,1,63.73709,42.33015Z" transform="translate(-3.71822 -2.02725)"></path><path d="M68.8953,41.34392a1.34685,1.34685,0,0,0-.4362-0.52274,28.49665,28.49665,0,0,0-2.99122,1.2699l0.12872,0.34582A21.41666,21.41666,0,0,0,68.8953,41.34392Z" transform="translate(-3.71822 -2.02725)"></path><path d="M32.63761,36.61868a1.34685,1.34685,0,0,1,.48613-0.47666,28.49665,28.49665,0,0,1,2.84974,1.56173l-0.16255.33127A21.41666,21.41666,0,0,1,32.63761,36.61868Z" transform="translate(-3.71822 -2.02725)"></path><path d="M68.78372,44.06408a1.34685,1.34685,0,0,1-.47755.48526A28.49665,28.49665,0,0,1,65.429,43.03871l0.15661-.33412A21.41666,21.41666,0,0,1,68.78372,44.06408Z" transform="translate(-3.71822 -2.02725)"></path><path d="M32.4775,39.33642a1.34685,1.34685,0,0,0,.4268.53044,28.49665,28.49665,0,0,0,3.0134-1.21632l-0.12253-.34806A21.41666,21.41666,0,0,0,32.4775,39.33642Z" transform="translate(-3.71822 -2.02725)"></path><path d="M53.1908,65.07715c-0.69086-.85248-0.7547-4.76349-1.3606-8.05536-0.405-2.20044-1.32074-1.46643-2.0025-.54907-0.27344.368-.83435,0.18469-1.14642-0.64093-0.52588-1.39124-1.70947.34027-2.27637,1.7915-1.26917,3.24933-2.95044,5.07715-3.89691,5.6076-0.40771.22852-.6795,0.85736-0.27026,0.73334,1.075-.32568,1.52014-0.3186,1.23462,1.16418A15.01394,15.01394,0,0,0,44.134,71.0296c0.53424,1.84113,3.85968,3.68506,5.44727.819,1.57819-2.84906,2.10376-4.493,3.41541-5.77863a5.002,5.002,0,0,0,.649.30933C55.067,66.96808,53.56964,65.54462,53.1908,65.07715Zm-4.70032,5.99341a2.942,2.942,0,0,1-.54584.28644c-1.084.22485-1.7157,0.222-2.97174-1.39471a4.47877,4.47877,0,0,1-.54218-1.7522,12.712,12.712,0,0,1,5.04791,1.6236A4.85507,4.85507,0,0,1,48.49048,71.07056Zm0.41577-10.90961a1.42124,1.42124,0,0,1-.319-0.9101c-0.16705.748-.02307,0.80206-0.20178,0.92462a6.25629,6.25629,0,0,1-2.013-.206,4.98316,4.98316,0,0,1,.37488-0.721c1.21515-1.791,1.395-1.08954,2.163-1.02863,0.639,0.05066,1.50134-1.9046,1.7713-.01508,0.0368,0.2652.06183,0.92963,0.10767,1.75055A11.41,11.41,0,0,1,48.90625,60.16095Z" transform="translate(-3.71822 -2.02725)"></path><path d="M55.42407,61.43878a21.4901,21.4901,0,0,0,.51239-9.54016,1.32413,1.32413,0,0,1-1.86865.16272,2.297,2.297,0,0,1-1.36444.26025c-0.51251,2.20337-4.86176,2.06006-5.07953-.44012a2.70152,2.70152,0,0,1-1.3631-.4671,1.2426,1.2426,0,0,1-1.89117-.51825A68.53154,68.53154,0,0,0,41.63843,60.554a16.86015,16.86015,0,0,1,1.47137-8.98132A23.93258,23.93258,0,0,1,44.34459,49.482a2.228,2.228,0,0,1,1.01735-1.38967l0.00464-.00653-0.00134.00464c0.14478-.06934.24054-0.06586,0.21442,0.02539-0.08026.28052-.99582,1.1668-0.93793,2.01208a0.84578,0.84578,0,0,0,1.63416.35278,0.99786,0.99786,0,0,1,1.89215.44293,2.15533,2.15533,0,0,0,4.24438.36694c0.20251-.70514,1.02991-1.087,1.43811-0.449a1.44109,1.44109,0,0,0,.78046.82825c0.53882,0.14294,1.7995-.29547.53442-2.28967-0.08862-.13965.1095,0.00452,0.32007,0.19934l-0.00006-.00031,0.00018,0.00043a2.16987,2.16987,0,0,1,.37872.42627,1.60216,1.60216,0,0,1,.30113.8494A12.87891,12.87891,0,0,1,57.006,53.584C57.6488,58.58331,54.9209,62.93848,55.42407,61.43878Z" transform="translate(-3.71822 -2.02725)"></path><path d="M78.19519,34.48218a11.80336,11.80336,0,0,0,3.72327,8.28436,0.61616,0.61616,0,0,1-.04309.67419c-2.21977,3.3073-6.089,3.12781-6.07935,3.253-0.4375,9.45593-3.76312,10.834-4.76477,11.08618-0.00165-.01367.97533,5.36491,2.25763,7.52063a0.45942,0.45942,0,0,1-.26465.6803c-1.25624.439-4.42548,0.91022-5.80945,0.32141-0.39252,1.14075-1.02081,2.9317-1.37665,3.79456,0.7348,0.2002,17.61273,5.06464,25.369,7.45331,2.53638,0.78113-1.80939.71619-4.61353-.12775-3.73419-1.12384-20.15649-5.35852-20.49609-5.45306,8.17236,9.67139,8.68158,10.85858,8.0625,11.76392-0.21094.30957-4.87207,4.16187-5.0625,5.36108,0.912,0.62918,6.321,5.71655,6.75122,6.07715,1.46478,1.22754,2.478,3.09064.77026,1.9082-0.39746-.27527-8.55249-6.33008-8.68066-7.88281-0.15717-1.904,4.76855-6.21387,4.97168-6.415-0.56445-1.14453-8.29126-9.95532-8.29126-9.95532a33.07742,33.07742,0,0,1-2.68951,4.65344,26.87388,26.87388,0,0,1,4.22589,17.64465c-0.50372,3.31494-1.02844-1.3811-1.00482-2.6532,0.1189-6.40643-1.07629-9.39447-3.25818-12.536,0.85052,3.64795-3.227,14.98126-5.45282,15.219a1.96316,1.96316,0,0,1-.19922.01709c-0.668,0-4.61938-6.50623-5.26471-7.56073a10.71539,10.71539,0,0,1-.88379,1.3009c-1.09259,1.27924-1.47675,1.33386-.37408,3.06519,1.30444,2.04828,3.08112,4.30908,1.78546,5.36572-1.82367,1.48718-6.72369,1.2359-8.72076.2312s-1.52075-1.33209-.17609-3.47784c1.67889-2.67914,1.7312-3.61353.55029-4.6297a9.69935,9.69935,0,0,1-1.39709-1.8653c-4.38318,5.27942-4.47693,7.77-5.766,8.035-0.79425.16333-.77081,0.017-1.08575-0.41174a33.908,33.908,0,0,1-4.01569-13.0423c-1.01422,1.84875-1.53192,4.60254-1.21521,10.40088,0.10217,1.87115-.17,6.1496-0.77594,3.34161A26.35757,26.35757,0,0,1,31.56622,77.9068a42.23556,42.23556,0,0,1-4.833-7.52094c-0.36346.61212-5.39008,7.60608-6.63086,10.3139,6.32324,5.41309,6.062,6.0498,5.78613,6.72266a13.824,13.824,0,0,1-1.7627,2.29785c-1.2915,1.56348-6.64746,6.89551-6.69385,6.54395-0.14209-1.06836.96533-2.749,5.15137-7.81738,0.44336-.53711,1.21729-1.437,1.51416-1.81494-0.71-.877-2.67963-2.61023-5.09021-4.8501-2.00635-1.86426,5.44238-10.76477,5.93488-11.45966-6.96124,1.32562-12.47,2.67712-15.25446,3.16888s-10.34735.87811-2.52655-.81738C15.328,70.90314,17.61188,70.3443,25.41339,68.1402c0.09534-.02692-0.636-2.73553-1.0473-4.26892a12.44564,12.44564,0,0,1-5.544-1.84436c-0.21367-.13491-0.59215-0.288-0.19775-0.78418a12.43347,12.43347,0,0,0,2.418-4.60913c-4.5166-.11237-4.11078-14.02032-4.07184-14.48126-1.51062-.931-3.303-2.38934-3.32013-3.26154a0.56176,0.56176,0,0,1,.18713-0.38831C18.57074,33.644,15.28076,17.489,29.69189,6.89441,39.14874-.05792,55.759.55072,65.9549,7.99768c4.40314,3.216,20.84723,16.05219,28.88916,17.02289C95.45752,25.0946,94.58765,37.088,78.19519,34.48218ZM18.84735,31.7959c0.75537,0.25128,3.569,1.67462,9.61169-.44116,0.08417-.30609.16528-0.62274,0.24506-0.94385-2.02319.71625-9.44257-.93671-9.48267-0.97241C19.111,30.24445,18.98975,31.03265,18.84735,31.7959Zm-1.19971,4.06763c0.87439,0.39075,3.65814,1.43909,10.12866-2.3175q0.17523-.49777.34039-1.026l-0.065.01868L28.05878,32.52c-2.24176,1.07892-7.71667,1.59955-9.5304.8139l-0.01721.00958A14.16262,14.16262,0,0,1,17.64764,35.86353Zm6.12805,4.39594a12.05173,12.05173,0,0,0,3.49011-5.37573c-4.08667,2.98456-9.06628,2.80023-10.72668,2.75861a4.44514,4.44514,0,0,1-1.39117,1.40833C15.35779,39.4458,19.87054,43.47485,23.7757,40.25946Zm0,22.179a41.31019,41.31019,0,0,1-.7868-5.91718,3.87289,3.87289,0,0,1-.92365.18207,11.49956,11.49956,0,0,1-1.75439,4.55164A11.51346,11.51346,0,0,0,23.7757,62.43842ZM41.91,84.6568c-1.9375-.4375-7.60693-3.50653-8.97345-4.96729-1.365,4.19434.54053,10.90479,2.70428,13.43829C37.15723,91.035,42.09015,84.69745,41.91,84.6568Zm18.41479-4.96729c-1.62646,1.9259-6.821,4.84229-9.78979,5.08582,0.25568,0.52344,4.94446,7.723,5.81354,8.35248C58.36707,90.75989,59.86273,84.47626,60.32477,79.68951Zm9.60144-21.80786a5.79328,5.79328,0,0,1-.644-0.03583c-0.16309.70825-1.18134,4.84985-1.82928,7.06213a9.11505,9.11505,0,0,0,4.07764.04437A28.31917,28.31917,0,0,1,69.92621,57.88165Zm4.55225-11.3418c-4.40369-.41168-5.5943-6.75024-5.91388-11.46527l-0.12512.05725L68.0791,36.51025a0.41778,0.41778,0,0,1-.66309.21533l-2.18457-1.79248L64.32129,36.061a0.41286,0.41286,0,0,1-.51758.105l-1.77246-.9502L61.83887,36.9585a0.40217,0.40217,0,0,1-.56543.33838l-2.332-.9375-1.957,1.53516a0.39782,0.39782,0,0,1-.6123-0.11572l-1.752-2.97656a0.4206,0.4206,0,0,1,.41406-0.61963l1.69141,0.23633-0.25281-2.43121a55.32829,55.32829,0,0,1-9.43781-1.0246l0.405,1.4314,2.36377,0.11035a0.4581,0.4581,0,0,1,.32861.68945l-2.77,3.75586a0.41663,0.41663,0,0,1-.73-0.05176l-1.27588-2.37012-1.38184.45459a0.43133,0.43133,0,0,1-.52344-0.21973L42.25586,32.3374l-1.22949.96094a0.42879,0.42879,0,0,1-.61572-0.08447l-1.42529-1.94092L34.75684,33.4873a0.42676,0.42676,0,0,1-.61328-0.51514l0.85205-2.66748L32.853,28.12354a0.44062,0.44062,0,0,1,.36279-0.73291l2.76947,0.34851a44.94794,44.94794,0,0,1-4.36261-1.94781c-3.506,12.17743-5.09589,19.823-13.1272,17.0011-0.22607-.07947-0.84784,12.30133,3.99316,12.52765,0.94746,0.04429,1.81714-.91412,2.1059-1.03583,0.312,0.14948-1.3092,9.54449,8.3006,22.29968,3.93353,5.221,10.05212,6.68872,15.68579,6.25806,5.07343-.29852,8.84583-3.58191,11.19965-6.121C63.41,72.80579,67.35626,60.7002,67.781,58.33929c1.13544-6.31158-.085-1.7381,2.191-1.76477C73.20569,56.53662,74.68329,49.09546,74.47845,46.53986ZM42.38721,27.51025l-1.30078,1.2251a0.4334,0.4334,0,0,1-.59277.00049L37.522,25.95264l0.29785,2.34473a0.42147,0.42147,0,0,1-.48389.48438l-2.99268-.37646,1.45313,1.479a0.43316,0.43316,0,0,1,.10352.43506l-0.61084,1.91211,3.62451-1.89795a0.43416,0.43416,0,0,1,.5498.127l1.38135,1.88135,1.29736-1.01465a0.42328,0.42328,0,0,1,.65479.14941L44.06152,34.043l1.36914-.4502a0.47912,0.47912,0,0,1,.5166.20605l1.12354,2.0874,1.88379-2.5542-1.86621-.08691a0.43361,0.43361,0,0,1-.39648-0.31494l-0.8418-2.97461-1.48926.354a0.43484,0.43484,0,0,1-.4751-0.20459m13.71777,4.75488a0.40465,0.40465,0,0,1-.46973.45215l-1.36621-.19092,1.07813,1.83008,1.77246-1.39062a0.41245,0.41245,0,0,1,.41016-0.05811l2.04785,0.82324,0.2002-1.80957a0.39531,0.39531,0,0,1,.60645-0.31934l2.00977,1.07764,0.95605-1.18555a0.38621,0.38621,0,0,1,.585-0.06006l2.00781,1.64746,0.24707-.94385a0.41285,0.41285,0,0,1,.22852-0.272l1.94043-.88721-1.457-.58643a0.41455,0.41455,0,0,1-.24707-0.48633l0.53223-2.08008-2.34961,2.07324a0.41382,0.41382,0,0,1-.66406-0.17334l-0.627-1.78809-1.63086,1.69141a0.34254,0.34254,0,0,1-.62891-0.04l-1.55469-2.08008-1.084,3.126c-0.06286.29785-.32529,0.41636-0.64062,0.19385l-2.22754-1.69043Zm19.49341,1.27173c-0.08392-.60583-0.15155-1.23-0.18719-1.88257-1.92993-.54816-5.9-1.87244-6.68738-2.0813,0.00146,0.0686.01959,0.3479,0.04236,0.67737L71.05957,33.165a0.42784,0.42784,0,0,1,.01758.76025l-0.6084.27832a18.74037,18.74037,0,0,0,6.61536,1.92212Zm-6.63416-1.24786c0.03333,0.43195.07452,1.36481,0.12329,1.82172,1.972,1.92316,5.49481,3.28314,7.32172,2.94336,0.00531-.001.01117,0.002,0.01654,0.00116a15.93475,15.93475,0,0,1-.52631-1.83435A14.91207,14.91207,0,0,1,70.46277,34.88373Zm0,2.68488c0.28412,9.80316,7.8559,7.8208,9.7915,5.93231a9.89408,9.89408,0,0,1-1.77679-2.5683C75.11072,41.50958,72.118,38.96783,70.46277,37.5686Zm22.09357-8.98907c0.42911-.77826-1.81348.53125-2.10632,0.35571-0.25043-.15015,1.45587-1.43567.94623-1.87976-0.263-.22919-4.22681,1.75165-4.61127,1.49713-0.48584-.32159,2.34875-2.09113,1.96454-2.33331-0.49579-.3125-5.95007,2.10468-6.402,1.4375-0.32208-.47552,1.94525-1.14685,3.77551-2.22821,0.72449-.428,1.09949-0.803-0.56641-1.28217A67.87952,67.87952,0,0,1,72.9621,16.23566C58.6651,4.50867,48.39526,1.866,35.267,6.52484,30.43579,8.23926,25.06543,13.86292,21.41,21.76093a42.54021,42.54021,0,0,0-1.98584,6.1319c0.01239,0.00568,7.44342,2.10693,9.5213,1.49194,0.332-1.48865.53278-2.47974,0.78168-4.305-4.40051-3.73547-4.90729-5.34442-5.08252-5.63586s-0.03741-.60516.968,0.28479a35.28844,35.28844,0,0,0,11.053,6.35663l-0.15436-1.21521a0.42,0.42,0,0,1,.72559-0.37061l2.94568,2.759q0.46216,0.13724.92566,0.2666l1.08325-1.02026a0.40368,0.40368,0,0,1,.67188.09863l0.92694,1.60492a79.5986,79.5986,0,0,0,16.5415,1.96088l0.37238-1.0741a0.42177,0.42177,0,0,1,.72168-0.11182l0.88245,1.18054c0.7439-.01361,1.41821-0.0401,2.01575-0.076l0.592-.61377a0.38673,0.38673,0,0,1,.68848.15088l0.12177,0.34729c0.38275-.04248.70328-0.11183,0.95508-0.13849,1.85208-.1961,9.3703-3.9751,8.10364-2.6145-0.34387.36932-1.29492,1.146-4.76813,3.26C80.25427,34.95833,89.68207,33.79244,92.55634,28.57953Z" transform="translate(-3.71822 -2.02725)"></path><path d="M30.38,16.74942c-0.825.4968,6.73886,7.16861,13.26593,8.12957,6.55291,0.96477,1.1945-.40019-3.43494-1.97538C36.07759,21.49722,31.02368,16.36179,30.38,16.74942Z" transform="translate(-3.71822 -2.02725)"></path><path d="M34.62716,13.55988c-0.86115.61585,6.112,8.93438,20.03159,10.49351,1.12951,0.12652,1.20631-.45686-2.71933-1.48127-8.1643-2.13051-10.498-3.26711-15.07719-7.2922C35.94329,14.47217,35.31772,13.066,34.62716,13.55988Z" transform="translate(-3.71822 -2.02725)"></path></svg>