<?xml version="1.0" encoding="utf-8"?>
<!-- Generator: Adobe Illustrator 18.0.0, SVG Export Plug-In . SVG Version: 6.00 Build 0)  -->
<!DOCTYPE svg PUBLIC "-//W3C//DTD SVG 1.1//EN" "http://www.w3.org/Graphics/SVG/1.1/DTD/svg11.dtd">
<svg version="1.1" id="Layer_1" xmlns="http://www.w3.org/2000/svg" xmlns:xlink="http://www.w3.org/1999/xlink" x="0px" y="0px"
	 viewBox="0 0 413 211.9" enable-background="new 0 0 413 211.9" xml:space="preserve">
<path fill="#0F1031" d="M18.7,117.6h36.8c8.7,0,16,0.9,21.8,2.7c5.8,1.8,10.4,4.3,13.7,7.4c2.8,2.6,4.9,5.6,6.3,9
	c1.4,3.4,2.2,6.9,2.5,10.7c0.3,3.7,0,7.2-0.7,10.6c-0.8,3.4-2.1,6.5-4,9.4c-1.9,2.9-4.5,5.4-7.6,7.7c-3.2,2.2-7,4.1-11.6,5.5
	l15.3,31.4h-34l-12.4-27h-7.8l-5.4,27H0L18.7,117.6z M52.8,162.5c5.3,0,9.2-1.1,11.8-3.2c2.5-2.1,3.7-4.7,3.5-7.6
	c-0.1-2-0.9-3.6-2.4-5c-1.9-1.8-5.1-2.7-9.5-2.7H45l-3.7,18.5H52.8z"/>
<path fill="#0F1031" d="M151.6,116.9h31.3l20.9,95h-33.6l-2.5-12.7h-33l-7.3,12.7H93L151.6,116.9z M164.4,176.9l-4.2-22.9
	l-13.1,22.9H164.4z"/>
<path fill="#0F1031" d="M224.9,117.6h29.5l24.6,45l9-45h31.3l-18.7,94.4h-28L246.8,165l-9.4,46.9h-31.3L224.9,117.6z"/>
<path fill="#0F1031" d="M329.5,117.6h33.4c9.2,0,16.8,1.1,22.9,3.4c6.1,2.2,11.1,5.2,14.9,8.8c7.3,6.8,11.4,16,12.2,27.6
	c0.5,7.1-0.3,13.8-2.5,20.1c-2.2,6.3-5.6,12-10.4,17.1c-5.3,5.7-11.9,10-19.9,12.9c-8,3-17.4,4.4-28.4,4.4h-41L329.5,117.6z
	 M353.3,184.4c4.9,0,9.2-0.7,13-2c3.8-1.3,6.9-3.2,9.1-5.7c1.8-2,3.3-4.4,4.3-7.3c1.1-2.9,1.5-5.8,1.3-8.7c-0.2-2.6-0.7-4.8-1.5-6.5
	c-0.8-1.7-1.9-3.2-3.2-4.4c-1.6-1.5-3.7-2.7-6.2-3.5c-2.5-0.8-5.6-1.2-9.4-1.2h-5.3l-7.8,39.4H353.3z"/>
<path fill="#CB2027" d="M243.3,0c-8.3,37.7-31.6,45.1-31.6,45.1c6.4-6.9,7.4-22.2,7.4-22.2s-7.6,8-26.7,12.3
	c-26.7,6.1-24.4,25.4-24.4,25.4c0,13.6,11,24.3,24.6,24.3h31.1C263,48.2,243.3,0,243.3,0z"/>
<polygon fill="#0F1031" points="238.1,107.8 171,107.8 168.2,93 242.2,93 "/>
</svg>
