<?xml version="1.0" encoding="utf-8"?>
<!-- Generator: Adobe Illustrator 19.0.0, SVG Export Plug-In . SVG Version: 6.00 Build 0)  -->
<svg version="1.1" id="Layer_1" xmlns="http://www.w3.org/2000/svg" xmlns:xlink="http://www.w3.org/1999/xlink" x="0px" y="0px"
	 viewBox="1410 -238.8 3431.7 1269.8" style="enable-background:new 1410 -238.8 3431.7 1269.8;" xml:space="preserve">
<style type="text/css">
	.st0{fill:#283681;}
	.st1{fill:#FDFDFE;}
	.st2{fill:#FEFEFF;}
	.st3{fill:#FEFEFE;}
	.st4{fill:#86181E;}
	.st5{fill:#F9F9FB;}
	.st6{fill:#FAFBFC;}
	.st7{fill:#F8F8FB;}
	.st8{fill:#F7F8FA;}
	.st9{fill:#F8F9FB;}
	.st10{fill:#FBFBFD;}
	.st11{fill:#F9FAFC;}
	.st12{fill:#FAFAFC;}
	.st13{fill:#F4F5F9;}
	.st14{fill:#F7F8FB;}
	.st15{fill:#FBFCFD;}
	.st16{fill:#FFFFFF;}
	.st17{fill:#2B3983;}
	.st18{fill:#2A3781;}
	.st19{fill:#303D85;}
	.st20{fill:#38468B;}
	.st21{fill:#39488C;}
	.st22{fill:#851820;}
</style>
<g id="Layer_2">
	<rect x="1410" y="-238.8" class="st0" width="3431.7" height="1269.8"/>
</g>
<g id="Layer_1_1_">
	<g>
		<path class="st0" d="M4841.3,1030.6c-1144.2,0-2287.8,0-3431.7,0c0-423.2,0-846.4,0-1269.8c1143.7,0,2287.6,0,3431.7,0
			C4841.3,183.9,4841.3,607.1,4841.3,1030.6z M3490.1,36.2c0,120.1,0,239.5,0,359.1c42.1,0,83.6,0,126.1,0c0-74.6,0-148.5,0-222.4
			c0.6-0.1,1.2-0.2,1.8-0.3c27.4,74.5,54.7,148.9,81.9,223c34,0,66.5,0,100,0c27.6-74.6,55.3-149.2,82.9-223.8
			c0.8,0.2,1.7,0.3,2.5,0.5c0,74.3,0,148.6,0,222.7c17.6,0,119.3-0.6,126.4-0.6c0-16.4,1.2-351.3-0.9-358.3c-56.2,0-112.4,0-169,0
			c-10.1,26-20.1,51.7-30.1,77.5c-10.1,26.1-20.1,52.2-30.2,78.2c-9.9,25.4-19.2,51.2-30.6,78c-30.7-79.4-60.5-156.6-90.3-233.6
			C3603.2,36.2,3546.7,36.2,3490.1,36.2z M2637.8,255.5c5.6-1.7,10.2-3.1,14.9-4.6c32-10,53.1-31.1,62.7-63.1
			c8.6-28.5,6.8-56.6-5-84c-13.4-31.1-36.4-51.1-69.5-59.2c-16.9-4.1-34.1-5.9-51.5-5.9c-89.3-0.1-178.6-0.1-267.9-0.1
			c-2.6,0-5.1,0.3-7.8,0.5c0,121.5,0,372.2,0,359c128.6,0,0,0,128.6,0c0,0.8,0-86.3,0-129.7c23.4,0,46,0,68.6,0
			c24.6,43.5,49,86.7,73.3,129.7c47.5,0,94.6,0,143.1,0C2697.2,350.2,2667.7,303.2,2637.8,255.5z M3010.5,36.1
			c-43.4,0-85.6,0-128.2,0c-0.2,3.1-0.5,5.7-0.5,8.3c0,75.3-0.2,150.6,0.1,225.9c0.1,11.6,1.2,23.4,3.8,34.7
			c7.7,33.4,25.3,59.4,56.6,75.8c24.3,12.8,50,20.1,76.9,23.5c49.1,6.2,98.4,6.3,147.5,0.2c29.3-3.6,57.4-11.9,83.1-26.8
			c26.9-15.7,44.4-38.5,51.8-69.1c5.5-22.9,6.7-46.1,6.8-69.4c0.2-64.6,0.1-129.3,0.1-193.9c0-2.9,0.3-6.6,0.1-9.3
			c-128.2,0,0,0-128.9,0c0,3.5,0,8.7,0,12.4c-0.1,65.3,0.1,130.6-0.4,195.9c-0.1,11.2-1.7,22.6-4.2,33.5
			c-4.4,18.4-15.4,32.2-32.7,40.6c-28.4,13.8-57.5,13.5-86.4,3.2c-27.4-9.8-42.1-30.5-44.4-59.6c-0.9-10.6-1.1-21.3-1.1-31.9
			c-0.1-60.6,0-121.3,0-181.9C3010.5,44.5,3010.5,40.9,3010.5,36.1z M4310.5,272.8c5.3,0,8.9,0,12.6,0c40.7-0.1,81.3,0.1,122-0.6
			c26.5-0.4,52.3-5.1,76.4-17.1c26.2-13.1,43.2-34.1,51.2-62c6.4-22.4,7.4-45.5,2.5-68.3c-10.3-48.2-37-74.2-81.1-80.4
			c-23.7-3.3-47.7-5-71.6-5.2c-77.3-0.6-154.6-0.2-231.9-0.2c-2.6,0-5.1,0.3-7.5,0.5c-2,13-1.4,352.8,0.5,359.8
			c42.1,0,84.2,0,127.2,0C4310.5,357,4310.5,315.4,4310.5,272.8z M2025.5,395.5c0-84.8,0-168.6,0-253.2c42.9,0,84.7,0,126.9,0
			c0-36.9,0-73,0-109.1c-129.3,0-257.8,0-386.6,0c0,36.6,0,72.7,0,109.6c43.2,0,85.7,0,129.3,0c0,84.6,0,168.5,0,252.8
			C1938.7,395.5,1981.2,395.5,2025.5,395.5z M3476.1,967c1.3,0.7,1.8,1.2,2.4,1.3c1.6,0.2,3.3,0.4,5,0.4c431,0,861.9,0,1292.9-0.1
			c1,0,2-0.4,2.9-0.6c0.3-0.1,0.5-0.4,0.8-0.6c0.2-0.2,0.5-0.5,1-1.1c0.2-0.9,0.6-2.2,0.6-3.5c0-377.6,0.1-755.3,0.1-1132.9
			c0-1.6-0.4-3.3-0.7-4.9c0-0.3-0.3-0.6-0.5-0.8c-0.2-0.2-0.5-0.5-1-0.9c-1-0.2-2.3-0.5-3.6-0.5c-430.6,0-861.3,0-1291.9,0
			c-1.3,0-2.6,0.3-3.9,0.6c-0.3,0.1-0.6,0.3-0.8,0.5c-0.3,0.2-0.5,0.5-0.6,0.5c0,6,0,11.7,0,18.2c43.7,0,86.3,0,128.9,0
			c42.7,0,85.3,0,128,0c43,0,86,0,129,0c42.7,0,85.3,0,128,0s85.3,0,128,0c42.7,0,85.3,0,128,0c42.7,0,85.3,0,128,0c43,0,86,0,129,0
			c42.7,0,85.3-0.1,128,0c42.5,0.1,85-0.5,127.3,0.4c0.5,2.8,1,4.1,1,5.4c0.1,364.6,0.1,729.3,0.1,1093.9c0,2-0.4,3.9-0.7,5.9
			c0,0.3-0.3,0.6-0.5,0.9c-0.2,0.3-0.5,0.4-2.1,1.9c-426.4,0-854.2,0-1282.6,0C3476.1,957.2,3476.1,962.3,3476.1,967z M2776.8,948.7
			c-5.6,0-10.5,0-15.4,0c-417.3,0-834.6,0-1251.9,0c-3.3,0-6.7,0.1-10-0.1c-2.5-0.1-5.1-0.6-7.4-1c-0.5-1.7-1-2.7-1-3.6
			c-0.1-364-0.2-728-0.2-1091.9c0-2.3,0.4-4.6,0.7-6.9c0-0.3,0.2-0.6,0.4-0.9c0.2-0.3,0.5-0.4,2-1.8c23.6,0,48.6,0,73.5,0
			c25.3,0,50.7,0,76,0c25,0,50,0,75,0c25.3,0,50.7,0,76,0c25,0,50,0,75,0s50,0,75,0c25.3,0,50.7,0,76,0c25,0,50,0,75,0
			c25.3,0,50.7,0,76,0c25,0,50,0,75,0c25.3,0,50.7,0,76,0c25,0,50,0,75,0s50,0,75,0c25.3,0,50.7,0,76,0c25,0,50,0,75,0
			c25.3,0,50.7,0,76,0c24.9,0,49.7,0.2,74.8-0.2c0-7.2,0-13.9,0-19.5c-2,0-2.8,0-3.7,0c-430.3-0.1-860.6-0.2-1290.9-0.3
			c-2,0-4,0.4-5.9,0.6c-0.3,0-0.6,0.3-0.8,0.5c-0.3,0.2-0.5,0.5-0.7,0.7c-2,12-1.4,1134.1,0.7,1141.8c434.3,0,868.8,0,1303.9,0
			C2776.8,960.3,2776.8,955.2,2776.8,948.7z M1895.6,763.5c-3.9-43.6-7.8-85.9-11.6-128.2c-12.1,0-23,0-34.4,0
			c-7.1,25.9-14,51.4-21,77c-0.5,0.1-0.9,0.2-1.4,0.2c-6.8-25.8-13.7-51.6-20.5-77.4c-11.5,0-22.1,0-33.6,0
			c-4.2,42.8-8.3,85.3-11.9,128c9.5,0,17.6,0,26,0c1.8-26.5,3.6-52.3,5.4-78.1c0.6,0,1.2-0.1,1.8-0.1c7.1,26.1,14.3,52.3,21.4,78.6
			c8,0,15.2,0,23.1,0c7.7-26.4,15.4-52.7,23.1-78.9c0.7,0.1,1.4,0.2,2.1,0.2c1.9,26.1,3.8,52.1,5.7,78.5
			C1878.6,763.5,1886.4,763.5,1895.6,763.5z M2568.5,636.8c-7.1,25.9-14.1,51.6-21.7,79.3c-7.4-28.2-14.2-53.8-20.9-79.2
			c-11.8,0-22.6,0-33.9,0c-4,42.6-7.9,84.6-11.9,127.2c9,0,17.4,0,26.2,0c1.8-26.8,3.6-52.9,5.4-79.1c0.5,0,1,0,1.5,0
			c7.2,26.5,14.4,53.1,21.5,79.1c8.5,0,16,0,23.5,0c7.9-27,15.5-53.3,23.2-79.7c0.6,0.1,1.1,0.2,1.7,0.3c1.9,26.6,3.9,53.2,5.8,79.5
			c9.3,0,17.1,0,25.6,0c-3.8-42.7-7.6-84.8-11.4-127.3C2591.3,636.8,2580.2,636.8,2568.5,636.8z M4492.8,763.6
			c0-43.3,0-85.4,0-128.2c-8,0-15.5,0-23.5,0c0,25.3,0,50.4,0,76.9c-12.6-26.8-24.6-52.1-36.2-76.7c-10.5,0-19.6,0-28.7,0
			c0,43,0,85.1,0,127.7c8.4,0,16.2,0,24.1,0c0-27.6,0-54.5,0-81.4c7.1,13.3,13.1,26.9,19.1,40.4c6.2,13.9,12.5,27.8,18.5,41.2
			C4475.4,763.6,4483.7,763.6,4492.8,763.6z M3475.3,710.4c5.4-4.1,12.3-7.4,16.6-12.7c10.6-13.1,11.1-28.3,4.4-43.3
			c-6.1-13.6-18.2-18.9-32.5-19.3c-13.6-0.4-27.3-0.2-40.9-0.2c-2.5,0-5.1,0.4-7.4,0.5c0,128,0,0,0,128c7.5,0,15.5,0.1,24.4,0.1
			c0-17.8,0-35.1,0-53.1c8.8,3,11.9,9.5,15.4,15.3c6.3,10.6,12,21.5,18.2,32.1c1.3,2.2,2.3,3.8,3.4,5.6c29.2,0,1,0,31.5,0
			C3497.4,745.9,3485.4,726.8,3475.3,710.4z M2793.4,764.3c0.2-17,0.4-34.3,0.5-52.3c2.5,0.7,4,0.6,4.8,1.4
			c14.8,14.5,20.3,34.9,32.2,50.6c10.1,0,19.8,0,30.8,0c-11.5-18.6-22.3-36.1-33.3-54c12.8-2.9,20.4-11.3,23.8-23.1
			c1.7-5.9,1.9-12.5,1.5-18.7c-1.1-15.9-12.1-29.4-27.8-30.7c-18.8-1.6-37.8-0.4-57-0.4c0,42.5,0,84.6,0,127.3
			C2776.9,764.3,2784.4,764.3,2793.4,764.3z M3372.5,754c0-10.6,0.1-20.5,0-30.5c-0.1-10.1,0.3-20.3-0.3-30.1c-17.2,0-33,0-49.5,0
			c1.1,7,2.1,13.2,3.2,19.9c6.5,0.3,12.7,0.7,19.2,1c0,9.9,0,19.1,0,28.2c-6.6,3.5-13.2,3.5-19.9,2.7c-9.8-1.3-17-6.5-19.9-15.9
			c-6-19.6-5.9-39.5,0.9-58.9c3.7-10.4,12.1-15.3,23.3-15.7c10.5-0.5,19.3,3.9,28.1,9.3c2.5-2.8,4.8-5.2,6.9-7.7
			c2.2-2.7,4.3-5.4,6.5-8.1c-36.5-29.9-86.2-13.5-96.6,31c-3.7,15.8-3.6,31.8,1.3,47.4c6,19.1,18.1,32.8,38.2,37.1
			C3334,767.9,3353.5,765,3372.5,754z M2090.3,703.1c0.8-0.2,1.5-0.4,2.3-0.6c12.1,20.7,24.3,41.5,36,61.5c11.7,0,22.4,0,34.2,0
			c-15.5-23.4-30.2-45.8-44.9-68.1c13.6-19.8,26.7-38.9,40.6-59.1c-11.8,0-21.9,0-32.1,0c-11.4,18.1-22.6,36-33.8,53.9
			c-0.8-0.2-1.5-0.4-2.3-0.6c0-17.7,0-35.4,0-53.2c-9.4,0-17.6,0-26.2,0c0,42.7,0,84.8,0,127.5c8.6,0,16.8,0,26.3,0
			C2090.3,743.8,2090.3,723.4,2090.3,703.1z M4156.1,648.4c-30.1-26.3-76.5-17.6-92,17.1c-9.9,22.2-10,45.4-0.7,68
			c7.1,17.2,20.3,28,38.8,30.9c12.9,2.1,25.9,1.6,38.5-2.9c5.8-2.1,11.4-4.8,16.3-7c0-21.3,0-41.2,0-61.3c-16.6,0-32.7,0-49.4,0
			c1.3,7.2,2.5,13.6,3.6,19.9c7.1,0.4,13.2,0.8,19.1,1.1c0,10.2,0,19.1,0,27.7c-20,9.1-37.8,1.1-41.9-19.2
			c-3.1-15.1-3-30.5,0.6-45.6c4.5-18.5,17.8-26.3,36.1-21.5c3.8,1,7.4,2.8,11,4.5c2.3,1,4.5,2.4,6.9,3.7
			C4147.5,658.5,4151.6,653.8,4156.1,648.4z M2383.6,635c-14,42.9-27.9,85.4-41.9,128.5c9.9,0,18.5,0,27.2,0
			c3.2-10.2,6.3-19.9,9.4-29.8c12.6,0,24.4,0,36.8,0c3.3,10.2,6.6,20.2,9.7,29.6c9.6,0,18,0,27.6,0c-13.6-43.4-26.9-85.7-40.3-128.3
			C2402.5,635,2393.6,635,2383.6,635z M4298.5,763.7c-13.8-43.9-27.2-86.5-40.4-128.7c-10.1,0-19,0-28.4,0
			c-14,42.7-27.8,85.2-42,128.5c9.9,0,18.4,0,27.2,0c3.2-10.1,6.2-19.8,9.4-29.8c12.4,0,24.3,0,36.8,0c3.3,10,6.5,20,9.8,30
			C4279.9,763.7,4288.2,763.7,4298.5,763.7z M1964.6,635c-14.1,43.1-27.9,85.3-41.9,128.5c9.7,0,18.2,0,27.2,0
			c3.2-10.1,6.4-20.1,9.4-29.5c13.1,0,24.9,0,37,0c3.3,10.3,6.5,19.7,9.7,29.8c27.6,0,0.3,0,27.7,0c-13.6-43.1-27.4-86.4-40.7-128.7
			C1983.2,635,1974.3,635,1964.6,635z M3945.8,763.6c3.3-10.4,6.4-20.1,9.5-29.9c12.6,0,24.5,0,36.8,0c3.4,10.2,6.6,20.2,9.7,29.6
			c9.6,0,18,0,27.6,0c-13.7-43.5-27.1-86.1-40.3-128.3c-10.2,0-19.1,0-28.5,0c-14,42.8-27.8,85.3-42,128.5
			C3928.4,763.6,3936.6,763.6,3945.8,763.6z M3191.4,763.6c-13.8-43.9-27.1-86.2-40.4-128.4c-10,0-19.1,0-28.6,0
			c-13.7,43-28.3,85.2-41.6,128.4c9.8,0,18,0,26.8,0c3.3-10.1,6.5-20.1,9.6-29.8c12.9,0,24.7,0,36.9,0c3.3,10.2,6.4,19.9,9.6,29.8
			C3172.9,763.6,3181.5,763.6,3191.4,763.6z M3753.5,763.7c-13.8-43.9-27.2-86.5-40.4-128.6c-10.2,0-19.1,0-28.4,0
			c-14,42.8-27.8,85.2-41.9,128.3c9.9,0,18.4,0,27.2,0c3.2-10.2,6.3-19.9,9.4-29.7c12.6,0,24.5,0,36.8,0c3.4,10.2,6.6,20.2,9.8,30
			C3735.1,763.7,3743.4,763.7,3753.5,763.7z M3545,635.4c0,42.9,0,85.4,0,127.7c23,0,64.3-0.2,74.1-0.2c0-6.5-0.1-13.7-0.1-21.4
			c-15.9,0-31.4,0-47.4,0c0-11.9,0-22.8,0-34.5c11.9,0,23.4,0,35,0c0-7.3,0-13.8,0-20.9c-11.9,0-23.2,0-34.8,0c0-10.2,0-19.6,0-29.9
			c14.6,0,28.4,0,42.7,0c1.1-7.2,2.1-13.7,3.2-20.8C3593.1,635.4,3569.3,635.4,3545,635.4z M2685.5,657.1c14.7,0,28.6,0,43.1,0
			c1.1-7.1,2.1-13.5,3.1-20.4c-24.8,0-48.6,0-72.6,0c0,42.9,0,85.2,0,127.5c73.9,0,0-0.3,73.9-0.3c0-6.6,0-13.7,0-21.3
			c-15.9,0-31.4,0-47.3,0c0-11.8,0-22.6,0-34.5c11.9,0,23.4,0,35,0c0-7.6,0-14,0-21.5c-12.1,0-23.6,0-35.1,0
			C2685.5,676.6,2685.5,667.6,2685.5,657.1z M2220.3,708c12.2,0,23.7,0,35.2,0c0-7.6,0-14.1,0-21.6c-12.1,0-23.6,0-34.8,0
			c0-10.1,0-19.3,0-29.2c14.6,0,28.5,0,43,0c1.1-7.1,2-13.5,3.1-20.4c-24.7,0-48.5,0-72.7,0c0,42.7,0,84.8,0,127.4
			c24.9,0,49.3,0,74,0c0-7.4,0-14.2,0-21.9c-16.1,0-31.6,0-47.6,0C2220.3,730.9,2220.3,720.4,2220.3,708z M3056.6,642.3
			c-4.3-2.4-7.5-4.7-11.1-6c-28.8-10.7-62.2,0.7-74.2,31.9c-7,18.2-7.9,37.1-3.1,56c6,23.5,23.1,38.7,46.8,41.7
			c16,2,30.9-0.9,44.1-11.8c-3.6-5-6.7-9.3-9.9-13.6c-0.6-0.7-1.5-1.2-2.4-1.9c-3.3,1.7-6.4,3.6-9.7,5c-15.9,6.6-32.7,0.4-37.8-15.3
			c-6.2-19.1-6.4-38.8,0.2-57.9c4.7-13.5,16.3-19.4,30.3-16.3c5.1,1.1,9.9,3.4,15.4,5.4C3048.6,654.3,3052.1,649.1,3056.6,642.3z
			 M3793.9,656.7c0,36.4,0,71.5,0,106.6c9.2,0,17.4,0,26.2,0c0-12.3,0-23.9,0-35.6c0-12-0.2-24,0.1-36c0.2-11.5-1.1-23,0.9-35.1
			c10.2,0,19.8,0,29.8,0c1.4-7.3,2.7-14,4-20.7c-16.9,0-85.3-0.1-92.2-0.1c0,6.5,0,13.7,0,20.8
			C3772.8,656.7,3782.4,656.7,3793.9,656.7z M4357.1,763.4c2-21,1.1-121.1-0.9-127.8c-8.2,0-16.4,0-24.6,0c0,42.9,0,85.1,0,127.8
			C4340.2,763.4,4348.3,763.4,4357.1,763.4z M2897.7,636.7c0,42.8,0,85,0,127.3c9,0,17.4,0,25.5,0c0-42.8,0-84.9,0-127.3
			C2914.4,636.7,2906.3,636.7,2897.7,636.7z M4563.6,724.6c1.8-30.4,3.4-59.8,5.2-90.2c-10.6,1.6-19.9,3-30,4.5
			c2,29.2,3.8,57.4,5.7,85.7C4551.6,724.6,4557.1,724.6,4563.6,724.6z M4569.5,752.8c-0.1-8.6-6.5-15.1-15-15.2
			c-9.1-0.1-15.4,6.3-15.4,15.7c0.1,8.9,6.1,15.2,14.8,15.2C4562.8,768.5,4569.6,761.7,4569.5,752.8z"/>
		<path class="st1" d="M3490.2,36.1c170.5,0,0,0,170.5,0c29.8,77,59.6,154.2,90.3,233.6c11.4-26.8,20.7-52.5,30.6-78
			c10.2-26,20.1-52.2,30.2-78.2c10-25.7,20-51.4,30.1-77.5c56.6,0,113.7,0,169.9,0c0,359.5,0,0.6,0,358.9c-126.4,0,0,0-126.4,0
			c0-74.1,0-148.4,0-222.7c-0.8-0.2-1.7-0.3-2.5-0.5c-27.6,74.6-55.2,149.2-82.9,223.8c-33.4,0-66,0-100,0
			c-27.2-74.1-54.6-148.5-81.9-223c-0.6,0.1-1.2,0.2-1.8,0.3c0,73.9,0,147.8,0,222.4c-42.5,0-84,0-126.1,0
			C3490.2,275.6,3490.2,156.2,3490.2,36.1z"/>
		<path class="st2" d="M2637.9,255.4c29.9,47.7,59.4,94.7,89.5,142.7c-48.5,0-95.6,0-143.1,0c-24.3-43-48.7-86.2-73.3-129.7
			c-22.7,0-45.2,0-68.6,0c0,43,0,85.9,0,128.5c-128.6,0,0.1,0-128.6,0c0-119.4,0-237.8,0-357.8c2.7-0.2,5.3-0.5,7.8-0.5
			c89.3,0,178.6,0.1,267.9,0.1c17.4,0,34.5,1.8,51.5,5.9c33.1,8.1,56.1,28.1,69.5,59.2c11.8,27.4,13.6,55.5,5,84
			c-9.6,32-30.7,53.1-62.7,63.1C2648.1,252.3,2643.5,253.7,2637.9,255.4z M2442.6,120.8c0,21.9,0,43.2,0,64.8c2,0.2,3.3,0.5,4.6,0.5
			c33.9,0,67.8,0.1,101.7-0.1c6.6-0.1,13.3-1.1,19.6-2.8c16.4-4.6,23.6-14.9,22.8-31.6c-0.7-15-10.1-26.4-25.2-29.3
			c-7.1-1.4-14.5-1.9-21.8-1.9c-30.9-0.2-61.8-0.1-92.8-0.1C2448.7,120.4,2445.8,120.6,2442.6,120.8z"/>
		<path class="st1" d="M3010.6,35.3c0,4.7,0.1,9.1,0.1,12.7c0,60.6-0.1,121.3,0,181.9c0,10.7,0.3,21.3,1.1,31.9
			c2.4,29,17,49.8,44.4,59.6c28.9,10.3,58,10.5,86.4-3.2c17.3-8.4,28.3-22.2,32.7-40.6c2.6-10.9,4.2-22.3,4.2-33.5
			c0.4-65.3,0.3-130.6,0.4-195.9c0-3.6,0-8.8,0-12.3c128.8,0,0,0,128.8,0c0.2,2.7-0.1,6.3-0.1,9.2c0,64.6,0.2,129.3-0.1,193.9
			c-0.1,23.3-1.3,46.6-6.8,69.4c-7.3,30.6-24.8,53.4-51.8,69.1c-25.7,14.9-53.8,23.2-83.1,26.8c-49.1,6.1-98.4,6-147.5-0.2
			c-26.8-3.4-52.6-10.7-76.9-23.5c-31.2-16.4-48.9-42.4-56.6-75.8c-2.6-11.3-3.8-23.1-3.8-34.7c-0.3-75.3-0.2-150.6-0.1-225.9
			c0-2.6-0.2-5.8,0-8.9C2932.5,35.3,2967.1,35.3,3010.6,35.3z"/>
		<path class="st1" d="M4310.6,272.7c0,42.7,0,84.2,0,126.5c-42.9,0-85.1,0-127.2,0c0-176.5-0.5-292-0.5-359.8
			c2.4-0.2,5-0.5,7.5-0.5c77.3,0,154.6-0.4,231.9,0.2c23.9,0.2,48,1.9,71.6,5.2c44.1,6.2,70.8,32.2,81.1,80.4
			c4.9,22.8,3.9,45.8-2.5,68.3c-8,28-25,48.9-51.2,62c-24,12-49.9,16.7-76.4,17.1c-40.6,0.7-81.3,0.4-122,0.6
			C4319.5,272.7,4315.9,272.7,4310.6,272.7z M4310.9,190.8c2.3,0.3,3.6,0.6,4.9,0.6c29.3,0,58.6,0.2,87.9-0.1
			c7.2-0.1,14.7-0.9,21.6-2.9c16.8-4.9,24.4-17,23.1-34.9c-1.3-17.1-11.7-28.8-28.1-31.4c-4.6-0.7-9.3-1.2-13.9-1.3
			c-30-0.2-59.9-0.2-89.9-0.2c-1.8,0-3.7,0.6-5.6,1C4310.9,144.8,4310.9,167.4,4310.9,190.8z"/>
		<path class="st3" d="M2025.6,395.4c-44.3,0-86.8,0-130.4,0c0-84.3,0-168.1,0-252.8c-43.6,0-86.1,0-129.3,0c0-36.9,0-73,0-109.6
			c128.8,0,257.3,0,386.6,0c0,36.1,0,72.2,0,109.1c-42.2,0-84,0-126.9,0C2025.6,226.8,2025.6,310.6,2025.6,395.4z"/>
		<path class="st4" d="M3484.1-177.4c430.6,0,861.3,0,1291.9,0c1.3,0,2.6,0.4,3.6,0.5c0.5,0.5,0.8,0.7,1,0.9
			c0.2,0.2,0.5,0.5,0.5,0.8c0.3,1.6,0.7,3.3,0.7,4.9c0,377.6,0,755.3-0.1,1132.9c0,1.3-0.4,2.6-0.6,3.5c-0.5,0.6-0.7,0.8-1,1.1
			c-0.2,0.2-0.5,0.5-0.8,0.6c-1,0.3-1.9,0.6-2.9,0.6c-431,0.1-861.9,0.1-1292.9,0.1c-1.7,0-5,0-5,0h-2.3c0-4.7,0-11.4,0-17.7
			c428.4,0,856.2,0,1282.6,0c1.6-1.4,1.9-1.6,2.1-1.9c0.2-0.2,0.4-0.6,0.5-0.9c0.3-2,0.7-3.9,0.7-5.9c0-364.6,0-729.3-0.1-1093.9
			c0-1.3-0.5-2.6-1-5.4c-42.3-0.9-84.8-0.3-127.3-0.4c-42.7-0.1-85.3,0-128,0c-43,0-86,0-129,0c-42.7,0-85.3,0-128,0
			c-42.7,0-85.3,0-128,0c-42.7,0-85.3,0-128,0s-85.3,0-128,0c-43,0-86,0-129,0c-42.7,0-85.3,0-128,0c-42.6,0-85.3,0-128.9,0
			c0-6.5,0-13.8,0-19.8"/>
		<path class="st4" d="M2776.9,948.5c0,6.4,0,11.6,0,17.4c-435.1,0-869.5,0-1303.9,0c-2.1-7.7-2.7-1129.8-0.7-1141.8
			c0.2-0.2,0.5-0.5,0.7-0.7c0.3-0.2,0.5-0.4,0.8-0.5c2-0.2,4-0.6,5.9-0.6c430.3,0.1,860.6,0.2,1290.9,0.3c0.9,0,1.6,0,3.7,0
			c0,5.6,0,12.3,0,19.5c-25.1,0.4-50,0.1-74.8,0.2c-25.3,0-50.7,0-76,0c-25,0-50,0-75,0c-25.3,0-50.7,0-76,0c-25,0-50,0-75,0
			s-50,0-75,0c-25.3,0-50.7,0-76,0c-25,0-50,0-75,0c-25.3,0-50.7,0-76,0c-25,0-50,0-75,0c-25.3,0-50.7,0-76,0c-25,0-50,0-75,0
			s-50,0-75,0c-25.3,0-50.7,0-76,0c-25,0-50,0-75,0c-25.3,0-50.7,0-76,0c-24.9,0-49.9,0-73.5,0c-1.5,1.3-1.8,1.5-2,1.8
			c-0.2,0.3-0.4,0.6-0.4,0.9c-0.3,2.3-0.7,4.6-0.7,6.9c0,364,0.1,728,0.2,1091.9c0,1,0.5,1.9,1,3.6c2.3,0.3,4.8,0.8,7.4,1
			c3.3,0.2,6.7,0.1,10,0.1c417.3,0,834.6,0,1251.9,0C2776.9,948.5,2771.3,948.5,2776.9,948.5z"/>
		<path class="st5" d="M1895.7,763.4c-9.2,0-17,0-25.7,0c-1.9-26.4-3.8-52.5-5.7-78.5c-0.7-0.1-1.4-0.2-2.1-0.2
			c-7.7,26.2-15.3,52.5-23.1,78.9c-7.9,0-15.1,0-23.1,0c-7.2-26.3-14.3-52.4-21.4-78.6c-0.6,0-1.2,0.1-1.8,0.1
			c-1.8,25.8-3.6,51.5-5.4,78.1c-8.5,0-16.5,0-26,0c3.6-42.7,7.7-85.2,11.9-128c11.4,0,22,0,33.6,0c6.8,25.8,13.7,51.6,20.5,77.4
			c0.5-0.1,0.9-0.2,1.4-0.2c7-25.6,13.9-51.1,21-77c11.4,0,22.2,0,34.4,0C1887.9,677.6,1891.8,719.9,1895.7,763.4z"/>
		<path class="st6" d="M2568.6,636.7c11.6,0,22.8,0,34.6,0c3.8,42.6,7.6,84.6,11.4,127.3c-8.5,0-16.4,0-25.6,0
			c-1.9-26.3-3.8-52.9-5.8-79.5c-0.6-0.1-1.1-0.2-1.7-0.3c-7.7,26.3-15.3,52.7-23.2,79.7c-7.4,0-15,0-23.5,0
			c-7.1-26.1-14.3-52.6-21.5-79.1c-0.5,0-1,0-1.5,0c-1.8,26.1-3.6,52.3-5.4,79.1c-8.8,0-17.2,0-26.2,0c4-42.5,7.9-84.5,11.9-127.2
			c11.3,0,22.1,0,33.9,0c6.7,25.4,13.5,51.1,20.9,79.2C2554.5,688.3,2561.5,662.6,2568.6,636.7z"/>
		<path class="st7" d="M4492.9,763.5c-9.1,0-17.4,0-26.8,0c-6.1-13.5-12.4-27.3-18.5-41.2c-6-13.6-12-27.2-19.1-40.4
			c0,26.9,0,53.8,0,81.4c-7.9,0-15.7,0-24.1,0c0-42.6,0-84.7,0-127.7c9.1,0,18.3,0,28.7,0c11.6,24.6,23.6,49.9,36.2,76.7
			c0-26.5,0-51.6,0-76.9c8,0,15.5,0,23.5,0C4492.9,678.1,4492.9,720.3,4492.9,763.5z"/>
		<path class="st8" d="M3475.3,710.3c10.1,16.3,22,35.6,33,53.2c-31.5,0-1.5,0-31.5,0c-2.1-3.7-2.1-3.7-3.4-5.9
			c-6.1-10.7-11.9-21.6-18.2-32.1c-3.5-5.8-6.6-12.3-15.4-15.3c0,18.1,0,35.6,0,53.3c-24.4,0-16.9,0-24.4,0c0-42.7,0-0.2,0-128.3
			c2.4-0.2,4.9-0.5,7.4-0.5c13.6,0,27.3-0.2,40.9,0.2c14.2,0.4,26.4,5.7,32.5,19.3c6.7,14.9,6.3,30.2-4.4,43.3
			C3487.5,703,3480.7,706.3,3475.3,710.3z M3439.9,691c7.8-0.7,14.7-0.6,21.4-2c7.9-1.6,11.3-6.9,11.5-15.2
			c0.2-8.6-3.6-14.5-11.4-16.5c-7-1.7-14.1-2.1-21.5-0.6C3439.9,668,3439.9,678.5,3439.9,691z"/>
		<path class="st9" d="M2793.5,764.2c-8.9,0-16.5,0-24.5,0c0-42.7,0-84.8,0-127.3c19.3,0,38.3-1.2,57,0.4
			c15.7,1.3,26.8,14.8,27.8,30.7c0.4,6.2,0.2,12.8-1.5,18.7c-3.3,11.9-11,20.3-23.8,23.1c11.1,17.9,21.8,35.3,33.3,54
			c-11,0-20.7,0-30.8,0c-11.9-15.7-17.4-36.2-32.2-50.6c-0.8-0.8-2.4-0.7-4.8-1.4C2793.8,729.9,2793.6,747.2,2793.5,764.2z
			 M2794.2,691.7c7.1-0.4,13.4-0.3,19.5-1.2c8.5-1.3,12.6-6.4,13.1-14.9c0.5-9-3.3-15.3-11.7-17.1c-6.6-1.4-13.5-1.5-21-2.2
			C2794.2,668.4,2794.2,679.1,2794.2,691.7z"/>
		<path class="st9" d="M3372.6,753.9c-19,11.1-38.5,13.9-58.7,9.6c-20.1-4.3-32.2-18-38.2-37.1c-4.9-15.6-5-31.6-1.3-47.4
			c10.4-44.5,60.2-61,96.6-31c-2.1,2.7-4.2,5.5-6.5,8.1c-2.1,2.5-4.4,4.9-6.9,7.7c-8.8-5.4-17.6-9.7-28.1-9.3
			c-11.2,0.5-19.6,5.4-23.3,15.7c-6.8,19.4-6.9,39.2-0.9,58.9c2.9,9.4,10.1,14.6,19.9,15.9c6.7,0.9,13.3,0.9,19.9-2.7
			c0-9.1,0-18.3,0-28.2c-6.5-0.3-12.6-0.6-19.2-1c-1.1-6.7-2.1-12.9-3.2-19.9c16.5,0,32.3,0,49.5,0c0.6,9.8,0.2,20,0.3,30.1
			C3372.7,733.3,3372.6,743.3,3372.6,753.9z"/>
		<path class="st10" d="M2090.4,703c0,20.4,0,40.7,0,61.2c-9.4,0-17.6,0-26.3,0c0-42.6,0-84.8,0-127.5c8.6,0,16.8,0,26.2,0
			c0,17.9,0,35.5,0,53.2c0.8,0.2,1.5,0.4,2.3,0.6c11.2-17.9,22.4-35.7,33.8-53.9c10.1,0,20.3,0,32.1,0c-13.9,20.2-27,39.3-40.6,59.1
			c14.7,22.3,29.5,44.7,44.9,68.1c-11.8,0-22.5,0-34.2,0c-11.7-20.1-23.9-40.8-36-61.5C2091.9,702.6,2091.2,702.8,2090.4,703z"/>
		<path class="st11" d="M4156.2,648.3c-4.5,5.3-8.6,10.1-13.1,15.4c-2.5-1.3-4.6-2.7-6.9-3.7c-3.6-1.6-7.2-3.5-11-4.5
			c-18.3-4.8-31.6,3-36.1,21.5c-3.6,15.1-3.7,30.5-0.6,45.6c4.2,20.3,21.9,28.3,41.9,19.2c0-8.6,0-17.5,0-27.7
			c-5.9-0.3-12-0.7-19.1-1.1c-1.2-6.3-2.3-12.7-3.6-19.9c16.7,0,32.8,0,49.4,0c0,20.1,0,40,0,61.3c-4.9,2.1-10.5,4.9-16.3,7
			c-12.5,4.4-25.6,4.9-38.5,2.9c-18.5-3-31.7-13.7-38.8-30.9c-9.3-22.6-9.2-45.7,0.7-68C4079.7,630.7,4126.1,622,4156.2,648.3z"/>
		<path class="st12" d="M2383.7,634.9c10,0,18.9,0,28.4,0c13.4,42.5,26.7,84.9,40.3,128.3c-9.6,0-18,0-27.6,0
			c-3.1-9.4-6.3-19.4-9.7-29.6c-12.4,0-24.2,0-36.8,0c-3.1,9.9-6.2,19.6-9.4,29.8c-8.8,0-17.3,0-27.2,0
			C2355.8,720.3,2369.7,677.8,2383.7,634.9z M2408.7,711.4c-3.9-15.4-7.5-29.7-11.1-43.9c-0.5,0.1-0.9,0.1-1.4,0.2
			c-3.7,14.3-7.4,28.6-11.3,43.7C2393,711.4,2400.2,711.4,2408.7,711.4z"/>
		<path class="st12" d="M4298.6,763.6c-10.3,0-18.5,0-27.6,0c-3.3-10-6.5-20-9.8-30c-12.6,0-24.4,0-36.8,0
			c-3.2,10-6.2,19.8-9.4,29.8c-8.9,0-17.4,0-27.2,0c14.1-43.3,28-85.8,42-128.5c9.3,0,18.3,0,28.4,0
			C4271.4,677.1,4284.8,719.7,4298.6,763.6z M4254.7,711.5c-3.8-15.1-7.4-29.5-11.1-43.9c-0.5,0.1-1,0.2-1.5,0.3
			c-3.7,14.3-7.3,28.7-11.2,43.6C4239.2,711.5,4246.4,711.5,4254.7,711.5z"/>
		<path class="st12" d="M1964.7,634.9c9.7,0,18.6,0,28.4,0c13.3,42.3,27,85.9,40.6,129c-27.7,0-0.4,0-27.7,0
			c-3.2-10.1-6.3-19.8-9.6-30.1c-12,0-23.9,0-37,0c-3,9.5-6.2,19.4-9.4,29.5c-9,0-17.5,0-27.2,0
			C1936.9,720.2,1950.6,678,1964.7,634.9z M1989.7,711.4c-3.7-14.9-7.3-29.2-10.8-43.4c-0.5,0-1.1-0.1-1.6-0.1
			c-3.8,14.3-7.5,28.5-11.5,43.5C1974,711.4,1981.4,711.4,1989.7,711.4z"/>
		<path class="st12" d="M3945.9,763.5c-9.2,0-17.5,0-27.2,0c14.1-43.3,28-85.8,42-128.5c9.4,0,18.3,0,28.5,0
			c13.3,42.1,26.6,84.7,40.3,128.3c-9.5,0-18,0-27.6,0c-3.1-9.4-6.3-19.4-9.7-29.6c-12.3,0-24.2,0-36.8,0
			C3952.3,743.4,3949.2,753.2,3945.9,763.5z M3985.8,711.6c-3.9-15.5-7.4-29.6-10.9-43.7c-0.5-0.1-1-0.2-1.5-0.3
			c-3.8,14.5-7.6,28.9-11.6,44C3970.2,711.6,3977.5,711.6,3985.8,711.6z"/>
		<path class="st12" d="M3191.5,763.5c-10,0-18.5,0-27.6,0c-3.2-9.8-6.3-19.6-9.6-29.8c-12.1,0-24,0-36.9,0
			c-3.1,9.7-6.3,19.6-9.6,29.8c-8.8,0-17.1,0-26.8,0c13.3-43.3,27.9-85.4,41.6-128.4c9.5,0,18.6,0,28.6,0
			C3164.4,677.3,3177.8,719.7,3191.5,763.5z M3147.7,711.5c-3.7-14.9-7.3-29.3-10.8-43.6c-0.5-0.1-1.1-0.1-1.6-0.2
			c-3.8,14.4-7.5,28.9-11.4,43.8C3132.3,711.5,3139.5,711.5,3147.7,711.5z"/>
		<path class="st12" d="M3753.6,763.6c-10.1,0-18.3,0-27.5,0c-3.2-9.8-6.5-19.8-9.8-30c-12.3,0-24.2,0-36.8,0
			c-3.1,9.8-6.2,19.6-9.4,29.7c-8.8,0-17.3,0-27.2,0c14.1-43.1,27.9-85.6,41.9-128.3c9.4,0,18.3,0,28.4,0
			C3726.4,677.2,3739.8,719.7,3753.6,763.6z M3698.9,668c-0.5-0.1-1-0.2-1.6-0.2c-3.8,14.4-7.6,28.9-11.5,43.8c8.5,0,15.7,0,23.9,0
			C3706,696.6,3702.4,682.3,3698.9,668z"/>
		<path class="st13" d="M3545.1,635.3c24.2,0,48,0,72.7,0c-1.1,7.1-2.1,13.6-3.2,20.8c-14.3,0-28.2,0-42.7,0c0,10.3,0,19.7,0,29.9
			c11.6,0,22.8,0,34.8,0c0,7.1,0,13.6,0,20.9c-11.6,0-23.1,0-35,0c0,11.7,0,22.6,0,34.5c16,0,31.5,0,47.4,0c0,7.7,0,15,0,21.6
			c-74,0,0,0-74,0C3545.1,720.7,3545.1,678.2,3545.1,635.3z"/>
		<path class="st14" d="M2685.6,657c0,10.5,0,19.4,0,29.4c11.6,0,23,0,35.1,0c0,7.5,0,14,0,21.5c-11.6,0-23,0-35,0
			c0,11.9,0,22.7,0,34.5c15.9,0,31.4,0,47.3,0c0,7.5,0,15,0,21.6c-73.9,0,0,0-73.9,0c0-42.3,0-84.6,0-127.5c24,0,47.8,0,72.6,0
			c-1.1,6.9-2,13.4-3.1,20.4C2714.2,657,2700.3,657,2685.6,657z"/>
		<path class="st15" d="M2220.4,707.9c0,12.4,0,22.9,0,34.3c15.9,0,31.5,0,47.6,0c0,7.7,0,14.5,0,21.9c-24.7,0-49.1,0-74,0
			c0-42.6,0-84.7,0-127.4c24.2,0,48,0,72.7,0c-1,6.9-2,13.3-3.1,20.4c-14.5,0-28.3,0-43,0c0,9.9,0,19,0,29.2c11.2,0,22.7,0,34.8,0
			c0,7.5,0,14,0,21.6C2244,707.9,2232.6,707.9,2220.4,707.9z"/>
		<path class="st11" d="M3056.7,642.2c-4.5,6.8-8,12-11.5,17.1c-5.5-2-10.3-4.3-15.4-5.4c-14-3.1-25.6,2.8-30.3,16.3
			c-6.6,19.1-6.4,38.8-0.2,57.9c5.1,15.6,21.9,21.8,37.8,15.3c3.3-1.4,6.4-3.3,9.7-5c1,0.7,1.9,1.2,2.4,1.9
			c3.2,4.3,6.3,8.6,9.9,13.6c-13.2,10.8-28.1,13.8-44.1,11.8c-23.7-2.9-40.9-18.1-46.8-41.7c-4.8-18.9-3.9-37.7,3.1-56
			c12-31.1,45.4-42.6,74.2-31.9C3049.3,637.5,3052.5,639.9,3056.7,642.2z"/>
		<path class="st11" d="M3794,656.6c-11.5,0-21.1,0-31.3,0c0-7.1,0-14.2,0-20.7c92.2,0,0,0,92.2,0c-1.3,6.7-2.6,13.4-4,20.7
			c-10,0-19.5,0-29.8,0c-2,12.1-0.7,23.6-0.9,35.1c-0.2,12-0.1,24-0.1,36c0,11.6,0,23.2,0,35.6c-8.8,0-16.9,0-26.2,0
			C3794,728,3794,692.9,3794,656.6z"/>
		<path class="st1" d="M4357.2,763.3c-8.8,0-16.9,0-25.5,0c0-42.7,0-84.9,0-127.8c8.2,0,16.3,0,24.6,0
			C4358.3,642.2,4359.2,742.3,4357.2,763.3z"/>
		<path class="st16" d="M2897.8,636.6c8.6,0,16.7,0,25.5,0c0,42.4,0,84.4,0,127.3c-8,0-16.5,0-25.5,0
			C2897.8,721.7,2897.8,679.4,2897.8,636.6z"/>
		<path class="st9" d="M4563.7,724.5c-6.5,0-12.1,0-19.1,0c-1.9-28.3-3.8-56.5-5.7-85.7c10.1-1.5,19.5-2.9,30-4.5
			C4567.2,664.7,4565.5,694,4563.7,724.5z"/>
		<path class="st8" d="M4569.6,752.7c0.1,8.9-6.7,15.7-15.6,15.7c-8.7-0.1-14.7-6.3-14.8-15.2c-0.1-9.4,6.3-15.8,15.4-15.7
			C4563.1,737.6,4569.4,744.1,4569.6,752.7z"/>
		<path class="st17" d="M2442.6,120.8c3.2-0.2,6.2-0.5,9.1-0.5c30.9,0,61.8-0.1,92.8,0.1c7.3,0,14.7,0.5,21.8,1.9
			c15.1,2.9,24.4,14.2,25.2,29.3c0.8,16.7-6.4,27-22.8,31.6c-6.3,1.8-13.1,2.8-19.6,2.8c-33.9,0.3-67.8,0.2-101.7,0.1
			c-1.3,0-2.6-0.3-4.6-0.5C2442.6,164.1,2442.6,142.7,2442.6,120.8z"/>
		<path class="st18" d="M4310.9,190.8c0-23.4,0-46,0-69.1c1.9-0.4,3.8-1,5.6-1c30,0,59.9,0,89.9,0.2c4.6,0,9.3,0.5,13.9,1.3
			c16.4,2.6,26.8,14.3,28.1,31.4c1.4,17.8-6.3,30-23.1,34.9c-6.9,2-14.4,2.8-21.6,2.9c-29.3,0.3-58.6,0.1-87.9,0.1
			C4314.6,191.4,4313.3,191.1,4310.9,190.8z"/>
		<path class="st19" d="M3440,691c0-12.5,0-23,0-34.2c7.4-1.5,14.5-1.1,21.5,0.6c7.8,1.9,11.6,7.9,11.4,16.5
			c-0.2,8.2-3.6,13.5-11.5,15.2C3454.8,690.4,3447.8,690.3,3440,691z"/>
		<path class="st19" d="M2794.2,691.7c0-12.6,0-23.3,0-35.5c7.4,0.7,14.3,0.8,21,2.2c8.4,1.8,12.2,8.1,11.7,17.1
			c-0.5,8.6-4.6,13.7-13.1,14.9C2807.6,691.4,2801.3,691.3,2794.2,691.7z"/>
		<path class="st20" d="M2408.7,711.4c-8.6,0-15.7,0-23.8,0c3.9-15.1,7.6-29.4,11.3-43.7c0.5-0.1,0.9-0.1,1.4-0.2
			C2401.2,681.8,2404.8,696,2408.7,711.4z"/>
		<path class="st20" d="M4254.7,711.5c-8.3,0-15.5,0-23.8,0c3.8-15,7.5-29.3,11.2-43.6c0.5-0.1,1-0.2,1.5-0.3
			C4247.3,682,4250.9,696.4,4254.7,711.5z"/>
		<path class="st21" d="M1989.7,711.4c-8.3,0-15.7,0-23.9,0c4-15,7.7-29.3,11.5-43.5c0.5,0,1.1,0.1,1.6,0.1
			C1982.4,682.3,1985.9,696.5,1989.7,711.4z"/>
		<path class="st21" d="M3985.8,711.6c-8.3,0-15.6,0-24,0c4-15,7.8-29.5,11.6-44c0.5,0.1,1,0.2,1.5,0.3
			C3978.4,682.1,3981.9,696.1,3985.8,711.6z"/>
		<path class="st21" d="M3147.7,711.5c-8.1,0-15.4,0-23.8,0c3.9-14.9,7.7-29.3,11.4-43.8c0.5,0.1,1.1,0.1,1.6,0.2
			C3140.4,682.3,3144,696.6,3147.7,711.5z"/>
		<path class="st21" d="M3698.9,668c3.6,14.3,7.1,28.7,10.8,43.6c-8.2,0-15.4,0-23.9,0c3.9-15,7.7-29.4,11.5-43.8
			C3697.8,667.8,3698.3,667.9,3698.9,668z"/>
	</g>
</g>
<polygon class="st22" points="3008.8,-200.8 3017.4,-183.5 3036.5,-180.7 3022.6,-167.2 3025.9,-148.1 3008.8,-157.1 2991.6,-148.1 
	2994.9,-167.2 2981,-180.7 3000.2,-183.5 "/>
<polygon class="st22" points="2890.1,-200.8 2898.6,-183.5 2917.8,-180.7 2903.9,-167.2 2907.2,-148.1 2890.1,-157.1 2872.9,-148.1 
	2876.2,-167.2 2862.3,-180.7 2881.5,-183.5 "/>
<polygon class="st22" points="3125.1,-200.8 3133.7,-183.5 3152.9,-180.7 3139,-167.2 3142.3,-148.1 3125.1,-157.1 3108,-148.1 
	3111.2,-167.2 3097.4,-180.7 3116.5,-183.5 "/>
<polygon class="st22" points="3245.1,-200.8 3253.7,-183.5 3272.9,-180.7 3259,-167.2 3262.3,-148.1 3245.1,-157.1 3228,-148.1 
	3231.2,-167.2 3217.4,-180.7 3236.5,-183.5 "/>
<polygon class="st22" points="3361.9,-200.8 3370.5,-183.5 3389.7,-180.7 3375.8,-167.2 3379.1,-148.1 3361.9,-157.1 3344.8,-148.1 
	3348.1,-167.2 3334.2,-180.7 3353.4,-183.5 "/>
<polygon class="st22" points="2891.3,925.7 2899.8,943.1 2919,945.9 2905.1,959.4 2908.4,978.5 2891.3,969.5 2874.1,978.5 
	2877.4,959.4 2863.5,945.9 2882.7,943.1 "/>
<polygon class="st22" points="3009.3,925.7 3017.9,943.1 3037,945.9 3023.1,959.4 3026.4,978.5 3009.3,969.5 2992.1,978.5 
	2995.4,959.4 2981.5,945.9 3000.7,943.1 "/>
<polygon class="st22" points="3125.9,925.7 3134.5,943.1 3153.7,945.9 3139.8,959.4 3143.1,978.5 3125.9,969.5 3108.8,978.5 
	3112.1,959.4 3098.2,945.9 3117.4,943.1 "/>
<polygon class="st22" points="3245.8,925.7 3254.3,943.1 3273.5,945.9 3259.6,959.4 3262.9,978.5 3245.8,969.5 3228.6,978.5 
	3231.9,959.4 3218,945.9 3237.2,943.1 "/>
<polygon class="st22" points="3363.1,925.7 3371.7,943.1 3390.9,945.9 3377,959.4 3380.3,978.5 3363.1,969.5 3346,978.5 
	3349.2,959.4 3335.4,945.9 3354.5,943.1 "/>
</svg>
